<?xml version="1.0" standalone="no"?>
<!DOCTYPE svg PUBLIC "-//W3C//DTD SVG 1.1//EN" "http://www.w3.org/Graphics/SVG/1.1/DTD/svg11.dtd" >
<svg xmlns="http://www.w3.org/2000/svg" xmlns:xlink="http://www.w3.org/1999/xlink" version="1.1">
<metadata>
Created by FontForge 20190801 at Fri Jun 29 12:03:15 2012
 By www-data
Copyright (c) 2010 ParaType Ltd. All rights reserved.
</metadata>
<defs>
<font id="PTSerifRegular" horiz-adv-x="1091" >
  <font-face 
    font-family="PTSerifRegular"
    font-weight="400"
    font-stretch="normal"
    units-per-em="2048"
    panose-1="2 10 6 3 4 5 5 2 2 4"
    ascent="1593"
    descent="-455"
    x-height="1024"
    cap-height="1434"
    bbox="-115 -514.258 2003 1830.19"
    underline-thickness="102"
    underline-position="-204"
    unicode-range="U+000D-E000"
  />
<missing-glyph horiz-adv-x="2048" 
 />
    <glyph glyph-name=".notdef" horiz-adv-x="2048" 
 />
    <glyph glyph-name="glyph1" horiz-adv-x="0" 
 />
    <glyph glyph-name="glyph2" horiz-adv-x="2048" 
 />
    <glyph glyph-name="uni000D" unicode="&#xd;" horiz-adv-x="497" 
 />
    <glyph glyph-name="space" unicode=" " horiz-adv-x="497" 
 />
    <glyph glyph-name="exclam" unicode="!" horiz-adv-x="669" 
d="M244 118q0 60 39 97t101 37t101 -37t39 -97t-39 -97t-101 -37t-101 37t-39 97zM291 807v606q45 23 92 23t92 -23v-606l-65 -361h-54z" />
    <glyph glyph-name="quotedbl" unicode="&#x22;" horiz-adv-x="778" 
d="M178 1372q23 62 87 62t87 -62l-65 -340h-41zM424 1372q23 62 87 62t87 -62l-65 -340h-41z" />
    <glyph glyph-name="numbersign" unicode="#" 
d="M68 477l28 94h156l74 308h-156l29 94h149l82 342h107l-80 -342h291l81 342h107l-82 -342h164l-35 -94h-152l-73 -308h157l-34 -94h-144l-86 -358h-106l86 358h-291l-86 -358h-109l86 358h-163zM360 571h291l74 308h-291z" />
    <glyph glyph-name="dollar" unicode="$" 
d="M106 1087q0 79 29 142t79 113q103 102 275 114v100h107v-100q166 -10 297 -72q-3 -88 -49 -184h-53l-103 139q-44 8 -92 11v-547l59 -27q63 -31 124 -64.5t108 -79.5q104 -102 104 -263t-104.5 -263t-290.5 -124v-125h-107v118q-166 0 -310 68q-38 18 -58 37q2 20 4 54
t6 69q11 93 23 119h51l123 -199q62 -37 161 -41v584q-8 0 -12 4l-65 30q-146 67 -200 126t-80 120.5t-26 140.5zM291 1143.5q0 -70.5 15.5 -112.5t41.5 -75q49 -59 141 -106v500q-92 -10 -145 -73t-53 -133.5zM596 92q92 25 151.5 89.5t59.5 166.5t-61.5 164.5t-149.5 103.5
v-524z" />
    <glyph glyph-name="percent" unicode="%" horiz-adv-x="1652" 
d="M106 1106q0 84 26.5 147.5t75.5 109.5q100 95 254 95q252 0 330 -194q27 -66 27 -150t-26.5 -148.5t-74.5 -109.5q-99 -94 -256 -94q-158 0 -254 86q-102 90 -102 258zM187 51l1196 1403l71 -63l-1198 -1405zM278 1110q0 -123 47 -197.5t137 -74.5q184 0 184.5 271
t-184.5 271q-184 0 -184 -270zM829 322q0 84 26.5 147.5t75.5 109.5q100 95 254 95q252 0 330 -194q27 -66 27 -150t-26.5 -148.5t-74.5 -109.5q-99 -94 -256 -94q-158 0 -254 86q-102 90 -102 258zM1001 326q0 -123 47 -197.5t137 -74.5q184 0 184.5 271t-184.5 271
q-184 0 -184 -270z" />
    <glyph glyph-name="ampersand" unicode="&#x26;" horiz-adv-x="1779" 
d="M242 373q0 176 124 323q66 77 199 170q-59 66 -100 154t-41 151.5t20.5 113.5t60.5 88q89 85 227 85t221 -58.5t83 -168.5q0 -175 -167 -324q-46 -41 -91 -76q148 -184 428 -436q86 124 122 358q13 85 7 169q-61 12 -121 49v53h416v-53q-55 -35 -135 -49
q-43 -287 -165 -520q-27 -52 -44 -76q177 -143 320 -226l112 -49v-51h-291q-43 29 -108.5 71t-142.5 117q-107 -144 -304 -194q-71 -19 -167.5 -19t-184.5 33t-150 88q-128 116 -128 277zM451 461.5q0 -93.5 25.5 -159.5t70.5 -116q95 -104 246 -104q192 0 313 170
q-195 176 -400 432q-57 72 -90 119q-88 -86 -126.5 -167t-38.5 -174.5zM578 1192q0 -35 14 -77t38 -83q46 -81 105 -149q173 143 156 334q-4 66 -41 110.5t-99.5 44.5t-92 -15.5t-48 -41t-25.5 -57t-7 -66.5z" />
    <glyph glyph-name="quotesingle" unicode="'" horiz-adv-x="454" 
d="M178 1372q23 62 87 62t87 -62l-65 -340h-41z" />
    <glyph glyph-name="parenleft" unicode="(" horiz-adv-x="702" 
d="M121 498q0 439 304 758q91 96 196 182l43 -37q-185 -199 -266 -381q-101 -229 -101 -522q0 -530 367 -887l-50 -41q-234 171 -350 368q-143 242 -143 560z" />
    <glyph glyph-name="parenright" unicode=")" horiz-adv-x="702" 
d="M39 -389q256 250 335 621q29 133 29 288.5t-26.5 280.5t-73.5 229q-80 178 -264 371l43 37q242 -186 354 -371q146 -239 146 -549q0 -597 -494 -948z" />
    <glyph glyph-name="asterisk" unicode="*" horiz-adv-x="952" 
d="M125 1047l256 88q31 -16 31 -50l-207 -176q-32 4 -61 55q-30 51 -19 83zM127 1262q-13 31 7 65q37 64 73 72l205 -178q0 -38 -29 -54zM397 1509q18 27 76 27q59 0 80 -27l-45 -266q-31 -20 -64 0zM399 795l47 266q33 16 66 0l43 -264q-21 -25 -78 -25q-55 0 -78 23z
M543 1217l207 182q34 -4 60 -55t15 -84l-254 -97q-29 20 -28 54zM545 1081q0 28 26 52l252 -86q16 -28 -5 -65q-39 -69 -73 -73z" />
    <glyph glyph-name="plus" unicode="+" 
d="M86 649v109h406v430h108v-430h406v-109h-406v-440h-108v440h-406z" />
    <glyph glyph-name="comma" unicode="," horiz-adv-x="579" 
d="M104 -305q76 27 134 111q57 80 49 167q-55 51 -137 78q-19 72 26 141q40 62 88 66q72 -10 126 -63.5t54 -159.5q0 -123 -80 -237q-86 -125 -219 -165z" />
    <glyph glyph-name="hyphen" unicode="-" horiz-adv-x="870" 
d="M145 512v129h578v-129h-578z" />
    <glyph glyph-name="period" unicode="." horiz-adv-x="571" 
d="M145 118q0 60 39 97t101.5 37t101.5 -37t39 -97t-39 -97t-101 -37t-101.5 37t-39.5 97z" />
    <glyph glyph-name="slash" unicode="/" horiz-adv-x="704" 
d="M-76 -227l746 1685l86 -37l-748 -1687z" />
    <glyph glyph-name="zero" unicode="0" 
d="M72 717q0 369 122.5 555t361.5 186t353.5 -183t114.5 -555t-124 -558.5t-365 -186.5q-358 0 -437 429q-26 137 -26 313zM268 717q0 -658 264 -658q162 0 228.5 160t66.5 498q0 326 -57 475q-69 180 -223 180t-216.5 -158.5t-62.5 -496.5z" />
    <glyph glyph-name="one" unicode="1" 
d="M233 1266q241 79 381 192h52v-1329q102 -24 204 -70v-59h-598v59q101 46 209 70v1006l8 120q-110 -44 -245 -38z" />
    <glyph glyph-name="two" unicode="2" 
d="M98 0v66q172 180 243 263t139.5 175t121.5 187q121 217 121 370q0 125 -61 206q-65 85 -177 85q-66 0 -147 -25l-66 -293h-51q-44 112 -86 291q157 133 389 133q194 0 298 -106q93 -95 93 -248q0 -203 -185 -470q-129 -186 -341 -390l-86 -80v-8l115 12h352l100 229h52
q22 -247 22 -397h-846z" />
    <glyph glyph-name="three" unicode="3" 
d="M123 80l57 184h41q20 -23 61 -65q48 -49 103 -111q80 -16 138 -16t107.5 25.5t86.5 69.5q80 95 80 222q0 148 -88 229q-84 76 -213 76h-134v56l345 460l69 72v8l-110 -12h-347l-79 -209h-52q-43 231 -43 365h801v-64l-342 -457l-88 -90v-4l70 15q189 -8 300 -124
q107 -113 107 -286q0 -198 -151 -326q-143 -123 -344 -123q-154 0 -300 61q-44 19 -75 44z" />
    <glyph glyph-name="four" unicode="4" 
d="M8 395v47l758 1016h55v-956h260v-107h-260v-286q80 -16 156 -50v-59h-533v59q100 35 189 50v286h-625zM143 487l146 15h344v526l22 148h-6l-80 -148l-344 -473z" />
    <glyph glyph-name="five" unicode="5" 
d="M115 80l59 184h41q42 -49 84.5 -103.5t58.5 -72.5q20 -4 38 -10t70.5 -6t108.5 26.5t97 72.5q86 96 86 241q0 158 -115 240q-108 77 -272 73l-146 -2l82 711h488l88 112h51q-13 -196 -41 -274h-504l-49 -395h133q209 0 333 -110q128 -115 128 -310q0 -226 -150 -359
q-136 -123 -331 -123q-138 0 -269 63q-41 19 -69 42z" />
    <glyph glyph-name="six" unicode="6" 
d="M100 512q0 365 232 638q106 124 242.5 206t283.5 114l23 -61q-225 -80 -380 -262q-167 -195 -192 -442q33 55 117 101t183.5 46t175 -28.5t129 -82t84 -131.5t30.5 -175t-32.5 -180t-91.5 -145q-129 -135 -331 -135q-223 0 -351 152q-122 146 -122 385zM297 461
q0 -146 71 -261q80 -130 216 -130q123 0 189 108q58 95 58 239t-70.5 236t-197.5 92q-96 0 -164.5 -48t-97.5 -107q-4 -29 -4 -68v-61z" />
    <glyph glyph-name="seven" unicode="7" 
d="M133 1434h848v-60q-195 -347 -286 -646q-76 -249 -152 -728h-205q146 573 448 1188l62 98l-107 -10h-434l-80 -209h-51q-43 231 -43 367z" />
    <glyph glyph-name="eight" unicode="8" 
d="M100 322q0 204 198 333q60 39 132 64q-134 73 -194 151q-80 104 -80 230q0 159 109 258q111 100 292.5 100t282 -91t100.5 -222q0 -237 -281 -367q334 -172 334 -430q0 -160 -117 -262q-128 -111 -339 -111q-212 0 -331 106q-106 94 -106 241zM276 341q0 -44 15.5 -94
t48.5 -89q74 -88 213 -88q121 0 195 78q65 69 65 178q0 57 -27.5 113.5t-73.5 100.5q-76 73 -231 148q-156 -92 -195 -258q-10 -45 -10 -89zM332 1117q0 -54 23.5 -101t62.5 -85q66 -64 192 -126q86 70 121 139.5t35 175t-56.5 174t-154.5 68.5q-101 0 -166 -74
q-57 -65 -57 -171z" />
    <glyph glyph-name="nine" unicode="9" 
d="M96 997q0 205 118 331q123 130 339 130q229 0 351 -152q110 -137 110 -403q0 -371 -206 -636q-95 -122 -225 -197.5t-280 -94.5l-37 60q233 63 374 247q129 167 165 414q-47 -49 -111.5 -82.5t-166 -33.5t-179.5 27.5t-133 80.5q-119 115 -119 309zM293 1020.5
q0 -146.5 74 -240.5t182 -94q196 0 268 119q4 27 4 67v62q0 171 -63 288q-75 140 -205.5 140t-195 -97.5t-64.5 -244z" />
    <glyph glyph-name="colon" unicode=":" horiz-adv-x="669" 
d="M243 118q0 60 39 97t101.5 37t101.5 -37t39 -97t-39 -97t-101 -37t-101.5 37t-39.5 97zM243 906q0 60 39 97t101.5 37t101.5 -37t39 -97t-39 -97t-101 -37t-101.5 37t-39.5 97z" />
    <glyph glyph-name="semicolon" unicode=";" horiz-adv-x="679" 
d="M213 -305q76 27 134 111q57 80 49 167q-55 51 -137 78q-19 72 26 141q40 62 88 66q72 -10 126 -63.5t54 -159.5q0 -123 -80 -237q-86 -125 -219 -165zM254 906q0 60 39 97t101.5 37t101.5 -37t39 -97t-39 -97t-101 -37t-101.5 37t-39.5 97z" />
    <glyph glyph-name="less" unicode="&#x3c;" 
d="M90 664v63l789 481l51 -90l-512 -309l-176 -82l174 -63l542 -320l-81 -133z" />
    <glyph glyph-name="equal" unicode="=" 
d="M86 485v109h922v-109h-922zM86 813v109h922v-109h-922z" />
    <glyph glyph-name="greater" unicode="&#x3e;" 
d="M137 1075l80 133l787 -452v-64l-789 -481l-49 90l512 309l176 82l-174 64z" />
    <glyph glyph-name="question" unicode="?" horiz-adv-x="968" 
d="M143 1372q78 47 167 66.5t199.5 19.5t179.5 -25.5t115 -69.5q93 -89 93 -239q0 -204 -227 -388q-140 -112 -196 -218q-34 -63 -34 -149h-41q-14 59 -14 124.5t23.5 122t58.5 103.5t76 89t75 86q82 104 82 210q0 100 -54 169q-61 79 -175 79q-125 0 -164 -37l-47 -252h-51
q-51 175 -66 309zM293 118q0 60 39 97t101 37t101 -37t39 -97t-38.5 -97t-101 -37t-101.5 37t-39 97z" />
    <glyph glyph-name="at" unicode="@" horiz-adv-x="2179" 
d="M193 483q0 223 73.5 403.5t201.5 307.5t300 195.5t362.5 68.5t349 -54t275.5 -156q248 -215 248 -580q0 -266 -171 -461q-79 -90 -181.5 -143.5t-189 -53.5t-130 19.5t-65.5 63.5q-47 90 -2 282h-9q-49 -141 -153 -247q-116 -118 -233.5 -118t-184 85t-66.5 221.5
t44.5 261t119 223t173 158t189.5 59.5t134 -12t92 -35q76 35 154 33l-105 -586q-40 -224 5 -280q18 -21 69.5 -21t123 38t131.5 109q138 165 138 404q0 156 -59.5 282.5t-162.5 215.5q-215 186 -538 186q-367 0 -596 -249q-106 -116 -163.5 -272.5t-57.5 -336.5t59.5 -320.5
t167.5 -237.5q217 -198 582 -198q147 0 273 57l32 -90q-130 -74 -327 -74t-356.5 53.5t-281.5 159.5q-265 232 -265 639zM803 346q0 -98 30.5 -153.5t116.5 -55.5q108 0 259 275q42 77 75 155l51 305q-68 41 -149.5 41t-151 -54t-120.5 -138q-111 -180 -111 -375z" />
    <glyph glyph-name="A" unicode="A" horiz-adv-x="1398" 
d="M0 0v59q74 33 147 50l519 1349h59l518 -1349q108 -21 156 -50v-59h-525v59q77 30 168 50l-139 374h-489l-135 -374q86 -12 176 -50v-59h-455zM455 590h413l-161 434l-39 176h-4l-52 -180z" />
    <glyph glyph-name="B" unicode="B" horiz-adv-x="1259" 
d="M59 0v59q82 39 168 50v1214q-75 15 -168 51v60h217l336 12q475 0 475 -340q0 -183 -151 -287q-51 -35 -121 -51v-8q225 -37 307 -205q29 -61 29 -159.5t-49 -178.5t-128 -131q-152 -98 -382 -98l-336 12h-197zM412 111q62 -17 165 -17t167.5 22.5t110.5 62.5
q99 86 99 218q0 279 -389 279h-153v-565zM412 782h102q94 0 162 11q94 33 154.5 105.5t60.5 170.5q0 135 -81 202.5t-211.5 67.5t-186.5 -8v-549z" />
    <glyph glyph-name="C" unicode="C" horiz-adv-x="1318" 
d="M109 721q0 197 55 337t150 229q181 171 481 171q247 0 389 -69q0 -151 -31 -353h-53l-107 295q-40 21 -160 21t-211.5 -38t-159.5 -117q-151 -174 -151 -480q0 -293 143 -464q144 -171 398 -171q142 0 172 37l96 254h54q23 -134 23 -256q0 -29 -1 -58q-104 -84 -358 -84
q-533 0 -679 409q-50 140 -50 337z" />
    <glyph glyph-name="D" unicode="D" horiz-adv-x="1449" 
d="M59 0v59q72 33 168 50v1214q-87 18 -168 51v60h209l353 16q348 0 535 -186.5t187 -528.5q0 -340 -186 -539q-201 -214 -579 -214l-322 18h-197zM412 94q30 -6 105 -6h87q263 0 400 196q120 170 120 451q0 238 -118 405q-62 89 -164.5 146t-247.5 57t-182 -8v-1241z" />
    <glyph glyph-name="E" unicode="E" horiz-adv-x="1191" 
d="M59 0v59q72 33 168 50v1214q-75 15 -168 51v60h971q-5 -185 -22 -332h-54l-84 225h-446v-543h334l80 152h51q6 -102 6 -205t-6 -209h-51l-80 156h-334v-572h471l100 246h52q24 -144 24 -280q0 -36 -2 -72h-1010z" />
    <glyph glyph-name="F" unicode="F" horiz-adv-x="1114" 
d="M59 0v59q70 32 148 50v1214q-78 17 -148 51v60h961q-5 -193 -23 -332h-53l-84 225h-457v-584h355l84 152h47q8 -94 8 -207t-8 -207h-47l-84 158h-355v-530q90 -12 177 -50v-59h-521z" />
    <glyph glyph-name="G" unicode="G" horiz-adv-x="1409" 
d="M109 721q0 197 58 338t155 230q186 169 455 169t411 -69q0 -162 -31 -353h-53l-107 295q-40 21 -161 21t-213.5 -38t-160.5 -117q-151 -174 -151 -480q0 -285 151 -462q146 -173 372 -173q114 0 206 51q21 12 29 21v413q-65 5 -197 49v60h502v-60q-43 -30 -127 -49v-469
q-124 -73 -319 -112q-58 -11 -109 -11q-513 0 -660 410q-50 139 -50 336z" />
    <glyph glyph-name="H" unicode="H" horiz-adv-x="1490" 
d="M59 0v59q82 33 168 50v1214q-96 14 -168 51v60h519v-60q-66 -34 -154 -51v-535h643v535q-86 20 -154 51v60h519v-60q-56 -30 -168 -51v-1214q100 -17 168 -50v-59h-519v59q74 33 154 50v573h-643v-573q85 -17 154 -50v-59h-519z" />
    <glyph glyph-name="I" unicode="I" horiz-adv-x="720" 
d="M98 0v59q80 37 164 50v1214q-67 13 -164 51v60h525v-60q-80 -35 -164 -51v-1214q99 -18 164 -50v-59h-525z" />
    <glyph glyph-name="J" unicode="J" horiz-adv-x="698" 
d="M80 1374v60h520v-60q-87 -37 -156 -51v-1147q0 -252 -113 -384q-77 -89 -202 -120l-23 31q69 60 95 129q47 123 47 322v1169q-103 23 -168 51z" />
    <glyph glyph-name="K" unicode="K" horiz-adv-x="1323" 
d="M59 0v59q82 33 168 50v1214q-92 12 -168 51v60h519v-60q-79 -34 -154 -51v-567l123 28l383 539q-86 21 -148 51v60h453v-60q-78 -34 -156 -51l-411 -545q152 -203 317.5 -399.5t239.5 -278.5l98 -49v-51h-256l-70 49q-206 240 -473 637h-100v-577q94 -16 154 -50v-59
h-519z" />
    <glyph glyph-name="L" unicode="L" horiz-adv-x="1124" 
d="M59 0v59q65 31 168 50v1214q-90 15 -168 51v60h562v-60q-110 -40 -197 -51v-1217h471l121 330h53q23 -165 23 -278t-2 -158h-1031z" />
    <glyph glyph-name="M" unicode="M" horiz-adv-x="1775" 
d="M59 1374v60h420l357 -936l69 -211h2l70 215l369 932h370v-60q-87 -38 -155 -51v-1217q91 -17 153 -47v-59h-508v59q56 22 166 50v921l8 240h-16l-68 -219l-419 -1051h-54l-399 1051l-74 239h-18l2 -260v-921q80 -16 155 -50v-59h-428v59q86 35 166 52v1212
q-71 13 -168 51z" />
    <glyph glyph-name="N" unicode="N" horiz-adv-x="1499" 
d="M59 0v59q68 42 168 72v1174q-79 31 -155 71v58h346l645 -973l94 -176h8l-10 176v831q-82 35 -158 82v60h443v-60q-86 -57 -168 -82v-1317h-117l-743 1129l-80 160h-6l18 -160v-973q84 -23 158 -72v-59h-443z" />
    <glyph glyph-name="O" unicode="O" horiz-adv-x="1515" 
d="M109 717q0 326 171 531q173 210 478 210q303 0 478 -210q171 -204 171 -531t-171 -531q-176 -211 -478 -211q-304 0 -478 211q-171 205 -171 531zM328 717q0 -278 110 -449q121 -186 338 -186q201 0 310 186q102 173 102 449q0 435 -248 585q-84 50 -198 50t-192.5 -50.5
t-127.5 -136.5q-94 -165 -94 -448z" />
    <glyph glyph-name="P" unicode="P" horiz-adv-x="1220" 
d="M59 0v59q49 24 168 50v1214q-75 13 -168 51v60h185l362 16q365 0 489 -230q46 -85 46 -209t-47 -210t-126 -141q-152 -107 -386 -107h-64q-54 0 -94 8v-452q97 -11 197 -50v-59h-562zM424 670q10 -4 29.5 -5t41 -3.5t41.5 -2.5h33q240 0 324 191q29 65 29 158
q0 168 -95.5 251.5t-263.5 83.5q-91 0 -139 -10v-663z" />
    <glyph glyph-name="Q" unicode="Q" horiz-adv-x="1515" 
d="M109 717q0 326 171 531q173 210 478 210q303 0 478 -210q171 -204 171 -531t-171 -531q-176 -211 -478 -211q-304 0 -478 211q-171 205 -171 531zM328 717q0 -278 110 -449q121 -186 338 -186q201 0 310 186q102 173 102 449q0 435 -248 585q-84 50 -198 50t-192.5 -50.5
t-127.5 -136.5q-94 -165 -94 -448zM354 -135l62 41q45 6 117.5 6t172 -24.5t200 -53.5t202.5 -53.5t215.5 -24.5t222.5 37l10 -29q-82 -74 -168 -126q-83 -51 -173 -51h-3q-92 1 -184 32t-196.5 74t-222 90t-255.5 82z" />
    <glyph glyph-name="R" unicode="R" horiz-adv-x="1304" 
d="M59 0v59q58 26 168 50v1214q-86 16 -168 51v60h181q82 0 179 8t193 8t183.5 -22.5t150.5 -71.5q135 -104 135 -307q0 -150 -78.5 -248.5t-214.5 -141.5q176 -278 386 -548l110 -60v-51h-248l-78 57q-157 199 -269 423q-36 73 -73 155h-192v-526q110 -23 174 -50v-59h-539
zM424 721h147q141 0 224.5 90t83.5 240t-88.5 221t-227.5 71q-94 0 -139 -10v-612z" />
    <glyph glyph-name="S" unicode="S" horiz-adv-x="1097" 
d="M119 72q12 202 51 370h53l84 -301q59 -59 180 -59q137 0 223 68q91 73 91 192q0 82 -50.5 137.5t-125 98.5t-162.5 83.5t-163 97t-125 135.5t-50 181.5t30.5 170t86.5 114.5q118 98 309 98q250 0 391 -67q0 -139 -49 -353h-53l-82 281q-76 33 -196.5 33t-184.5 -58.5
t-64 -153t50.5 -151.5t126 -102t162.5 -87t163 -97.5t126 -131t50 -178t-33.5 -178.5t-97.5 -129q-132 -111 -364 -111q-129 0 -231.5 31t-145.5 66z" />
    <glyph glyph-name="T" unicode="T" horiz-adv-x="1267" 
d="M39 1434h1190q0 -102 -8.5 -229.5t-14.5 -170.5h-53l-106 293h-314v-1218q132 -25 189 -50v-59h-576v59q96 34 191 50v1218h-314l-108 -293h-52q-24 164 -24 400z" />
    <glyph glyph-name="U" unicode="U" horiz-adv-x="1376" 
d="M20 1374v60h521v-60q-71 -29 -156 -51v-838q0 -302 203 -361q67 -20 151 -20q162 0 252 89.5t90 293.5v818q-97 33 -161 69v60h436v-60q-87 -51 -160 -69v-822q0 -250 -132 -381q-123 -120 -349 -120q-527 0 -527 471v870q-84 12 -168 51z" />
    <glyph glyph-name="V" unicode="V" horiz-adv-x="1400" 
d="M0 1374v60h543v-60q-81 -33 -168 -51l350 -936l43 -164h4l41 168l303 932q-66 14 -176 51v60h461v-60q-59 -33 -148 -51l-462 -1323l-113 -25l-522 1348q-60 15 -156 51z" />
    <glyph glyph-name="W" unicode="W" horiz-adv-x="1912" 
d="M0 1374v60h532v-60q-106 -38 -167 -51l202 -825l45 -267h4l72 271l277 932h69l297 -932l60 -266h4l47 270l188 817q-67 9 -176 51v60h459v-60q-70 -31 -148 -51l-342 -1323l-127 -25l-329 1115l-324 -1090l-125 -25l-362 1348q-87 21 -156 51z" />
    <glyph glyph-name="X" unicode="X" horiz-adv-x="1372" 
d="M20 0v59q48 25 152 50l401 612l-385 602q-81 24 -161 51v60h542v-60q-66 -26 -155 -51l286 -463l279 463q-84 18 -170 51v60h471v-60q-86 -34 -154 -51l-360 -555l420 -659q98 -16 168 -50v-59h-545v59q74 37 156 50l-324 514l-311 -517q110 -15 164 -47v-59h-474z" />
    <glyph glyph-name="Y" unicode="Y" horiz-adv-x="1318" 
d="M0 1374v60h543v-60q-87 -34 -158 -51l336 -602l315 602q-76 16 -168 51v60h451v-60q-78 -39 -156 -51l-387 -713v-501q80 -10 156 -50v-59h-520v59q74 37 168 50v499l-414 715q-71 12 -166 51z" />
    <glyph glyph-name="Z" unicode="Z" horiz-adv-x="1249" 
d="M80 0v104l852 1223h-631l-125 -287h-51q-25 179 -25 394h1047v-107l-848 -1221h668l125 287h53q24 -164 24 -310q0 -42 -2 -83h-1087z" />
    <glyph glyph-name="bracketleft" unicode="[" horiz-adv-x="628" 
d="M170 -471v1905h387v-86h-213v-1735h213v-84h-387z" />
    <glyph glyph-name="backslash" unicode="\" horiz-adv-x="782" 
d="M-96 1413l86 45l848 -1677l-84 -47z" />
    <glyph glyph-name="bracketright" unicode="]" horiz-adv-x="628" 
d="M72 -387h213v1735h-213v86h387v-1905h-387v84z" />
    <glyph glyph-name="asciicircum" unicode="^" horiz-adv-x="1024" 
d="M96 889l381 567h66l348 -567h-180l-181 309l-49 137l-65 -139l-205 -307h-115z" />
    <glyph glyph-name="underscore" unicode="_" horiz-adv-x="839" 
d="M0 -293h840v-108h-840v108z" />
    <glyph glyph-name="grave" unicode="`" horiz-adv-x="671" 
d="M123 1485v41q38 31 163 44q29 3 46 1l217 -357l-45 -34z" />
    <glyph glyph-name="a" unicode="a" horiz-adv-x="1034" 
d="M80 235.5q0 108.5 38 169t111.5 95.5t182 50t252.5 23q6 62 6 114q0 106 -24 166q-40 105 -157 105q-85 0 -135 -20l-96 -246h-53q-48 147 -55 256q168 101 385 101q188 0 261 -107q54 -77 54 -219l-10 -455q0 -45 2 -77.5t4 -69.5l141 -21v-43q-102 -54 -233 -77h-52
q-20 47 -24 103t-6 124h-10q-18 -92 -94 -158q-85 -74 -208 -74t-201.5 76t-78.5 184.5zM276 298.5q0 -99.5 45 -148t109.5 -48.5t103.5 20.5t66 49.5q46 50 66 109v215q-230 0 -314 -52q-76 -46 -76 -145.5z" />
    <glyph glyph-name="b" unicode="b" horiz-adv-x="1116" 
d="M2 1413v53q63 27 142 43.5t147 30.5h51v-719h4q35 104 118 166t183 62q186 0 285.5 -127t99.5 -394.5t-136 -406.5t-392 -139q-159 0 -286 48q-38 15 -60 29v1338zM342 115q80 -43 209 -43t207 117.5t78 340.5q0 272 -132 361q-46 31 -128 31t-143.5 -67t-90.5 -169v-571
z" />
    <glyph glyph-name="c" unicode="c" horiz-adv-x="954" 
d="M84 517.5q0 254.5 127 393t332.5 138.5t326.5 -64q-16 -181 -63 -291h-55l-86 244q-28 20 -95 20q-139 0 -214.5 -101t-75.5 -343q0 -168 87 -284q97 -128 284 -128q107 0 196 70l26 -29q-37 -72 -119.5 -120t-198.5 -48t-205 38t-149 109q-118 141 -118 395.5z" />
    <glyph glyph-name="d" unicode="d" horiz-adv-x="1136" 
d="M84 500.5q0 267.5 128 404.5t345 137q122 0 213 -32v387l-156 16v53q100 43 289 74h51v-1423l136 -17v-43q-123 -61 -248 -77h-51l-19 223h-8q-21 -93 -95 -159q-78 -69 -182 -69q-203 0 -303 129t-100 396.5zM281 506q0 -277 135 -372q46 -32 129 -32t143 63.5t82 172.5
v577q-65 37 -203.5 37t-212 -121.5t-73.5 -324.5z" />
    <glyph glyph-name="e" unicode="e" horiz-adv-x="1030" 
d="M84 520q0 254 121 391.5t342 137.5q261 0 353 -204q34 -75 34 -168t-14 -165h-639q0 -181 86 -291q93 -119 262 -119q72 0 145.5 20.5t110.5 53.5l28 -33q-31 -69 -131 -119q-99 -49 -213.5 -49t-206.5 38t-154 109q-124 144 -124 398zM287 602h450q4 36 4 70
q0 131 -49 208.5t-159.5 77.5t-172 -78.5t-73.5 -277.5z" />
    <glyph glyph-name="f" unicode="f" horiz-adv-x="700" 
d="M63 922v53q72 45 156 67v72q0 347 247 408q75 18 177.5 18t171.5 -27q-12 -133 -45 -231h-51l-90 176q-125 0 -171 -59q-55 -69 -55 -273v-102h236v-102h-236v-822q106 -12 197 -49v-51h-516v51q63 37 135 49v822h-156z" />
    <glyph glyph-name="g" unicode="g" horiz-adv-x="1077" 
d="M61 -168q0 151 150 222q49 24 113 44q-105 47 -105 144q0 47 40 93t81 73q-117 31 -179.5 116.5t-62.5 175t27 149.5t78 105q108 95 312 95t304 -88q121 82 252 118q31 -45 31 -116l-27 -50h-215q51 -74 51 -207.5t-103 -226t-302 -92.5q-57 0 -119 8
q-10 -18 -23.5 -40.5t-13.5 -55.5t47 -56.5t118 -42t154 -38t155 -52.5q165 -78 169 -229v-8q0 -140 -133 -224q-131 -83 -351 -83t-334 75.5t-114 190.5zM246 -127q0 -217 303 -217q260 0 260 178q0 66 -44 104.5t-109.5 63.5t-141.5 41t-141 37q-78 -47 -102.5 -99.5
t-24.5 -107.5zM283 719q0 -170 116 -223q43 -19 107 -19q119 0 170 69.5t51 176.5t-50 171t-173 64t-172 -62t-49 -177z" />
    <glyph glyph-name="h" unicode="h" horiz-adv-x="1202" 
d="M29 1413v53q99 42 288 74h52v-723h2q43 96 123.5 164t179 68t163 -19.5t107.5 -69.5q88 -101 88 -342v-518q97 -22 135 -49v-51h-442v51q49 27 123 49v480q0 160 -45 251t-164 91q-95 0 -174 -70q-70 -62 -96 -154v-598q81 -20 120 -49v-51h-440v51q63 33 135 49v1297z
" />
    <glyph glyph-name="i" unicode="i" horiz-adv-x="616" 
d="M84 0v51q55 29 135 49v805l-135 17v53q100 42 268 74h51v-949q90 -22 136 -49v-51h-455zM180 1372q0 55 36 88t95 33t94 -33t35 -88t-35 -87t-94 -32t-95 32t-36 87z" />
    <glyph glyph-name="j" unicode="j" horiz-adv-x="589" 
d="M72 -395q94 45 132 260q13 78 13 184v856l-135 17v53q92 45 268 74h51v-961q0 -250 -123 -398q-81 -98 -182 -124zM178 1372q0 55 36 88t95 33t94 -33t35 -88t-35 -87t-94 -32t-95 32t-36 87z" />
    <glyph glyph-name="k" unicode="k" horiz-adv-x="1056" 
d="M29 1413v53q57 27 137 43.5t151 30.5h52v-979h53q171 192 293 361q-51 14 -101 49v53h396v-53q-86 -35 -156 -49q-94 -124 -181 -218t-114 -120q31 -41 75 -99.5t95 -124.5q127 -163 213 -260l115 -49v-51h-254l-55 49q-137 170 -312 438l-67 21v-408q68 -12 133 -49v-51
h-453v51q68 33 135 49v1297z" />
    <glyph glyph-name="l" unicode="l" horiz-adv-x="616" 
d="M63 1413v53q90 43 289 74h51v-1440q68 -16 136 -49v-51h-455v51q68 33 135 49v1297z" />
    <glyph glyph-name="m" unicode="m" horiz-adv-x="1767" 
d="M63 0v51q58 28 136 49v805l-136 17v53q107 47 269 74h51v-232h2q33 96 111.5 164t195.5 68q176 0 244 -125q27 -50 39 -127q37 113 119 182.5t204 69.5q160 0 226 -89q71 -94 71 -346v-514q70 -12 136 -49v-51h-441v51q61 33 121 49v510q0 162 -27.5 215.5t-64.5 75
t-98 21.5q-98 0 -152.5 -68t-79.5 -172v-582q72 -20 133 -49v-51h-438v51q55 33 121 49v473q0 181 -26.5 241t-63.5 84t-89.5 24t-90 -18.5t-67.5 -49.5q-60 -62 -85 -152v-602q77 -23 121 -49v-51h-441z" />
    <glyph glyph-name="n" unicode="n" horiz-adv-x="1216" 
d="M63 0v51q51 27 136 49v805l-136 17v53q88 38 269 74h51v-230h2q43 94 124 162t179.5 68t162.5 -19.5t107 -69.5q89 -102 89 -342v-518q82 -14 135 -49v-51h-441v51q55 29 121 49v486q0 156 -45 246t-164 90q-145 0 -231 -141q-25 -40 -39 -83v-598q63 -12 123 -49v-51
h-443z" />
    <glyph glyph-name="o" unicode="o" horiz-adv-x="1132" 
d="M84 516q0 125 34 224.5t98 167.5q130 141 349 141q365 0 456 -318q28 -98 28 -219q0 -258 -131.5 -397.5t-352.5 -139.5q-239 0 -363 147q-118 141 -118 394zM281 512q0 -315 171 -412q62 -34 148 -34q111 0 181.5 108.5t70.5 337.5q0 311 -166 412q-57 34 -137 34
q-121 0 -194.5 -108.5t-73.5 -337.5z" />
    <glyph glyph-name="p" unicode="p" horiz-adv-x="1159" 
d="M63 -358q70 33 136 49v1214l-136 17v53q107 47 269 74h51v-230h2q91 230 307 230q383 0 383 -514q0 -261 -129 -410q-131 -150 -350 -150q-76 0 -119 9.5t-94 31.5v-325q66 -8 135 -49v-52h-455v52zM383 111q72 -45 203 -45q135 0 214 132q79 133 79 337q0 387 -252 387
q-190 0 -244 -238v-573z" />
    <glyph glyph-name="q" unicode="q" horiz-adv-x="1122" 
d="M84 506q0 266 132 401t380 135q111 0 211 -20.5t147 -42.5v-1288q72 -12 136 -49v-52h-455v52q63 33 135 49v491h-8q-29 -82 -100.5 -144.5t-182.5 -62.5q-395 0 -395 531zM281 510q0 -286 131 -376q46 -32 116 -32q187 0 242 234v588q-86 28 -203 28q-286 0 -286 -442z
" />
    <glyph glyph-name="r" unicode="r" horiz-adv-x="786" 
d="M63 0v51q54 29 136 49v805l-136 17v53q104 46 269 74h51v-218h8q38 87 130 156q84 64 175 64q15 0 29 -2q24 -46 47 -125v-54h-272q-23 -12 -56.5 -50t-60.5 -111v-609q93 -9 164 -49v-51h-484z" />
    <glyph glyph-name="s" unicode="s" horiz-adv-x="886" 
d="M94 35q8 142 56 274h51l90 -223q29 -20 115.5 -20t142 48.5t55.5 112t-36 104t-91 75t-117.5 67.5t-117.5 77q-127 100 -127 243q0 109 94 183q92 73 213 73q190 0 328 -48q-19 -159 -52 -268h-51l-78 209q-40 16 -97.5 16t-85.5 -13t-48 -33q-39 -42 -39 -99t36 -97
t91 -74t117.5 -66.5t118.5 -73.5q126 -93 126 -226q0 -136 -111 -219q-109 -82 -263 -82t-320 60z" />
    <glyph glyph-name="t" unicode="t" horiz-adv-x="759" 
d="M31 922v53q78 49 164 69v175q31 26 133 73h51v-268h307v-102h-307v-594q0 -123 39 -174.5t117 -51.5q116 0 186 25l14 -31q-34 -38 -93 -67q-109 -54 -214 -54t-169 70t-64 225v652h-164z" />
    <glyph glyph-name="u" unicode="u" horiz-adv-x="1175" 
d="M35 922v53q114 43 268 74h51l-12 -607q0 -174 42 -249q51 -91 156 -91t167.5 67t97.5 173v563l-133 17v53q108 43 266 74h51v-932l135 -17v-43q-129 -59 -245 -77h-52l-14 243h-8q-22 -96 -103 -167q-91 -81 -189.5 -81t-161 19.5t-105.5 69.5q-88 101 -88 342l12 499z
" />
    <glyph glyph-name="v" unicode="v" horiz-adv-x="1038" 
d="M-20 971v53h428v-51q-75 -39 -117 -51l237 -617l41 -127h4l31 129l219 615q-65 16 -112 49v53h348v-53q-40 -28 -117 -49l-362 -922l-93 -25l-399 947q-59 20 -108 49z" />
    <glyph glyph-name="w" unicode="w" horiz-adv-x="1490" 
d="M-20 971v53h426v-51q-69 -38 -117 -51l178 -598l27 -148h4l30 152l222 676l61 20l236 -698l36 -150h4l31 150l158 596q-55 10 -113 49v53h348v-53q-43 -29 -116 -49l-291 -922l-109 -25l-202 580l-39 170h-6l-48 -170l-184 -555l-106 -25l-322 947q-76 26 -108 49z" />
    <glyph glyph-name="x" unicode="x" horiz-adv-x="1062" 
d="M20 0v51q57 35 115 49l305 408l-307 414q-60 21 -100 49v53h411v-51q-64 -41 -100 -51l213 -308l209 308q-70 23 -102 49v53h342v-53q-39 -27 -115 -49l-281 -373l324 -449q76 -26 108 -49v-51h-419v49q79 44 102 51l-227 336l-230 -336q50 -17 103 -49v-51h-351z" />
    <glyph glyph-name="y" unicode="y" horiz-adv-x="1034" 
d="M-23 971v53h429v-51q-43 -29 -117 -51l262 -607l39 -127h4l31 129l194 605q-61 12 -112 49v53h350v-53q-43 -29 -117 -49l-319 -922q-128 -341 -272 -408q-46 -22 -99 -32q-34 58 -70 176l27 49h213q45 60 92 215l-426 922q-53 14 -109 49z" />
    <glyph glyph-name="z" unicode="z" horiz-adv-x="999" 
d="M88 0v51l584 883h-387l-90 -242h-52q-22 121 -22 332h770v-53l-586 -881h400l110 260h51q26 -161 26 -293q0 -29 -1 -57h-803z" />
    <glyph glyph-name="braceleft" unicode="{" horiz-adv-x="712" 
d="M113 451v61q78 0 120.5 62.5t42.5 152.5v490q0 98 49.5 157.5t147.5 59.5h184v-86h-98q-55 0 -80.5 -29t-25.5 -94v-477q0 -124 -77 -192q-62 -55 -149 -64v-13q87 -10 149 -69q77 -74 77 -195v-479q0 -63 24.5 -93t83.5 -30h96v-84h-184q-92 0 -144.5 54.5t-52.5 160.5
v483q0 104 -43 164t-120 60z" />
    <glyph glyph-name="bar" unicode="|" horiz-adv-x="485" 
d="M190 -266v1700h107v-1700h-107z" />
    <glyph glyph-name="braceright" unicode="}" horiz-adv-x="712" 
d="M106 -387h101q55 0 80.5 28.5t25.5 94.5v481q0 179 133 237q35 15 72 19v12q-134 15 -186 151q-19 48 -19 114v475q0 63 -24.5 93t-83.5 30h-99v86h187q92 0 143 -54.5t51 -160.5v-482q0 -104 43 -163.5t121 -59.5v-61q-78 0 -121 -62.5t-43 -152.5v-492
q0 -98 -49 -157.5t-147 -59.5h-185v84z" />
    <glyph glyph-name="asciitilde" unicode="~" horiz-adv-x="1085" 
d="M119 659q130 195 270 195q74 0 197 -70q47 -26 95 -47.5t99 -21.5q85 0 158 69l27 -43q-108 -157 -232 -157q-53 0 -103 21.5t-99.5 48t-98.5 48t-98 21.5q-101 0 -184 -113z" />
    <glyph glyph-name="uni00A0" unicode="&#xa0;" horiz-adv-x="497" 
 />
    <glyph glyph-name="cent" unicode="&#xa2;" 
d="M127 512q0 221 121 362q112 133 311 166v312h109v-303q190 0 311 -64q-16 -178 -66 -291h-51l-84 244q-28 20 -92 20h-20v-849q37 -6 73 -7q128 0 215 70l29 -29q-41 -74 -123 -120t-192 -48v-323h-109v332q-215 31 -323.5 171t-108.5 357zM324 514q0 -117 60 -221.5
t177 -155.5v805q-237 -72 -237 -428z" />
    <glyph glyph-name="sterling" unicode="&#xa3;" 
d="M61 676v104h175q-31 66 -53.5 137.5t-22.5 166t30.5 162t85.5 114.5q116 98 308 98q125 0 229.5 -20.5t163.5 -48.5q-11 -174 -51 -351h-52l-81 281q-80 33 -187 33q-195 0 -241 -133q-16 -45 -15 -122q0 -113 78 -317h320v-104h-283q33 -121 29 -201q-8 -168 -113 -254
l-68 -57v-8l115 12h408l100 229h51q23 -259 23 -397h-942v63q131 57 195.5 137.5t65.5 219t-46 256.5h-222z" />
    <glyph glyph-name="yen" unicode="&#xa5;" 
d="M-92 1374v60h543v-60q-87 -34 -158 -51l315 -604l295 604q-76 16 -168 51v60h451v-60q-82 -39 -156 -51l-328 -637h295v-106h-333v-129h333v-107h-333v-235q80 -10 155 -50v-59h-520v59q74 37 168 50v235h-334v107h334v129h-334v106h291l-350 637q-71 12 -166 51z" />
    <glyph glyph-name="dieresis" unicode="&#xa8;" horiz-adv-x="921" 
d="M123 1359q0 48 30.5 77.5t79.5 29.5t80 -29.5t31 -77.5t-30.5 -77t-80.5 -29q-49 0 -79.5 29t-30.5 77zM578 1359q0 48 30.5 77.5t79.5 29.5t80 -29.5t31 -77.5t-31 -77t-80 -29t-79.5 29t-30.5 77z" />
    <glyph glyph-name="copyright" unicode="&#xa9;" horiz-adv-x="1652" 
d="M104 594q0 170 60.5 304t161.5 226q206 191 501 191q141 0 271.5 -49t229.5 -141.5t159.5 -226.5t60.5 -304t-60.5 -304t-159.5 -226.5t-229 -141.5t-274.5 -49t-276.5 49t-230 142q-214 200 -214 530zM211 594q0 -280 180 -454q177 -171 436 -171q127 0 240 45t196 126
q179 175 179 454q0 141 -51.5 257t-136.5 196.5t-196.5 126t-238.5 45.5t-240.5 -45.5t-194.5 -127.5q-173 -174 -173 -452zM424 596q0 199 136 320q123 108 292 108q160 0 248 -43q2 -18 2 -94.5t-19 -130.5h-51l-61 170q-17 12 -105 12q-117 0 -181 -91t-64 -251
q0 -239 143 -316q51 -28 108 -28q91 0 115 24l57 146h52q8 -31 12 -93.5t-2 -111.5q-63 -49 -195 -49t-215.5 27.5t-143.5 82.5q-128 116 -128 318z" />
    <glyph glyph-name="guillemotleft" unicode="&#xab;" horiz-adv-x="964" 
d="M49 530l436 424l54 -41l-287 -370l299 -387l-53 -43zM446 530l347 420l51 -39l-217 -366l229 -387l-49 -41z" />
    <glyph glyph-name="uni00AD" unicode="&#xad;" horiz-adv-x="870" 
d="M145 512v129h578v-129h-578z" />
    <glyph glyph-name="registered" unicode="&#xae;" horiz-adv-x="1433" 
d="M170 923q0 132 44 233t119 171q151 141 384 141q238 0 387 -141q160 -151 160 -403q0 -254 -163 -406q-153 -141 -384 -141q-238 0 -387 141q-160 151 -160 405zM266 924q0 -206 134 -338q125 -123 317 -123q198 0 323 123q127 125 127 338q0 207 -133 336
q-130 126 -317 122q-194 4 -322.5 -122.5t-128.5 -335.5zM469 633v49q35 12 72 18v478q-43 4 -72 22v45h78l172 8q160 0 213 -94q18 -33 18 -87t-44 -91t-101 -55q37 -59 70.5 -115.5t93.5 -110.5l47 -24v-43h-103l-57 22q-74 89 -135 252h-74v-207q41 -3 76 -18v-49h-254z
M647 967h66q123 0 118 114q-2 53 -35.5 80t-82 27t-66.5 -6v-215z" />
    <glyph glyph-name="acute" unicode="&#xb4;" horiz-adv-x="673" 
d="M123 1214l239 357q59 7 152 -26q25 -9 37 -19v-39l-383 -309z" />
    <glyph glyph-name="cedilla" unicode="&#xb8;" horiz-adv-x="581" 
d="M123 -453q78 10 125 41t46 88.5t-42 80t-127 28.5l76 217h92l-53 -141q213 -8 217 -146q4 -109 -111 -175q-100 -58 -223 -54v61z" />
    <glyph glyph-name="guillemotright" unicode="&#xbb;" horiz-adv-x="964" 
d="M109 158l229 377l-219 376l51 39l348 -420l-360 -413zM414 156l297 376l-287 381l53 41l436 -424l-446 -417z" />
    <glyph glyph-name="circumflex" unicode="&#x2c6;" horiz-adv-x="755" 
d="M123 1241l225 381q29 17 51 0l234 -379l-55 -35l-211 219l-185 -219z" />
    <glyph glyph-name="ring" unicode="&#x2da;" horiz-adv-x="643" 
d="M123 1398q0 85 58.5 142t142.5 57t140 -51t56 -141q0 -82 -60 -137q-57 -54 -141.5 -54t-140 49.5t-55.5 134.5zM229 1403q0 -53 28 -79t65.5 -26t63.5 24t26 77t-25 83.5t-65 30.5q-93 0 -93 -110z" />
    <glyph glyph-name="tilde" unicode="&#x2dc;" horiz-adv-x="874" 
d="M123 1337q128 121 242 121q54 0 105.5 -22.5t81.5 -32.5t72 -10t101 41l27 -58q-116 -116 -222 -116q-48 0 -105.5 23.5t-87.5 34.5t-74.5 11t-100.5 -49z" />
    <glyph glyph-name="afii10023" unicode="&#x401;" horiz-adv-x="1191" 
d="M59 0v59q72 33 168 50v1214q-75 15 -168 51v60h971q-5 -185 -22 -332h-54l-84 225h-446v-543h334l80 152h51q12 -203 0 -414h-51l-80 156h-334v-572h471l100 246h52q30 -182 22 -352h-1010zM258 1617q0 48 32.5 72.5t83 24.5t83 -24.5t32.5 -72.5t-32.5 -72.5
t-82.5 -24.5t-83 24.5t-33 72.5zM715 1617q0 48 32.5 72.5t82.5 24.5t83 -24.5t33 -72.5t-33 -72.5t-83 -24.5t-82.5 24.5t-32.5 72.5z" />
    <glyph glyph-name="afii10051" unicode="&#x402;" horiz-adv-x="1538" 
d="M20 1434h1188q0 -76 -8 -213.5t-14 -180.5h-53l-107 287h-313v-530q163 92 356 92q185 0 279 -79q110 -92 110 -323q0 -410 -251 -473q-77 -20 -169 -20l-12 55q119 27 170 103q66 100 66 317q0 143 -57.5 228t-204.5 85t-287 -86v-587q71 -18 145 -50v-59h-530v59
q89 33 188 50v1218h-313l-107 -293h-53q-9 60 -16 209.5t-7 190.5z" />
    <glyph glyph-name="afii10052" unicode="&#x403;" horiz-adv-x="1038" 
d="M59 0v59q82 33 168 50v1214q-75 15 -168 51v60h959q0 -249 -23 -414h-53l-106 307h-412v-1218q100 -16 197 -50v-59h-562zM457 1575l299 254q71 8 160 -38q26 -13 39 -28v-41l-463 -186z" />
    <glyph glyph-name="afii10053" unicode="&#x404;" horiz-adv-x="1316" 
d="M109 721q0 197 55 337t150 229q181 171 481 171q247 0 389 -69q0 -151 -31 -353h-53l-107 295q-40 21 -158 21t-206 -36t-157 -108q-150 -154 -161 -440l672 29q27 -82 8 -160q-72 6 -159 11t-178 10q-190 12 -343 12q12 -271 155 -429.5t386 -158.5q142 0 172 37l96 254
h54q29 -166 22 -314q-104 -84 -358 -84q-533 0 -679 409q-50 140 -50 337z" />
    <glyph glyph-name="afii10054" unicode="&#x405;" horiz-adv-x="1097" 
d="M119 72q12 202 51 370h53l84 -301q59 -59 180 -59q137 0 223 68q91 73 91 192q0 82 -50.5 137.5t-125 98.5t-162.5 83.5t-163 97t-125 135.5t-50 181.5t30.5 170t86.5 114.5q118 98 309 98q250 0 391 -67q0 -139 -49 -353h-53l-82 281q-76 33 -196.5 33t-184.5 -58.5
t-64 -153t50.5 -151.5t126 -102t162.5 -87t163 -97.5t126 -131t50 -178t-33.5 -178.5t-97.5 -129q-132 -111 -364 -111q-129 0 -231.5 31t-145.5 66z" />
    <glyph glyph-name="afii10055" unicode="&#x406;" horiz-adv-x="720" 
d="M98 0v59q80 37 164 50v1214q-67 13 -164 51v60h525v-60q-80 -35 -164 -51v-1214q99 -18 164 -50v-59h-525z" />
    <glyph glyph-name="afii10056" unicode="&#x407;" horiz-adv-x="720" 
d="M66 1617q0 48 31.5 72.5t81.5 24.5t83 -24.5t33 -72.5t-33 -72.5t-83 -24.5t-81.5 24.5t-31.5 72.5zM98 0v59q80 37 164 50v1214q-67 13 -164 51v60h525v-60q-80 -35 -164 -51v-1214q99 -18 164 -50v-59h-525zM426 1617q0 48 33 72.5t83 24.5t81.5 -24.5t31.5 -72.5
t-31.5 -72.5t-81.5 -24.5t-83 24.5t-33 72.5z" />
    <glyph glyph-name="afii10057" unicode="&#x408;" horiz-adv-x="698" 
d="M80 1374v60h520v-60q-87 -37 -156 -51v-1147q0 -252 -113 -384q-77 -89 -202 -120l-23 31q69 60 95 129q47 123 47 322v1169q-103 23 -168 51z" />
    <glyph glyph-name="afii10058" unicode="&#x409;" horiz-adv-x="1886" 
d="M-20 213l30 51l236 -43q112 184 152 661q16 183 16 431q-127 20 -209 61v60h1089v-60q-90 -37 -180 -51v-469q129 14 206.5 14t170 -18.5t161.5 -65.5q154 -104 154 -338q0 -221 -170 -346q-144 -106 -366 -106l-256 6h-252v59q78 37 156 50v1218h-383
q-21 -834 -159 -1104q-42 -82 -87 -140q-84 -108 -219 -108q-27 31 -50 88q-36 90 -40 150zM1114 109q22 -9 78 -9h68q143 0 235 86t92 263q0 313 -334 313q-103 0 -139 -10v-643z" />
    <glyph glyph-name="afii10059" unicode="&#x40a;" horiz-adv-x="2035" 
d="M59 0v59q82 33 168 50v1214q-96 14 -168 51v60h519v-60q-66 -34 -154 -51v-508h643v508q-62 15 -154 51v60h531v-60q-90 -37 -180 -51v-510q86 14 184 14q508 0 508 -407q0 -220 -168 -331q-144 -95 -369 -95l-256 6h-250v59q90 40 154 50v600h-643v-600q85 -17 154 -50
v-59h-519zM1264 109q22 -9 79 -9h66q232 0 303 176q25 60 25 144q0 141 -83 220t-249 79q-106 0 -141 -10v-600z" />
    <glyph glyph-name="afii10060" unicode="&#x40b;" horiz-adv-x="1587" 
d="M20 1434h1188q0 -76 -8 -213.5t-14 -178.5h-53l-107 285h-313v-530q163 92 336 92q184 0 271 -78q99 -89 99 -305v-397q74 -12 148 -50v-59h-344v469q0 231 -119 291q-45 22 -113 22q-138 0 -278 -86v-587q71 -18 145 -50v-59h-530v59q89 33 188 50v1218h-313l-107 -293
h-53q-9 60 -16 209.5t-7 190.5z" />
    <glyph glyph-name="afii10061" unicode="&#x40c;" horiz-adv-x="1323" 
d="M59 0v59q82 33 168 50v1214q-92 12 -168 51v60h519v-60q-79 -34 -154 -51v-567l123 28l383 539q-86 21 -148 51v60h453v-60q-78 -34 -156 -51l-411 -545q152 -203 317.5 -399.5t239.5 -278.5l98 -49v-51h-256l-70 49q-206 240 -473 637h-100v-577q94 -16 154 -50v-59
h-519zM559 1575l299 254q71 8 160 -38q26 -13 39 -28v-41l-463 -186z" />
    <glyph glyph-name="afii10062" unicode="&#x40e;" horiz-adv-x="1351" 
d="M0 1374v60h539v-60q-84 -34 -166 -51l340 -678l43 -131h4l41 135l268 674q-102 18 -174 51v60h457v-60q-70 -31 -148 -51l-401 -911q-92 -237 -174 -334q-96 -113 -207 -88q-31 47 -47.5 121.5t-18.5 99.5l31 51l211 -55q33 33 66 139l-510 977q-89 23 -154 51zM359 1759
q40 40 153 45l52 -26v-174q60 -29 157.5 -29t161.5 22v181l51 26q31 2 75 -11t71 -34q0 -181 -195 -239q-68 -21 -164 -21q-188 0 -275 75t-87 185z" />
    <glyph glyph-name="afii10145" unicode="&#x40f;" horiz-adv-x="1470" 
d="M59 0v59q82 33 168 50v1214q-96 14 -168 51v60h519v-60q-70 -31 -154 -51v-1217h623v1217q-111 25 -154 51v60h518v-60q-94 -44 -168 -51v-1214q115 -21 168 -50v-59h-580q-22 -179 -69 -391h-53q-29 145 -70 391h-580z" />
    <glyph glyph-name="afii10017" unicode="&#x410;" horiz-adv-x="1398" 
d="M0 0v59q74 33 147 50l519 1349h59l518 -1349q108 -21 156 -50v-59h-525v59q77 30 168 50l-139 374h-489l-135 -374q86 -12 176 -50v-59h-455zM455 590h413l-161 434l-39 176h-4l-52 -180z" />
    <glyph glyph-name="afii10018" unicode="&#x411;" horiz-adv-x="1228" 
d="M59 0v59q80 37 168 50v1214q-75 13 -168 51v60h981q4 -182 -22 -371h-53l-107 264h-434v-493q129 14 207.5 14t171 -21.5t163.5 -70.5q154 -107 154 -330q0 -210 -162 -328q-143 -104 -378 -104l-261 6h-260zM424 109q23 -9 79 -9h68q233 0 305 182q25 62 25 146
q0 152 -84 232.5t-252 80.5q-93 0 -141 -10v-622z" />
    <glyph glyph-name="afii10019" unicode="&#x412;" horiz-adv-x="1259" 
d="M59 0v59q82 39 168 50v1214q-75 15 -168 51v60h217l336 12q475 0 475 -340q0 -183 -151 -287q-51 -35 -121 -51v-8q225 -37 307 -205q29 -61 29 -159.5t-49 -178.5t-128 -131q-152 -98 -382 -98l-336 12h-197zM412 111q62 -17 165 -17t167.5 22.5t110.5 62.5
q99 86 99 218q0 279 -389 279h-153v-565zM412 782h102q94 0 162 11q94 33 154.5 105.5t60.5 170.5q0 135 -81 202.5t-211.5 67.5t-186.5 -8v-549z" />
    <glyph glyph-name="afii10020" unicode="&#x413;" horiz-adv-x="1038" 
d="M59 0v59q82 33 168 50v1214q-75 15 -168 51v60h959q0 -249 -23 -414h-53l-106 307h-412v-1218q100 -16 197 -50v-59h-562z" />
    <glyph glyph-name="afii10021" unicode="&#x414;" horiz-adv-x="1402" 
d="M0 106h170q109 178 181 516q75 354 75 691q-120 23 -209 61v60h1088v-60q-89 -35 -168 -51v-1217h233q0 -135 -41 -415h-53l-86 309h-1010l-86 -309h-51q-22 85 -32.5 230t-10.5 185zM299 106h641v1221h-395q-38 -791 -246 -1221z" />
    <glyph glyph-name="afii10022" unicode="&#x415;" horiz-adv-x="1191" 
d="M59 0v59q72 33 168 50v1214q-75 15 -168 51v60h971q-5 -185 -22 -332h-54l-84 225h-446v-543h334l80 152h51q12 -203 0 -414h-51l-80 156h-334v-572h471l100 246h52q30 -182 22 -352h-1010z" />
    <glyph glyph-name="afii10024" unicode="&#x416;" horiz-adv-x="1939" 
d="M0 0v51l96 49q220 237 512 660l-385 563q-84 25 -145 51v60h452v-60q-72 -35 -139 -51l346 -551h131v551q-93 26 -145 51v60h475v-60q-40 -19 -133 -51v-567l139 28l344 539l-147 51v60h450v-60q-67 -29 -153 -51l-373 -545q53 -68 112.5 -151.5t124.5 -174.5
q150 -211 281 -352l96 -49v-51h-256l-69 51q-121 141 -220.5 304t-209.5 331h-119v-577q87 -25 133 -50v-59h-477v59q61 33 147 50v596l-123 -31q-111 -168 -205 -324.5t-214 -298.5l-70 -51h-256z" />
    <glyph glyph-name="afii10025" unicode="&#x417;" horiz-adv-x="1134" 
d="M102 55q0 148 52 342h53l86 -286q58 -29 166.5 -29t170.5 24.5t107 66.5q94 88 94 224q0 153 -94 227q-80 62 -217 62l-158 -22q-14 63 -2 118h66q93 0 166 11q94 33 144 105.5t50 189t-76.5 190.5t-211.5 74q-128 0 -162 -39l-107 -250h-53q-26 143 -22 311
q104 84 356 84q320 0 430 -177q43 -69 43 -174t-60.5 -196.5t-191.5 -142.5v-8q207 -34 273 -207q24 -61 24 -158.5t-44 -179.5t-118 -135q-145 -105 -374.5 -105t-389.5 80z" />
    <glyph glyph-name="afii10026" unicode="&#x418;" horiz-adv-x="1513" 
d="M59 0v59q82 37 168 50v1214q-99 24 -168 51v60h519v-60q-67 -32 -154 -51v-889l-23 -153l99 161l600 832v49q-82 17 -166 51v60h520v-60q-65 -28 -168 -51v-1214q96 -16 168 -50v-59h-520v59q85 36 156 50v886l20 154l-90 -154l-608 -841v-45q97 -17 166 -50v-59h-519z
" />
    <glyph glyph-name="afii10027" unicode="&#x419;" horiz-adv-x="1513" 
d="M59 0v59q82 37 168 50v1214q-99 24 -168 51v60h519v-60q-67 -32 -154 -51v-889l-23 -153l99 161l600 832v49q-82 17 -166 51v60h520v-60q-65 -28 -168 -51v-1214q96 -16 168 -50v-59h-520v59q85 36 156 50v886l20 154l-90 -154l-608 -841v-45q97 -17 166 -50v-59h-519z
M406 1759q40 40 153 45l52 -26v-174q60 -29 157.5 -29t161.5 22v181l51 26q31 2 75 -11t71 -34q0 -181 -195 -239q-68 -21 -164 -21q-188 0 -275 75t-87 185z" />
    <glyph glyph-name="afii10028" unicode="&#x41a;" horiz-adv-x="1323" 
d="M59 0v59q82 33 168 50v1214q-92 12 -168 51v60h519v-60q-79 -34 -154 -51v-567l123 28l383 539q-86 21 -148 51v60h453v-60q-78 -34 -156 -51l-411 -545q152 -203 317.5 -399.5t239.5 -278.5l98 -49v-51h-256l-70 49q-206 240 -473 637h-100v-577q94 -16 154 -50v-59
h-519z" />
    <glyph glyph-name="afii10029" unicode="&#x41b;" horiz-adv-x="1341" 
d="M-20 213l30 51l236 -43q112 184 152 661q16 183 16 431q-127 20 -209 61v60h1077v-60q-72 -37 -168 -51v-1214q96 -16 168 -50v-59h-520v59q50 21 156 50v1218h-383q-21 -834 -159 -1104q-42 -82 -87 -140q-84 -108 -219 -108q-27 31 -50 88q-36 90 -40 150z" />
    <glyph glyph-name="afii10030" unicode="&#x41c;" horiz-adv-x="1775" 
d="M59 1374v60h420l357 -936l69 -211h2l70 215l369 932h370v-60q-87 -38 -155 -51v-1217q91 -17 153 -47v-59h-508v59q56 22 166 50v921l8 240h-16l-68 -219l-419 -1051h-54l-399 1051l-74 239h-18l2 -260v-921q80 -16 155 -50v-59h-428v59q86 35 166 52v1212
q-71 13 -168 51z" />
    <glyph glyph-name="afii10031" unicode="&#x41d;" horiz-adv-x="1490" 
d="M59 0v59q82 33 168 50v1214q-96 14 -168 51v60h519v-60q-66 -34 -154 -51v-535h643v535q-86 20 -154 51v60h519v-60q-56 -30 -168 -51v-1214q100 -17 168 -50v-59h-519v59q74 33 154 50v573h-643v-573q85 -17 154 -50v-59h-519z" />
    <glyph glyph-name="afii10032" unicode="&#x41e;" horiz-adv-x="1515" 
d="M109 717q0 326 171 531q173 210 478 210q303 0 478 -210q171 -204 171 -531t-171 -531q-176 -211 -478 -211q-304 0 -478 211q-171 205 -171 531zM328 717q0 -278 110 -449q121 -186 338 -186q201 0 310 186q102 173 102 449q0 435 -248 585q-84 50 -198 50t-192.5 -50.5
t-127.5 -136.5q-94 -165 -94 -448z" />
    <glyph glyph-name="afii10033" unicode="&#x41f;" horiz-adv-x="1470" 
d="M59 0v59q64 33 168 50v1214q-75 15 -168 51v60h1352v-60q-60 -31 -168 -51v-1214q82 -10 168 -50v-59h-518v59q45 29 154 50v1218h-623v-1218q80 -16 154 -50v-59h-519z" />
    <glyph glyph-name="afii10034" unicode="&#x420;" horiz-adv-x="1220" 
d="M59 0v59q49 24 168 50v1214q-75 13 -168 51v60h185l362 16q365 0 489 -230q46 -85 46 -209t-47 -210t-126 -141q-152 -107 -386 -107h-64q-54 0 -94 8v-452q97 -11 197 -50v-59h-562zM424 670q10 -4 29.5 -5t41 -3.5t41.5 -2.5h33q240 0 324 191q29 65 29 158
q0 168 -95.5 251.5t-263.5 83.5q-91 0 -139 -10v-663z" />
    <glyph glyph-name="afii10035" unicode="&#x421;" horiz-adv-x="1318" 
d="M109 721q0 197 55 337t150 229q181 171 481 171q247 0 389 -69q0 -151 -31 -353h-53l-107 295q-40 21 -160 21t-211.5 -38t-159.5 -117q-151 -174 -151 -480q0 -293 143 -464q144 -171 398 -171q142 0 172 37l96 254h54q29 -166 22 -314q-104 -84 -358 -84
q-533 0 -679 409q-50 140 -50 337z" />
    <glyph glyph-name="afii10036" unicode="&#x422;" horiz-adv-x="1267" 
d="M39 1434h1190q0 -102 -8.5 -229.5t-14.5 -170.5h-53l-106 293h-314v-1218q132 -25 189 -50v-59h-576v59q96 34 191 50v1218h-314l-108 -293h-52q-24 164 -24 400z" />
    <glyph glyph-name="afii10037" unicode="&#x423;" horiz-adv-x="1351" 
d="M0 1374v60h539v-60q-84 -34 -166 -51l340 -678l43 -131h4l41 135l268 674q-102 18 -174 51v60h457v-60q-70 -31 -148 -51l-401 -911q-92 -237 -174 -334q-96 -113 -207 -88q-31 47 -47.5 121.5t-18.5 99.5l31 51l211 -55q33 33 66 139l-510 977q-89 23 -154 51z" />
    <glyph glyph-name="afii10038" unicode="&#x424;" horiz-adv-x="1609" 
d="M80 717q0 240 152 383q69 65 160 100t182 35t141 -8v98q-92 20 -146 49v60h461v-60q-55 -28 -135 -49v-104q55 14 162.5 14t192.5 -34t148 -99q132 -136 132 -365q0 -244 -156 -387q-141 -129 -342 -129q-101 0 -137 15v-127q85 -21 135 -50v-59h-461v59q58 30 146 47
v125q-65 -10 -160.5 -10t-177.5 27.5t-149 87.5q-148 132 -148 381zM272 717q0 -187 100 -296q96 -104 241 -104q69 0 104 11v805q-49 6 -107 6t-119 -24.5t-110 -76.5q-109 -117 -109 -321zM893 324q35 -7 100.5 -7t128 25t110.5 75q105 109 105 308.5t-86.5 306.5
t-244.5 107q-71 0 -113 -13v-802z" />
    <glyph glyph-name="afii10039" unicode="&#x425;" horiz-adv-x="1372" 
d="M20 0v59q48 25 152 50l401 612l-385 602q-81 24 -161 51v60h542v-60q-66 -26 -155 -51l286 -463l279 463q-84 18 -170 51v60h471v-60q-86 -34 -154 -51l-360 -555l420 -659q98 -16 168 -50v-59h-545v59q74 37 156 50l-324 514l-311 -517q110 -15 164 -47v-59h-474z" />
    <glyph glyph-name="afii10040" unicode="&#x426;" horiz-adv-x="1499" 
d="M59 0v59q57 27 168 50v1214q-80 12 -168 51v60h519v-60q-59 -27 -154 -51v-1217h612v1217q-80 17 -153 51v60h518v-60q-82 -35 -168 -51v-1217h235q0 -112 -17 -243t-26 -172h-51l-88 309h-1227z" />
    <glyph glyph-name="afii10041" unicode="&#x427;" horiz-adv-x="1302" 
d="M18 1374v60h480v-60q-75 -36 -136 -51v-360q0 -314 252 -314q165 0 297 84v590q-54 15 -145 51v60h477v-60q-72 -35 -135 -51v-1214q83 -16 135 -50v-59h-520v59q83 39 188 50v526q-163 -92 -354 -92q-190 0 -281 75q-110 91 -110 306v399q-65 11 -148 51z" />
    <glyph glyph-name="afii10042" unicode="&#x428;" horiz-adv-x="1904" 
d="M59 0v59q76 37 148 50v1214q-83 21 -148 51v60h478v-60q-53 -27 -134 -51v-1217h453v1217q-53 16 -133 51v60h463v-60q-62 -30 -133 -51v-1217h452v1217q-72 20 -135 51v60h475v-60q-78 -35 -143 -51v-1214q84 -16 143 -50v-59h-1786z" />
    <glyph glyph-name="afii10043" unicode="&#x429;" horiz-adv-x="1968" 
d="M59 0v59q72 35 148 50v1214q-72 12 -148 51v60h478v-60q-77 -37 -134 -51v-1217h453v1217q-98 32 -133 51v60h463v-60q-47 -30 -133 -51v-1217h452v1217q-74 18 -135 51v60h475v-60q-59 -37 -143 -51v-1219h235q0 -105 -17 -238.5t-26 -174.5h-51l-88 309h-1696z" />
    <glyph glyph-name="afii10044" unicode="&#x42a;" horiz-adv-x="1478" 
d="M39 1434h823v-60q-86 -33 -180 -51v-469q130 14 184 14q533 0 533 -422q0 -227 -173 -346q-153 -106 -390 -106l-256 6h-263v59q72 33 168 50v1218h-264l-106 -293h-52q-17 125 -19.5 242t-4.5 158zM682 109q22 -9 79 -9h66q240 0 324 190q29 66 29 159q0 313 -357 313
q-105 0 -141 -10v-643z" />
    <glyph glyph-name="afii10045" unicode="&#x42b;" horiz-adv-x="1728" 
d="M59 0v59q80 37 168 50v1214q-99 24 -168 51v60h545v-60q-90 -37 -180 -51v-469q129 14 206.5 14t170 -18.5t161.5 -65.5q154 -104 154 -338q0 -221 -170 -346q-146 -106 -366 -106l-256 6h-265zM424 109q23 -9 78 -9h67q143 0 235.5 86t92.5 252q0 324 -334 324
q-105 0 -139 -10v-643zM1149 0v59q55 27 160 50v1214q-117 30 -160 51v60h520v-60q-68 -33 -164 -51v-1214q90 -14 164 -50v-59h-520z" />
    <glyph glyph-name="afii10046" unicode="&#x42c;" horiz-adv-x="1220" 
d="M59 0v59q80 37 168 50v1214q-75 15 -168 51v60h545v-60q-83 -36 -180 -51v-469q129 14 184 14q533 0 533 -422q0 -223 -172 -346q-150 -106 -389 -106l-258 6h-263zM424 109q23 -9 79 -9h66q240 0 324 190q29 66 29 159q0 313 -357 313q-105 0 -141 -10v-643z" />
    <glyph glyph-name="afii10047" unicode="&#x42d;" horiz-adv-x="1296" 
d="M119 45q13 213 31 354h53l106 -299q35 -18 153.5 -18t207 39t158.5 117q155 173 155 467l-596 -62q-10 41 -10 81t10 79l596 -2q-16 276 -148.5 413.5t-359.5 137.5q-123 0 -164 -39l-106 -250h-53q-21 142 -21 311q104 84 356 84q701 0 701 -739q0 -367 -210 -567
q-185 -177 -451 -177t-408 70z" />
    <glyph glyph-name="afii10048" unicode="&#x42e;" horiz-adv-x="1982" 
d="M59 0v59q82 33 168 50v1214q-80 12 -168 51v60h521v-60q-94 -39 -156 -51v-535h244q17 300 164 478q159 192 432 192q300 0 458 -210q152 -199 152 -531q0 -329 -155 -529q-164 -213 -455 -213q-288 0 -447 200q-147 185 -151 507h-242v-573q96 -19 156 -50v-59h-521z
M877 716q0 -132 21.5 -248t69.5 -202q103 -184 314 -184q288 0 354 388q19 116 19 247q0 445 -215 585q-78 50 -191 50t-184.5 -50.5t-113.5 -136.5t-58 -201.5t-16 -247.5z" />
    <glyph glyph-name="afii10049" unicode="&#x42f;" horiz-adv-x="1302" 
d="M18 0v51l99 49q104 110 179 221t115 172.5t81 120.5q-207 63 -277 250q-25 66 -25 165.5t49.5 180t129.5 132.5q153 98 387 98l225 -6h262v-60q-76 -34 -168 -51v-1214q102 -14 168 -50v-59h-543v59q76 37 179 50v493h-207q-45 -74 -81 -145.5t-73 -140.5
q-85 -160 -172 -265l-70 -51h-258zM410 1023q0 -331 327 -331q97 0 142 15v616q-33 10 -125 10q-158 0 -251 -74.5t-93 -235.5z" />
    <glyph glyph-name="afii10065" unicode="&#x430;" horiz-adv-x="1034" 
d="M80 235.5q0 108.5 38 169t111.5 95.5t182 50t252.5 23q17 191 -18 280q-40 105 -157 105q-85 0 -135 -20l-96 -246h-53q-48 147 -55 256q168 101 385 101q188 0 261 -107q54 -77 54 -219l-10 -455q0 -45 2 -77.5t4 -69.5l141 -21v-43q-102 -54 -233 -77h-52
q-20 47 -24 103t-6 124h-10q-18 -92 -94 -158q-85 -74 -208 -74t-201.5 76t-78.5 184.5zM276 298.5q0 -99.5 45 -148t109.5 -48.5t103.5 20.5t66 49.5q46 50 66 109v215q-230 0 -314 -52q-76 -46 -76 -145.5z" />
    <glyph glyph-name="afii10066" unicode="&#x431;" horiz-adv-x="1107" 
d="M84 537q0 510 173 723q87 108 220 153t311 45l134 103h53q-6 -112 -28.5 -183t-28.5 -84q-188 0 -319.5 -18.5t-217.5 -75.5t-130 -165.5t-58 -286.5h10q83 176 279 248q61 22 124 22q418 0 418 -502q0 -242 -130 -389q-134 -152 -355 -152q-210 0 -330 149
q-125 155 -125 413zM276 531.5q0 -123.5 24 -213t65 -145.5q78 -107 205 -107q251 0 251 426q0 209 -79.5 305t-221.5 96q-53 0 -115.5 -33t-105.5 -88q-23 -117 -23 -240.5z" />
    <glyph glyph-name="afii10067" unicode="&#x432;" horiz-adv-x="1081" 
d="M80 0v51q63 33 135 49v822q-78 14 -135 49v53h184l279 8q180 0 280.5 -54t100.5 -190q0 -90 -74 -155q-66 -58 -154 -76q121 -8 202 -73q87 -68 87 -185q0 -156 -137 -235q-122 -72 -316 -72q-117 0 -156 3q-66 5 -100 5h-196zM399 88q29 -6 73 -6h73q239 0 239 201
q0 100 -71.5 150t-184.5 50h-129v-395zM399 545l228 20q37 18 74.5 68.5t37.5 141.5t-60.5 129t-154.5 38t-125 -8v-389z" />
    <glyph glyph-name="afii10068" unicode="&#x433;" horiz-adv-x="882" 
d="M80 0v51q53 30 135 49v824q-76 12 -135 47v53h764q-5 -195 -25 -336h-53l-90 246h-277v-834q117 -23 185 -49v-51h-504z" />
    <glyph glyph-name="afii10069" unicode="&#x434;" horiz-adv-x="1173" 
d="M18 100h140q110 127 160 482q20 137 20 319q-76 21 -141 70v53h870v-53q-55 -37 -135 -49v-822h182q4 -188 -22 -403h-52l-92 303h-764l-92 -303h-53q-21 210 -21 403zM283 100h465v822h-297q0 -524 -168 -822z" />
    <glyph glyph-name="afii10070" unicode="&#x435;" horiz-adv-x="1030" 
d="M84 520q0 254 121 391.5t342 137.5q261 0 353 -204q34 -75 34 -168t-14 -165h-639q0 -181 86 -291q93 -119 262 -119q72 0 145.5 20.5t110.5 53.5l28 -33q-31 -69 -131 -119q-99 -49 -213.5 -49t-206.5 38t-154 109q-124 144 -124 398zM287 602h450q4 36 4 70
q0 131 -49 208.5t-159.5 77.5t-172 -78.5t-73.5 -277.5z" />
    <glyph glyph-name="afii10072" unicode="&#x436;" horiz-adv-x="1478" 
d="M0 0v51l94 49q115 133 270 368q35 54 64 91q-147 166 -287 363q-53 12 -102 49v53h354v-53q-39 -29 -102 -49q55 -98 119.5 -185.5t136.5 -185.5h106v371q-68 14 -114 49v53h397v-53q-44 -35 -109 -49v-383l113 20q165 224 246 363q-71 24 -103 49v53h355v-53
q-35 -25 -117 -49q-66 -90 -135.5 -176.5t-136.5 -172.5q27 -37 65.5 -92t84.5 -119q99 -139 196 -262l84 -49v-51h-217l-58 47q-59 79 -158.5 243.5t-119.5 194.5h-99v-385q63 -16 123 -49v-51h-411v51q74 36 114 49v398l-112 -21q-18 -29 -49 -84t-67 -119
q-92 -161 -151 -227l-61 -47h-213z" />
    <glyph glyph-name="afii10073" unicode="&#x437;" horiz-adv-x="970" 
d="M94 98l37 138h41q27 -29 59.5 -69t65.5 -79q43 -16 114.5 -16t117.5 20.5t75 53.5q58 64 58 160.5t-42 131.5t-114 47l-193 -30q-18 62 0 110h209q72 32 104 129q11 35 11 78q0 98 -54.5 142t-142.5 44q-83 0 -118 -14l-93 -231h-51q-41 120 -45 268q121 68 314 68
q374 0 374 -240q0 -88 -73 -164q-59 -62 -150 -90q113 -10 188.5 -72.5t75.5 -177.5q0 -164 -112.5 -247t-298.5 -83q-218 0 -357 123z" />
    <glyph glyph-name="afii10074" unicode="&#x438;" horiz-adv-x="1253" 
d="M80 0v51q61 28 135 49v822q-80 12 -135 49v53h434v-53q-57 -30 -123 -49v-562l-22 -190h10l80 154l438 700h277v-53q-66 -37 -136 -49v-822q98 -25 136 -49v-51h-435v51q57 33 123 49v586l21 162h-11l-77 -154l-435 -694h-280z" />
    <glyph glyph-name="afii10075" unicode="&#x439;" horiz-adv-x="1253" 
d="M80 0v51q61 28 135 49v822q-80 12 -135 49v53h434v-53q-57 -30 -123 -49v-562l-22 -190h10l80 154l438 700h277v-53q-66 -37 -136 -49v-822q98 -25 136 -49v-51h-435v51q57 33 123 49v586l21 162h-11l-77 -154l-435 -694h-280zM305 1399q56 46 153 55l52 -27v-182
q53 -22 137.5 -22t140.5 16v188l51 27q91 -8 144 -55q0 -173 -173 -231q-65 -21 -165 -21t-166 21.5t-105 56.5q-69 63 -69 174z" />
    <glyph glyph-name="afii10076" unicode="&#x43a;" horiz-adv-x="1107" 
d="M80 0v51q55 33 135 49v822q-72 14 -135 49v53h420v-53q-46 -32 -101 -49v-383l95 20q82 94 155.5 176t136.5 178q-81 32 -120 58v53h395v-53q-23 -18 -137 -58q-150 -180 -312 -342q88 -96 168 -196q139 -173 232 -275l96 -49v-51h-240l-65 47q-92 111 -168 221.5
t-154 216.5h-82v-385q97 -24 133 -49v-51h-452z" />
    <glyph glyph-name="afii10077" unicode="&#x43b;" horiz-adv-x="1112" 
d="M8 166l29 51l174 -41q83 140 113 518q8 107 8 207q-72 21 -137 70v53h837v-53q-66 -37 -135 -49v-822q84 -20 135 -49v-51h-440v51q49 35 121 49v834h-271q-8 -414 -96 -692q-65 -202 -164 -255q-45 -24 -84 -16q-31 35 -58.5 91.5t-31.5 103.5z" />
    <glyph glyph-name="afii10078" unicode="&#x43c;" horiz-adv-x="1503" 
d="M63 0v51q68 33 136 49l30 801q-58 22 -135 70v53h400l211 -598l38 -141h7l43 143l219 596h387v-53q-59 -35 -135 -49l41 -822q68 -12 135 -49v-51h-434v51q58 29 122 49l-41 830h-16l-336 -930h-55l-332 930h-16l-31 -830q74 -23 123 -49v-51h-361z" />
    <glyph glyph-name="afii10079" unicode="&#x43d;" horiz-adv-x="1253" 
d="M80 0v51q44 25 135 49v822q-95 26 -135 49v53h440v-53q-47 -29 -121 -49v-359h455v359q-72 12 -123 49v53h443v-53q-55 -35 -136 -49v-822q97 -21 136 -49v-51h-443v51q51 37 123 49v373h-455v-373q77 -15 121 -49v-51h-440z" />
    <glyph glyph-name="afii10080" unicode="&#x43e;" horiz-adv-x="1132" 
d="M84 516q0 125 34 224.5t98 167.5q130 141 349 141q365 0 456 -318q28 -98 28 -219q0 -258 -131.5 -397.5t-352.5 -139.5q-239 0 -363 147q-118 141 -118 394zM281 512q0 -315 171 -412q62 -34 148 -34q111 0 181.5 108.5t70.5 337.5q0 311 -166 412q-57 34 -137 34
q-121 0 -194.5 -108.5t-73.5 -337.5z" />
    <glyph glyph-name="afii10081" unicode="&#x43f;" horiz-adv-x="1251" 
d="M80 0v51q69 40 135 49v822q-96 22 -135 49v53h1091v-53q-73 -43 -135 -49v-822q70 -12 135 -49v-51h-440v51q46 32 121 49v834h-453v-834q67 -20 121 -49v-51h-440z" />
    <glyph glyph-name="afii10082" unicode="&#x440;" horiz-adv-x="1159" 
d="M63 -358q70 33 136 49v1214l-136 17v53q107 47 269 74h51v-230h2q91 230 307 230q383 0 383 -514q0 -261 -129 -410q-131 -150 -350 -150q-76 0 -119 9.5t-94 31.5v-325q66 -8 135 -49v-52h-455v52zM383 111q72 -45 203 -45q135 0 214 132q79 133 79 337q0 387 -252 387
q-190 0 -244 -238v-573z" />
    <glyph glyph-name="afii10083" unicode="&#x441;" horiz-adv-x="954" 
d="M84 517.5q0 254.5 127 393t332.5 138.5t326.5 -64q-16 -181 -63 -291h-55l-86 244q-28 20 -95 20q-139 0 -214.5 -101t-75.5 -343q0 -168 87 -284q97 -128 284 -128q107 0 196 70l26 -29q-37 -72 -119.5 -120t-198.5 -48t-205 38t-149 109q-118 141 -118 395.5z" />
    <glyph glyph-name="afii10084" unicode="&#x442;" horiz-adv-x="1015" 
d="M57 1024h901q-5 -200 -24 -336h-53l-90 246h-191v-834q96 -25 135 -49v-51h-454v51q63 33 135 49v834h-191l-90 -246h-53q-21 186 -25 336z" />
    <glyph glyph-name="afii10085" unicode="&#x443;" horiz-adv-x="1034" 
d="M-23 971v53h429v-51q-43 -29 -117 -51l262 -607l39 -127h4l31 129l194 605q-61 12 -112 49v53h350v-53q-43 -29 -117 -49l-319 -922q-128 -341 -272 -408q-46 -22 -99 -32q-34 58 -70 176l27 49h213q45 60 92 215l-426 922q-53 14 -109 49z" />
    <glyph glyph-name="afii10086" unicode="&#x444;" horiz-adv-x="1480" 
d="M84 497q0 271 112.5 411.5t301.5 140.5q112 0 155 -66v414l-155 16v53q104 48 280 74h51v-569q65 78 191 78q174 0 276.5 -117t102.5 -359q0 -293 -115 -454q-103 -144 -291 -144q-111 0 -164 62v-346q84 -13 136 -49v-52h-447v52q57 33 135 49v360q-76 -76 -170 -76
t-166.5 30t-124.5 91q-108 130 -108 401zM276 584.5q0 -168.5 18.5 -261t51.5 -147.5q60 -100 161 -100t146 47v788q-55 35 -121.5 35t-110.5 -22.5t-76 -69.5q-69 -101 -69 -269.5zM827 113q46 -37 115.5 -37t113.5 23.5t78 73.5q72 108 72 329q0 355 -133 422
q-45 22 -120.5 22t-125.5 -43v-790z" />
    <glyph glyph-name="afii10087" unicode="&#x445;" horiz-adv-x="1062" 
d="M20 0v51q57 35 115 49l305 408l-307 414q-60 21 -100 49v53h411v-51q-64 -41 -100 -51l213 -308l209 308q-70 23 -102 49v53h342v-53q-39 -27 -115 -49l-281 -373l324 -449q76 -26 108 -49v-51h-419v49q79 44 102 51l-227 336l-230 -336q50 -17 103 -49v-51h-351z" />
    <glyph glyph-name="afii10088" unicode="&#x446;" horiz-adv-x="1257" 
d="M80 0v51q55 33 135 49v822q-78 12 -135 49v53h440v-53q-47 -29 -121 -49v-832h432v832q-55 12 -120 49v53h440v-53q-62 -32 -135 -49v-832h182q-10 -247 -22 -393h-52l-92 303h-952z" />
    <glyph glyph-name="afii10089" unicode="&#x447;" horiz-adv-x="1142" 
d="M31 971v53h440v-53q-49 -34 -121 -49v-246q0 -213 178 -213q105 0 215 63v396q-61 12 -120 49v53h440v-53q-55 -35 -135 -49v-822q88 -21 135 -49v-51h-483v51q84 35 163 49v367q-112 -121 -286 -121q-139 0 -215 78t-76 211v287q-78 14 -135 49z" />
    <glyph glyph-name="afii10090" unicode="&#x448;" horiz-adv-x="1703" 
d="M80 0v51q57 33 135 49v822q-73 8 -135 49v53h430v-53q-53 -31 -111 -49v-832h361v832q-82 25 -123 49v53h418v-53q-38 -29 -111 -49v-832h361v832q-66 18 -111 49v53h430v-53q-64 -35 -135 -49v-822q76 -16 135 -49v-51h-1544z" />
    <glyph glyph-name="afii10091" unicode="&#x449;" horiz-adv-x="1728" 
d="M80 0v51q57 33 135 49v822q-77 15 -135 49v53h430v-53q-42 -29 -111 -49v-832h361v832q-70 18 -123 49v53h418v-53q-47 -32 -111 -49v-832h361v832q-66 18 -111 49v53h430v-53q-52 -29 -135 -49v-832h182q-1 -61 -22 -393h-54l-92 303h-1423z" />
    <glyph glyph-name="afii10092" unicode="&#x44a;" horiz-adv-x="1181" 
d="M31 1024h633v-53q-43 -27 -123 -49v-316q35 4 79 10.5t125 6.5q168 0 263.5 -72t95.5 -225q0 -160 -118 -249q-113 -85 -302 -85l-270 8h-193v51q57 33 135 49v834h-159l-91 -246h-53q-17 130 -22 336zM541 88q87 -6 108 -6q254 0 254 246q0 159 -142 198
q-42 11 -99.5 11t-120.5 -13v-436z" />
    <glyph glyph-name="afii10093" unicode="&#x44b;" horiz-adv-x="1527" 
d="M80 0v51q53 30 135 49v822q-63 10 -135 49v53h442v-53q-47 -29 -123 -49v-316q35 4 78 10.5t125 6.5q154 0 247 -72t93 -225q0 -161 -112 -249q-109 -85 -289 -85l-271 8h-190zM399 88q81 -6 109 -6q231 0 231 246q0 204 -215 204q-84 0 -125 -8v-436zM1006 971v53h442
v-53q-41 -26 -135 -49v-822q83 -24 135 -49v-51h-440v51q73 35 120 49v822q-78 14 -122 49z" />
    <glyph glyph-name="afii10094" unicode="&#x44c;" horiz-adv-x="1040" 
d="M80 0v51q45 23 135 49v822q-73 15 -135 49v53h442v-53q-49 -29 -123 -49v-316q35 4 78 10.5t125 6.5q168 0 264.5 -72t96.5 -225q0 -159 -119 -249q-113 -85 -303 -85l-271 8h-190zM399 88q81 -6 109 -6q252 0 252 246q0 161 -140 194q-42 10 -111 10t-110 -8v-436z" />
    <glyph glyph-name="afii10095" unicode="&#x44d;" horiz-adv-x="1005" 
d="M94 98l37 138h41q37 -39 123 -148q43 -16 127 -16q135 0 218 110.5t85 298.5l-406 -30q-23 55 0 110h406q-14 397 -299 397q-84 0 -104 -14l-91 -250h-51q-38 121 -55 273q55 31 131 56.5t189.5 25.5t197.5 -27t147 -88q132 -131 132 -402q0 -275 -146 -424
q-132 -133 -327 -133q-216 0 -355 123z" />
    <glyph glyph-name="afii10096" unicode="&#x44e;" horiz-adv-x="1609" 
d="M80 0v51q44 25 135 49v822q-83 24 -135 49v53h440v-53q-53 -33 -121 -49v-359h203q12 229 135 357.5t338 128.5t333 -137.5t118 -394.5t-121 -399.5t-344 -142.5q-200 0 -321 121q-130 130 -138 377h-203v-373q77 -15 121 -49v-51h-440zM795 512q0 -211 84 -332
q78 -114 196 -114q254 0 254 446t-276 446q-121 0 -189.5 -118.5t-68.5 -327.5z" />
    <glyph glyph-name="afii10097" unicode="&#x44f;" horiz-adv-x="1085" 
d="M0 0v51l115 49q92 96 155.5 190.5t114.5 160.5q-169 29 -231 161q-23 48 -23 114.5t22.5 123.5t70.5 98q103 88 304 88l330 -12h148v-53q-37 -33 -136 -49v-822q76 -23 136 -49v-51h-441v51q47 28 121 49v346l-149 -20q-43 -72 -96.5 -173t-145.5 -206l-64 -47h-231z
M324 728q0 -99 74.5 -163.5t232.5 -64.5h55v434q-81 12 -139 12q-127 2 -175 -58.5t-48 -159.5z" />
    <glyph glyph-name="afii10071" unicode="&#x451;" horiz-adv-x="1030" 
d="M84 520q0 254 121 391.5t342 137.5q261 0 353 -204q34 -75 34 -168t-14 -165h-639q0 -181 86 -291q93 -119 262 -119q72 0 145.5 20.5t110.5 53.5l28 -33q-31 -69 -131 -119q-99 -49 -213.5 -49t-206.5 38t-154 109q-124 144 -124 398zM197 1359q0 48 30.5 77.5
t79.5 29.5t80 -29.5t31 -77.5t-30.5 -77t-80.5 -29q-49 0 -79.5 29t-30.5 77zM287 602h450q4 36 4 70q0 131 -49 208.5t-159.5 77.5t-172 -78.5t-73.5 -277.5zM652 1359q0 48 30.5 77.5t79.5 29.5t80 -29.5t31 -77.5t-31 -77t-80 -29t-79.5 29t-30.5 77z" />
    <glyph glyph-name="afii10099" unicode="&#x452;" horiz-adv-x="1175" 
d="M29 1413v53q99 42 288 74h52v-315h426v-107h-426v-377h2q43 96 123.5 164t179 68t163 -19.5t107.5 -68.5q88 -100 88 -342v-541q0 -243 -96 -341q-85 -86 -272 -95l-11 57q112 33 153 103q42 74 42 276v502q0 160 -45 251t-164 91q-146 0 -233 -140q-25 -40 -37 -83v-523
q81 -20 120 -49v-51h-440v51q63 33 135 49v1018h-139v107h139v172z" />
    <glyph glyph-name="afii10100" unicode="&#x453;" horiz-adv-x="882" 
d="M80 0v51q53 30 135 49v824q-76 12 -135 47v53h764q-5 -195 -25 -336h-53l-90 246h-277v-834q117 -23 185 -49v-51h-504zM371 1214l239 357q59 7 152 -26q25 -9 37 -19v-39l-383 -309z" />
    <glyph glyph-name="afii10101" unicode="&#x454;" horiz-adv-x="976" 
d="M84 512q0 256 138 398q135 139 353 139q199 0 320 -64q-22 -194 -68 -289h-51l-86 244q-25 18 -94.5 18t-125.5 -22.5t-97 -71.5q-88 -105 -92 -319l399 30q23 -55 0 -110h-395q12 -146 110 -252q102 -111 245 -111t230 70l27 -29q-37 -72 -120 -120t-198.5 -48t-209 38
t-156.5 109q-129 145 -129 390z" />
    <glyph glyph-name="afii10102" unicode="&#x455;" horiz-adv-x="886" 
d="M94 35q8 142 56 274h51l90 -223q29 -20 115.5 -20t142 48.5t55.5 112t-36 104t-91 75t-117.5 67.5t-117.5 77q-127 100 -127 243q0 109 94 183q92 73 213 73q190 0 328 -48q-19 -159 -52 -268h-51l-78 209q-40 16 -97.5 16t-85.5 -13t-48 -33q-39 -42 -39 -99t36 -97
t91 -74t117.5 -66.5t118.5 -73.5q126 -93 126 -226q0 -136 -111 -219q-109 -82 -263 -82t-320 60z" />
    <glyph glyph-name="afii10103" unicode="&#x456;" horiz-adv-x="616" 
d="M84 0v51q55 29 135 49v805l-135 17v53q100 42 268 74h51v-949q90 -22 136 -49v-51h-455zM180 1372q0 55 36 88t95 33t94 -33t35 -88t-35 -87t-94 -32t-95 32t-36 87z" />
    <glyph glyph-name="afii10104" unicode="&#x457;" horiz-adv-x="712" 
d="M80 1369q0 52 30.5 86t79.5 34t79 -34t30 -86t-29.5 -84t-79.5 -32q-49 0 -79.5 32t-30.5 84zM131 0v51q55 29 135 49v805l-135 17v53q100 42 268 74h52v-949q88 -21 135 -49v-51h-455zM412 1369q0 52 29.5 86t79.5 34t80 -34t30 -86t-30 -84t-80 -32t-79.5 32t-29.5 84z
" />
    <glyph glyph-name="afii10105" unicode="&#x458;" horiz-adv-x="589" 
d="M72 -395q94 45 132 260q13 78 13 184v856l-135 17v53q92 45 268 74h51v-961q0 -250 -123 -398q-81 -98 -182 -124zM176 1372q0 55 36 88t95 33t94 -33t35 -88t-35 -87t-94 -32t-95 32t-36 87z" />
    <glyph glyph-name="afii10106" unicode="&#x459;" horiz-adv-x="1517" 
d="M8 166l29 51l174 -41q83 140 113 518q8 107 8 207q-72 21 -137 70v53h837v-53q-41 -25 -135 -49v-316q35 4 78 10.5t125 6.5q156 0 248 -72t92 -225q0 -159 -112 -249q-105 -85 -290 -85l-270 8h-176v51q49 35 121 49v834h-271q-8 -414 -96 -692q-65 -202 -164 -255
q-45 -24 -84 -16q-31 35 -58.5 91.5t-31.5 103.5zM897 88q87 -6 109 -6q121 0 177 60.5t56 185.5q0 108 -67 160q-54 44 -142.5 44t-132.5 -8v-436z" />
    <glyph glyph-name="afii10107" unicode="&#x45a;" horiz-adv-x="1658" 
d="M80 0v51q44 25 135 49v822q-95 26 -135 49v53h440v-53q-47 -29 -121 -49v-359h455v359q-72 12 -123 49v53h443v-53q-40 -24 -136 -49v-316q35 4 78 10.5t125 6.5q154 0 247 -72t93 -225q0 -161 -113 -249q-108 -85 -288 -85l-271 8h-178v51q51 37 123 49v373h-455v-373
q77 -15 121 -49v-51h-440zM1038 88q81 -6 109 -6q231 0 231 246q0 209 -222 209q-51 0 -118 -13v-436z" />
    <glyph glyph-name="afii10108" unicode="&#x45b;" horiz-adv-x="1196" 
d="M29 1413v53q99 42 288 74h52v-315h426v-107h-426v-377h2q43 96 123.5 164t179 68t163 -19.5t107.5 -68.5q88 -100 88 -342v-424l129 -19v-43q-120 -55 -262 -77h-51v524q0 160 -45 251t-164 91q-95 0 -174 -70q-71 -63 -96 -153v-523q81 -20 120 -49v-51h-440v51
q63 33 135 49v1018h-139v107h139v172z" />
    <glyph glyph-name="afii10109" unicode="&#x45c;" horiz-adv-x="1107" 
d="M80 0v51q55 33 135 49v822q-72 14 -135 49v53h420v-53q-46 -32 -101 -49v-383l95 20q82 94 155.5 176t136.5 178q-81 32 -120 58v53h395v-53q-23 -18 -137 -58q-150 -180 -312 -342q88 -96 168 -196q139 -173 232 -275l96 -49v-51h-240l-65 47q-92 111 -168 221.5
t-154 216.5h-82v-385q97 -24 133 -49v-51h-452zM463 1214l239 357q59 7 152 -26q25 -9 37 -19v-39l-383 -309z" />
    <glyph glyph-name="afii10110" unicode="&#x45e;" horiz-adv-x="1034" 
d="M-23 971v53h429v-51q-43 -29 -117 -51l262 -607l39 -127h4l31 129l194 605q-61 12 -112 49v53h350v-53q-43 -29 -117 -49l-319 -922q-128 -341 -272 -408q-46 -22 -99 -32q-34 58 -70 176l27 49h213q45 60 92 215l-426 922q-53 14 -109 49zM215 1399q56 46 153 55l52 -27
v-182q53 -22 137.5 -22t140.5 16v188l51 27q91 -8 144 -55q0 -173 -173 -231q-65 -21 -165 -21t-166 21.5t-105 56.5q-69 63 -69 174z" />
    <glyph glyph-name="afii10193" unicode="&#x45f;" horiz-adv-x="1232" 
d="M80 0v51q47 28 135 49v822q-66 9 -135 49v53h440v-53q-59 -31 -121 -49v-832h435v832q-82 18 -123 49v53h442v-53q-66 -37 -135 -49v-822q67 -6 135 -49v-51h-446q-26 -207 -64 -371h-53l-64 371h-446z" />
    <glyph glyph-name="afii10146" unicode="&#x462;" horiz-adv-x="1460" 
d="M20 1264h445v104q-93 18 -168 51v58h547v-58q-89 -36 -182 -51v-104h524q-5 -181 -25 -353h-51l-106 246h-342v-326q92 15 189 15t193.5 -16.5t171.5 -62.5q164 -102 164 -331q0 -226 -173 -342q-149 -100 -390 -100l-258 6h-262v59q80 37 168 50v1048h-262l-107 -291
h-53q-8 58 -15.5 207.5t-7.5 190.5zM662 109q22 -9 79 -9h68q242 0 323 180q29 64 29 156q0 166 -96 234.5t-262 68.5q-106 0 -141 -10v-620z" />
    <glyph glyph-name="afii10194" unicode="&#x463;" horiz-adv-x="1196" 
d="M31 1024h340v373l-156 16v53q90 43 289 74h51v-516h379q5 -88 -21 -289h-53l-115 199h-190v-328q35 4 78 10.5t125 6.5q168 0 264 -72t96 -225q0 -159 -118 -249q-113 -85 -304 -85l-270 8h-190v51q45 23 135 49v834h-172l-90 -246h-54q-20 175 -24 336zM555 88
q81 -6 109 -6q251 0 251 246q0 107 -67 160q-56 44 -178 44q-63 0 -115 -10v-434z" />
    <glyph glyph-name="afii10147" unicode="&#x472;" horiz-adv-x="1515" 
d="M109 717q0 326 171 531q173 210 478 210q303 0 478 -210q171 -204 171 -531t-171 -531q-176 -211 -478 -211q-304 0 -478 211q-171 205 -171 531zM326 705q83 101 194 141q43 14 92 14t99.5 -22.5t99.5 -48t98 -47t103 -21.5q121 0 176 39q-9 262 -117 420
q-118 172 -330 172q-215 0 -321 -191q-94 -169 -94 -456zM328 625q17 -242 130 -387q121 -156 318 -156q194 0 306 175q99 157 108 425q-55 -59 -118.5 -85t-114.5 -26t-103.5 22.5t-104 48.5t-103.5 48.5t-105 22.5q-131 0 -213 -88z" />
    <glyph glyph-name="afii10195" unicode="&#x473;" horiz-adv-x="1132" 
d="M84 516q0 125 34 224.5t98 167.5q130 141 349 141q365 0 456 -318q28 -98 28 -219q0 -258 -131.5 -397.5t-352.5 -139.5q-239 0 -363 147q-118 141 -118 394zM279 539q103 79 208 79q56 0 106 -26q93 -47 145.5 -47t109.5 41q-20 260 -174 344q-53 28 -125 28
q-119 0 -192.5 -102t-77.5 -317zM281 449q13 -273 181 -355q58 -28 138 -28q109 0 179.5 106.5t72.5 329.5q-100 -82 -201 -82q-52 0 -107 27.5t-84.5 40t-71.5 12.5t-107 -51z" />
    <glyph glyph-name="afii10148" unicode="&#x474;" horiz-adv-x="1433" 
d="M0 1374v60h543v-60q-81 -33 -168 -51l317 -881l45 -163h4l27 163q119 441 326 786q110 183 184 212q37 14 76 18q41 -17 80 -102q36 -82 36 -142l-32 -49l-197 56q-136 -194 -279 -546q-150 -373 -208 -700h-80l-518 1348q-60 15 -156 51z" />
    <glyph glyph-name="afii10196" unicode="&#x475;" horiz-adv-x="1046" 
d="M-20 971v53h428v-51q-75 -39 -117 -51l237 -617l29 -108h4l21 122q39 162 94 328t141 297q39 59 89 83t89 15q55 -43 82 -141q8 -29 10 -53l-30 -53l-172 43q-82 -134 -197 -484l-108 -354l-93 -25l-399 947q-59 20 -108 49z" />
    <glyph glyph-name="uni048A" unicode="&#x48a;" horiz-adv-x="1519" 
d="M59 0v59q82 37 168 50v1214q-99 24 -168 51v60h519v-60q-67 -32 -154 -51v-889l-23 -153l99 161l600 832v49q-82 17 -166 51v60h520v-60q-65 -28 -168 -51v-1217h225l17 -14q-22 -106 -144 -308q-32 -54 -61 -93h-55l59 309h-393v59q85 36 156 50v886l20 154l-90 -154
l-608 -841v-45q97 -17 166 -50v-59h-519zM395 1759q40 40 154 45l51 -26v-174q60 -29 158 -29t162 22v181l51 26q33 2 76 -11t69 -34q0 -180 -194 -239q-68 -21 -164 -21q-188 0 -275.5 75t-87.5 185z" />
    <glyph glyph-name="uni048B" unicode="&#x48b;" horiz-adv-x="1269" 
d="M80 0v51q61 28 135 49v822q-80 12 -135 49v53h434v-53q-57 -30 -123 -49v-562l-22 -190h10l80 154l438 700h277v-53q-66 -37 -136 -49v-832h195l10 -16q-30 -149 -138 -314q-28 -43 -46 -63h-55l55 303h-320v51q57 33 123 49v586l21 162h-11l-77 -154l-435 -694h-280z
M307 1399q61 46 154 55l51 -27v-182q53 -22 137 -22t142 16v188l51 27q93 -14 143 -55q0 -173 -173 -231q-65 -21 -165 -21t-165.5 21.5t-104.5 56.5q-70 63 -70 174z" />
    <glyph glyph-name="uni048C" unicode="&#x48c;" horiz-adv-x="1282" 
d="M20 1057v106h267v160q-75 15 -168 51v60h547v-60q-89 -37 -183 -51v-160h396v-106h-396v-203q130 14 187 14q532 0 532 -422q0 -224 -173 -346q-152 -106 -390 -106l-258 6h-262v59q80 37 168 50v948h-267zM483 109q23 -9 79 -9h69q151 0 247 83q105 91 105 266
q0 313 -358 313q-106 0 -142 -10v-643z" />
    <glyph glyph-name="uni048D" unicode="&#x48d;" horiz-adv-x="1019" 
d="M4 918v106h211v373l-156 16v53q57 27 138.5 43.5t150.5 30.5h51v-516h295v-106h-295v-312q35 4 78 10.5t125 6.5q154 0 247 -72t93 -225q0 -161 -112 -249q-109 -85 -289 -85l-271 8h-190v51q53 30 135 49v818h-211zM399 88q81 -6 109 -6q231 0 231 246q0 204 -215 204
q-84 0 -125 -8v-436z" />
    <glyph glyph-name="uni048E" unicode="&#x48e;" horiz-adv-x="1220" 
d="M59 0v59q49 24 168 50v1214q-75 13 -168 51v60h181l366 16q365 0 489 -230q46 -85 46 -227.5t-78 -240t-197 -146.5l105 -164l-97 -59l-118 190q-82 -20 -135 -20h-105q-52 0 -92 8v-452q97 -11 197 -50v-59h-562zM424 670q10 -4 29.5 -5t41 -3.5t41.5 -2.5h33
q68 0 127 19l-145 229l92 56l148 -242q131 91 131 273t-95.5 265.5t-263.5 83.5q-91 0 -139 -10v-663z" />
    <glyph glyph-name="uni048F" unicode="&#x48f;" horiz-adv-x="1159" 
d="M63 -358q70 33 136 49v1214l-136 17v53q168 74 291 74h29v-230q43 102 114.5 165t190.5 65q41 0 86 -9q301 -53 301 -505q0 -186 -67.5 -315.5t-186.5 -190.5l129 -187l-90 -55l-143 205q-66 -17 -154.5 -17t-179.5 41v-325q66 -8 135 -49v-52h-455v52zM383 111
q72 -45 203 -45q48 0 76 10l-127 184l83 59l130 -188q131 131 131 404q0 387 -252 387q-195 0 -244 -242v-569z" />
    <glyph glyph-name="afii10050" unicode="&#x490;" horiz-adv-x="1036" 
d="M59 0v59q82 33 168 50v1214q-75 15 -168 51v60h779l108 278h53q12 -85 13.5 -166.5t2.5 -130.5t1 -88h-592v-1218q100 -16 197 -50v-59h-562z" />
    <glyph glyph-name="afii10098" unicode="&#x491;" horiz-adv-x="839" 
d="M80 0v51q53 30 135 49v824q-76 12 -135 47v53h594q2 2 2 8l90 240h53q19 -159 23 -338h-443v-834q117 -23 185 -49v-51h-504z" />
    <glyph glyph-name="uni0492" unicode="&#x492;" horiz-adv-x="1112" 
d="M80 676v106h182v541q-75 15 -168 51v60h959q0 -249 -23 -414h-53l-107 307h-411v-545h307v-106h-307v-567q100 -16 196 -50v-59h-561v59q82 33 168 50v567h-182z" />
    <glyph glyph-name="uni0493" unicode="&#x493;" horiz-adv-x="880" 
d="M63 449v106h152v369q-76 12 -135 47v53h764q-5 -195 -25 -336h-53l-90 246h-277v-379h230v-106h-230v-349q117 -23 185 -49v-51h-504v51q53 30 135 49v349h-152z" />
    <glyph glyph-name="uni0494" unicode="&#x494;" horiz-adv-x="1249" 
d="M59 0v59q84 35 168 50v1214q-75 15 -168 51v60h959q0 -247 -23 -412h-53l-106 305h-412v-573q163 92 340 92q203 0 300 -102q105 -110 105 -347q0 -307 -90 -443q-104 -156 -362 -179l-12 55q173 61 230 196q28 66 34 153q24 349 -61 472q-60 88 -203.5 88t-280.5 -84
v-546q104 -16 192 -50v-59h-557z" />
    <glyph glyph-name="uni0495" unicode="&#x495;" horiz-adv-x="1122" 
d="M80 0v51q53 30 135 49v824q-76 12 -135 47v53h764q-4 -173 -23 -330h-53l-92 240h-277v-479q109 118 287 118q139 0 216 -77.5t77 -210.5v-283q0 -242 -95 -341q-83 -86 -270 -95l-10 57q114 33 150 103q41 77 41 276v242q0 213 -181 213q-105 0 -215 -64v-293
q113 -18 181 -49v-51h-500z" />
    <glyph glyph-name="uni0496" unicode="&#x496;" horiz-adv-x="2007" 
d="M0 0v51l96 49q220 237 512 660l-385 563q-84 25 -145 51v60h452v-60q-72 -35 -139 -51l346 -551h131v551q-93 26 -145 51v60h473v-60q-45 -23 -131 -51v-567l139 28l344 539l-147 51v60h450v-60q-67 -29 -153 -51l-373 -545q51 -68 110.5 -150.5t124.5 -171.5
q160 -221 279 -350h160q0 -104 -17.5 -239t-25.5 -176h-51l-86 309h-136l-69 51q-121 141 -220.5 304t-209.5 331h-119v-577q83 -24 131 -50v-59h-475v59q61 33 147 50v596l-123 -31q-111 -168 -205 -324.5t-214 -298.5l-70 -51h-256z" />
    <glyph glyph-name="uni0497" unicode="&#x497;" horiz-adv-x="1531" 
d="M0 0v51l94 49q100 115 203.5 268.5t132.5 190.5q-157 178 -289 363q-53 12 -102 49v53h354v-53q-39 -29 -102 -49q55 -98 120.5 -185.5t137.5 -185.5h104v371q-68 14 -114 49v53h397v-53q-44 -35 -109 -49v-383l113 20q165 224 246 363q-71 24 -103 49v53h355v-53
q-35 -25 -117 -49q-66 -90 -136.5 -176.5t-137.5 -172.5q208 -286 366 -485h119q-10 -253 -23 -391h-51l-92 303h-104l-58 47q-75 100 -133.5 199.5t-92.5 154t-52 84.5h-99v-385q63 -16 123 -49v-51h-411v51q74 36 114 49v398l-110 -21q-18 -29 -49 -84t-68 -119
q-97 -166 -152 -227l-61 -47h-213z" />
    <glyph glyph-name="uni0498" unicode="&#x498;" horiz-adv-x="1134" 
d="M102 55q0 148 52 342h53l86 -286q62 -31 168.5 -31t168.5 24.5t107 67.5q94 90 94 225q0 153 -94 227q-80 62 -217 62l-158 -22q-14 63 -2 118h66q93 0 166 11q94 33 144 105.5t50 189t-76.5 190.5t-211.5 74q-128 0 -162 -39l-107 -250h-53q-26 143 -22 311
q104 84 356 84q320 0 430 -177q43 -69 43 -174t-60.5 -196.5t-191.5 -142.5v-8q207 -34 273 -207q24 -61 24 -151t-32.5 -164t-89.5 -126q-112 -102 -298 -128q-25 -184 -67 -375h-54q-16 94 -32.5 185t-30.5 183q-184 12 -322 78z" />
    <glyph glyph-name="uni0499" unicode="&#x499;" horiz-adv-x="970" 
d="M94 98l37 138h41q27 -29 59.5 -69t65.5 -79q43 -16 114.5 -16t117.5 20.5t75 53.5q58 64 58 160.5t-42 131.5t-114 47l-193 -30q-18 62 0 110h209q72 32 104 129q11 35 11 78q0 98 -54.5 142t-142.5 44q-83 0 -118 -14l-93 -231h-51q-41 120 -45 268q121 68 314 68
q374 0 374 -240q0 -88 -73 -164q-59 -62 -150 -90q113 -10 188.5 -72.5t75.5 -191.5t-88 -211t-235 -98q-29 -224 -60 -351h-53q-27 141 -59 349q-170 19 -273 118z" />
    <glyph glyph-name="uni049A" unicode="&#x49a;" horiz-adv-x="1384" 
d="M59 0v59q82 33 168 50v1214q-92 12 -168 51v60h519v-60q-79 -34 -154 -51v-567l123 28l383 539q-86 21 -148 51v60h453v-60q-78 -34 -156 -51l-411 -545q272 -362 553 -674h155q0 -193 -43 -413h-51l-86 309h-129l-70 49q-206 240 -473 637h-100v-577q94 -16 154 -50v-59
h-519z" />
    <glyph glyph-name="uni049B" unicode="&#x49b;" horiz-adv-x="1134" 
d="M80 0v51q55 33 135 49v822q-72 14 -135 49v53h420v-53q-46 -32 -101 -49v-383l95 20q82 94 155.5 176t136.5 178q-81 32 -120 58v53h395v-53q-23 -18 -137 -58q-150 -180 -312 -342q91 -99 174 -201q141 -175 240 -282h111q-2 -46 -23 -391h-53l-92 303h-101l-65 47
q-92 111 -168 221.5t-154 216.5h-82v-385q97 -24 133 -49v-51h-452z" />
    <glyph glyph-name="uni049C" unicode="&#x49c;" horiz-adv-x="1460" 
d="M59 0v59q82 33 168 50v1214q-92 12 -168 51v60h519v-60q-79 -34 -154 -51v-569l96 10v330h105v-320l61 8l383 541q-88 21 -147 51v60h450v-60q-76 -34 -155 -51l-410 -543q289 -385 555 -680l98 -49v-51h-256l-69 49q-208 242 -469 641h-41v-317h-105v317h-96v-581
q94 -16 154 -50v-59h-519z" />
    <glyph glyph-name="uni049D" unicode="&#x49d;" horiz-adv-x="1294" 
d="M80 0v51q55 33 135 49v822q-72 14 -135 49v53h420v-53q-46 -32 -101 -49v-383l121 8v284h98v-276l62 4q82 94 155.5 176t137.5 178q-79 32 -121 58v53h395v-53q-44 -35 -137 -58q-155 -186 -311 -342q75 -81 161 -188q160 -197 238 -283l96 -49v-51h-239l-66 47
q-92 111 -168 221.5t-153 216.5h-50v-256h-98v256h-121v-385q97 -24 133 -49v-51h-452z" />
    <glyph glyph-name="uni049E" unicode="&#x49e;" horiz-adv-x="1368" 
d="M20 1092v98h254v133q-96 12 -168 51v60h519v-60q-79 -34 -154 -51v-133h225v-98h-225v-336l133 28l381 539q-80 20 -147 51v60h452v-60q-74 -33 -157 -51l-408 -543q338 -450 545 -680l98 -49v-51h-256l-70 49q-181 211 -460 637h-111v-577q94 -16 154 -50v-59h-519v59
q82 33 168 50v983h-254z" />
    <glyph glyph-name="uni049F" unicode="&#x49f;" horiz-adv-x="1056" 
d="M6 1169v107h178v121l-155 16v53q57 27 137 43.5t151 30.5h52v-264h321v-107h-321v-608h53q171 192 293 361q-51 14 -101 49v53h396v-53q-86 -35 -156 -49q-94 -124 -181 -218t-114 -120q31 -41 75 -99.5t95 -124.5q127 -163 213 -260l115 -49v-51h-254l-55 49
q-137 170 -312 438l-67 21v-408q68 -12 133 -49v-51h-453v51q68 33 135 49v1069h-178z" />
    <glyph glyph-name="uni04A0" unicode="&#x4a0;" horiz-adv-x="1560" 
d="M20 1434h797v-60q-89 -36 -155 -51v-567l122 28l383 539q-76 19 -147 51v60h453v-60q-76 -33 -158 -51l-410 -543q259 -345 557 -680l99 -49v-51h-256l-70 49q-227 265 -471 637h-102v-577q92 -16 155 -50v-59h-520v59q82 33 168 50v1218h-264l-105 -289h-53
q-12 83 -15 168.5t-5.5 136t-2.5 91.5z" />
    <glyph glyph-name="uni04A1" unicode="&#x4a1;" horiz-adv-x="1251" 
d="M31 1024h614v-53q-41 -29 -102 -49v-383l94 20q197 207 295 354q-85 34 -123 58v53h395v-53q-25 -20 -135 -58q-145 -174 -313 -342q61 -67 156 -181q183 -222 245 -290l94 -49v-51h-237l-66 47q-92 111 -169 221.5t-154 216.5h-82v-385q84 -18 133 -49v-51h-453v51
q55 33 135 49v834h-161l-91 -225h-51q-20 155 -24 315z" />
    <glyph glyph-name="uni04A2" unicode="&#x4a2;" horiz-adv-x="1521" 
d="M59 0v59q82 33 168 50v1214q-96 14 -168 51v60h519v-60q-66 -34 -154 -51v-535h643v535q-86 20 -154 51v60h519v-60q-56 -30 -168 -51v-1217h225q0 -135 -41 -415h-53l-86 309h-396v59q74 33 154 50v573h-643v-573q85 -17 154 -50v-59h-519z" />
    <glyph glyph-name="uni04A3" unicode="&#x4a3;" horiz-adv-x="1255" 
d="M80 0v51q44 25 135 49v822q-95 26 -135 49v53h440v-53q-47 -29 -121 -49v-359h455v359q-72 12 -123 49v53h443v-53q-55 -35 -136 -49v-834h162q-10 -243 -22 -391h-52l-92 303h-303v51q51 37 123 49v373h-455v-373q77 -15 121 -49v-51h-440z" />
    <glyph glyph-name="uni04A4" unicode="&#x4a4;" horiz-adv-x="1878" 
d="M59 0v59q82 33 168 50v1214q-96 14 -168 51v60h519v-60q-66 -34 -154 -51v-535h643v535q-47 6 -96 23.5t-58 27.5v60h945q0 -101 -7.5 -236t-13.5 -178h-53l-107 307h-413v-1218q106 -16 196 -50v-59h-547v59q35 18 77 25.5t77 24.5v573h-643v-573q85 -17 154 -50v-59
h-519z" />
    <glyph glyph-name="uni04A5" unicode="&#x4a5;" horiz-adv-x="1521" 
d="M80 0v51q44 25 135 49v822q-95 26 -135 49v53h440v-53q-47 -29 -121 -49v-359h455v359q-72 12 -123 49v53h752q-5 -195 -25 -336h-53l-90 246h-277v-834q117 -23 185 -49v-51h-492v51q51 37 123 49v373h-455v-373q77 -15 121 -49v-51h-440z" />
    <glyph glyph-name="uni04A6" unicode="&#x4a6;" horiz-adv-x="2068" 
d="M59 0v59q64 33 168 50v1214q-75 15 -168 51v60h1352v-60q-60 -31 -168 -51v-569q163 92 340 92q203 0 300 -102q106 -111 106 -347q0 -308 -91 -443q-104 -156 -362 -179l-12 55q174 62 230 196q28 66 34 153q24 347 -62 471q-61 89 -203.5 89t-279.5 -84v-546
q84 -10 166 -50v-59h-516v59q45 29 154 50v1218h-623v-1218q80 -16 154 -50v-59h-519z" />
    <glyph glyph-name="uni04A7" unicode="&#x4a7;" horiz-adv-x="1785" 
d="M80 0v51q69 40 135 49v822q-96 22 -135 49v53h1091v-53q-73 -43 -135 -49v-430q64 139 197 190q47 18 116.5 18t134 -20.5t107.5 -69.5q88 -100 88 -342v-205q0 -256 -96 -371.5t-272 -125.5l-11 57q161 47 186 260q9 76 9 180v170q0 160 -45 250t-155.5 90t-170 -56
t-88.5 -138v-279q70 -12 135 -49v-51h-440v51q46 32 121 49v834h-453v-834q67 -20 121 -49v-51h-440z" />
    <glyph glyph-name="uni04A8" unicode="&#x4a8;" horiz-adv-x="1730" 
d="M109 717q0 308 169 519q80 101 196 161.5t259 60.5q139 0 189 -84l-17 -37q-34 15 -123.5 15t-177.5 -49.5t-150 -135.5q-126 -177 -126 -452q0 -272 146 -449q152 -184 405 -184q74 0 114 20q-143 72 -243 231q-111 179 -111 400q0 261 151 439q70 81 162 127.5
t187.5 46.5t181.5 -38t153 -115q150 -171 150 -462q0 -222 -142 -409q-119 -156 -259 -213q58 -29 120 -29q135 0 224 78l24 -29q-23 -68 -89 -111t-154 -43q-155 0 -261 76q-31 -27 -101.5 -51.5t-195.5 -24.5t-257 55.5t-226 155.5q-198 209 -198 531zM858 721.5
q0 -104.5 22.5 -192t59.5 -157.5q72 -137 184 -214q128 71 205 229q76 156 76 350q0 352 -143 464q-48 38 -118.5 38t-125.5 -41t-90 -111.5t-52.5 -165.5t-17.5 -199.5z" />
    <glyph glyph-name="uni04A9" unicode="&#x4a9;" horiz-adv-x="1349" 
d="M84 512q0 219 142 379q139 158 341 158q150 0 150 -88l-10 -15q-46 12 -111.5 11t-124.5 -33.5t-100 -91.5q-86 -122 -86 -320q0 -189 113 -316q114 -130 288 -130q97 0 129 12q-121 33 -209 154q-88 122 -88 249t34 211t89 138q107 104 274 104q140 0 242 -98
q121 -115 121 -318q0 -148 -98 -282q-90 -121 -199 -160q53 -15 105 -15h69q68 0 121 29l14 -24q-26 -65 -122 -86q-25 -5 -46 -5q-156 0 -221 50q-106 -50 -231 -50t-232.5 38t-185.5 109q-168 153 -168 390zM715 508q0 -293 176 -393q78 42 133 153q57 115 57 267
q0 208 -95 283q-34 26 -85 26q-92 0 -139 -97t-47 -239z" />
    <glyph glyph-name="uni04AA" unicode="&#x4aa;" horiz-adv-x="1318" 
d="M109 717q0 377 205 570q181 171 481 171q247 0 389 -69q0 -151 -31 -353h-53l-107 295q-40 21 -160 21t-211.5 -38t-159.5 -117q-151 -174 -151 -480q0 -293 143 -464q144 -171 398 -171q142 0 172 37l96 254h54q29 -166 22 -314q-89 -70 -326 -84q-19 -168 -65 -366h-53
q-18 96 -34 190.5t-32 186.5q-274 35 -425.5 212t-151.5 519z" />
    <glyph glyph-name="uni04AB" unicode="&#x4ab;" horiz-adv-x="954" 
d="M84 512q0 260 127 398.5t332.5 138.5t326.5 -64q-16 -181 -63 -291h-55l-86 244q-28 20 -95 20q-139 0 -214.5 -101t-75.5 -343q0 -168 87 -284q97 -128 284 -128q107 0 196 70l26 -29q-35 -66 -105.5 -110.5t-168.5 -55.5q-29 -215 -59 -346h-54q-25 139 -59 359
q-174 39 -259 176t-85 346z" />
    <glyph glyph-name="uni04AC" unicode="&#x4ac;" horiz-adv-x="1267" 
d="M39 1434h1190q0 -102 -8.5 -229.5t-14.5 -170.5h-53l-106 293h-314v-1221h225q0 -112 -17 -243t-26 -172h-51l-86 309h-432v59q96 34 191 50v1218h-314l-108 -293h-52q-24 164 -24 400z" />
    <glyph glyph-name="uni04AD" unicode="&#x4ad;" horiz-adv-x="1017" 
d="M57 1024h901q-5 -187 -22 -336h-53l-90 246h-193v-844h180q-4 -101 -22 -393h-51l-93 303h-333v51q63 33 135 49v834h-191l-90 -246h-53q-21 186 -25 336z" />
    <glyph glyph-name="uni04AE" unicode="&#x4ae;" horiz-adv-x="1318" 
d="M0 1374v60h543v-60q-87 -34 -158 -51l336 -602l315 602q-76 16 -168 51v60h451v-60q-78 -39 -156 -51l-387 -713v-501q80 -10 156 -50v-59h-520v59q74 37 168 50v499l-414 715q-71 12 -166 51z" />
    <glyph glyph-name="uni04AF" unicode="&#x4af;" horiz-adv-x="1038" 
d="M-20 971v53h428v-51q-75 -39 -117 -51l237 -617l41 -133h4l33 135l217 615q-65 16 -112 49v53h348v-53q-40 -28 -117 -49l-321 -830v-401q83 -20 135 -49v-52h-455v52q55 29 135 49v397l-348 834q-59 20 -108 49z" />
    <glyph glyph-name="uni04B0" unicode="&#x4b0;" horiz-adv-x="1318" 
d="M0 1374v60h543v-60q-87 -34 -158 -51l336 -602l315 602q-82 17 -166 51v60h449v-60q-78 -39 -156 -51l-387 -713h297v-106h-297v-395q80 -10 156 -50v-59h-520v59q74 37 168 50v395h-297v106h295l-412 713q-71 12 -166 51z" />
    <glyph glyph-name="uni04B1" unicode="&#x4b1;" horiz-adv-x="1038" 
d="M-20 971v53h428v-51q-75 -39 -117 -51l186 -486l88 -264h4l82 266l172 484q-65 16 -112 49v53h348v-53q-40 -28 -117 -49l-317 -816h247v-106h-249l-2 -309q83 -20 135 -49v-52h-455v52q55 29 135 49v309h-250v106h244l-342 816q-59 20 -108 49z" />
    <glyph glyph-name="uni04B2" unicode="&#x4b2;" horiz-adv-x="1404" 
d="M20 0v59q48 25 152 50l401 612l-385 602q-81 24 -161 51v60h542v-60q-79 -29 -157 -51l286 -463l279 463q-80 18 -168 51v60h471v-60q-86 -34 -154 -51l-360 -555l426 -662h205q0 -135 -41 -415h-53l-86 309h-408v59q74 37 154 50l-324 514l-311 -517q113 -16 166 -47
v-59h-474z" />
    <glyph glyph-name="uni04B3" unicode="&#x4b3;" horiz-adv-x="1062" 
d="M20 0v51q57 35 115 49l305 408l-307 414q-60 21 -100 49v53h411v-51q-64 -41 -100 -51l213 -308l209 308q-70 23 -102 49v53h342v-53q-39 -27 -115 -49l-281 -373l332 -461h150q-9 -219 -23 -391h-51l-92 303h-303v49q79 44 102 51l-227 338l-230 -338q50 -17 103 -49
v-51h-351z" />
    <glyph glyph-name="uni04B4" unicode="&#x4b4;" horiz-adv-x="1812" 
d="M39 1434h1081q0 -77 -8 -217t-14 -183h-54l-106 293h-207v-1221h619v1217q-84 23 -131 51v60h495v-60q-97 -38 -168 -51v-1217h236q-9 -182 -43 -415h-53l-87 309h-1253v59q99 35 191 50v1218h-314l-108 -293h-52q-24 164 -24 400z" />
    <glyph glyph-name="uni04B5" unicode="&#x4b5;" horiz-adv-x="1587" 
d="M57 1024h899q-5 -187 -22 -336h-53l-90 246h-191v-844h561v832q-43 9 -121 49v53h441v-53q-62 -32 -135 -49v-832h182q-9 -222 -23 -393h-51l-92 303h-1081v51q55 33 135 49v834h-191l-90 -246h-53q-21 186 -25 336z" />
    <glyph glyph-name="uni04B6" unicode="&#x4b6;" horiz-adv-x="1366" 
d="M18 1374v60h480v-60q-75 -36 -136 -51v-360q0 -314 252 -314q165 0 297 84v590q-54 15 -145 51v60h477v-60q-72 -35 -135 -51v-1217h227q0 -195 -43 -415h-51l-86 309h-432v59q83 39 188 50v526q-163 -92 -354 -92q-190 0 -281 75q-110 91 -110 306v399q-65 11 -148 51z
" />
    <glyph glyph-name="uni04B7" unicode="&#x4b7;" horiz-adv-x="1142" 
d="M31 971v53h440v-53q-49 -34 -121 -49v-246q0 -213 178 -213q105 0 215 63v396q-61 12 -120 49v53h440v-53q-55 -35 -135 -49v-834h170q-2 -46 -23 -391h-53l-92 303h-350v51q84 35 163 49v367q-112 -121 -286 -121q-139 0 -215 78t-76 211v287q-78 14 -135 49z" />
    <glyph glyph-name="uni04B8" unicode="&#x4b8;" horiz-adv-x="1359" 
d="M18 1374v60h498v-60q-56 -27 -154 -51v-360q0 -141 65 -226.5t196 -87.5v314h106v-308q143 21 240 78v590q-57 15 -146 51v60h477v-60q-72 -35 -135 -51v-1214q78 -15 135 -50v-59h-520v59q82 39 189 50v526q-77 -48 -240 -78v-295h-106v283q-12 -2 -25 -2h-27
q-193 0 -287 75q-118 94 -118 306v399q-65 11 -148 51z" />
    <glyph glyph-name="uni04B9" unicode="&#x4b9;" horiz-adv-x="1269" 
d="M31 971v53h440v-53q-49 -34 -121 -49v-246q0 -94 49.5 -151.5t178.5 -61.5v328h96v-322q133 20 196 57v396q-66 12 -122 49v53h442v-53q-55 -35 -135 -49v-822q88 -21 135 -49v-51h-483v51q84 35 163 49v367q-61 -65 -196 -100v-179h-96v160q-16 -2 -30 -2h-28
q-280 0 -336 170q-18 53 -18 119v287q-78 14 -135 49z" />
    <glyph glyph-name="uni04BA" unicode="&#x4ba;" horiz-adv-x="1302" 
d="M59 0v60q72 35 135 51v1214q-83 16 -135 50v59h520v-59q-83 -39 -188 -50v-526q163 92 354 92q190 0 281 -75q110 -91 110 -306v-399q65 -11 148 -51v-60h-480v60q75 36 136 51v360q0 314 -252 314q-165 0 -297 -84v-590q54 -15 145 -51v-60h-477z" />
    <glyph glyph-name="uni04BB" unicode="&#x4bb;" horiz-adv-x="1202" 
d="M29 1413v53q99 42 288 74h52v-723h2q43 96 123.5 164t179 68t163 -19.5t107.5 -69.5q88 -101 88 -342v-518q97 -22 135 -49v-51h-442v51q49 27 123 49v480q0 160 -45 251t-164 91q-95 0 -174 -70q-70 -62 -96 -154v-598q81 -20 120 -49v-51h-440v51q63 33 135 49v1297z
" />
    <glyph glyph-name="uni04BC" unicode="&#x4bc;" horiz-adv-x="1671" 
d="M-2 991q0 43 15.5 99.5t52.5 97.5q47 0 104 -20.5t98 -47.5l17 -33l-168 -161q43 -122 219 -127q23 314 210 492q175 167 433 167q270 0 423 -152q77 -77 119 -192t42 -232.5t-13 -189.5h-1013q0 -276 159 -432q147 -144 366 -146q222 -2 392 128l21 -43
q-82 -117 -206 -170.5t-256 -53.5t-257 45.5t-218 135.5q-196 191 -204 536q-162 4 -251 93q-85 85 -85 206zM537 799h819q4 46 4 117t-28.5 157t-79.5 147q-107 132 -271 132q-192 0 -311 -146q-121 -148 -133 -407z" />
    <glyph glyph-name="uni04BD" unicode="&#x4bd;" horiz-adv-x="1236" 
d="M0 758.5q0 99.5 63 173.5q45 4 89 -22q58 -35 75 -85l-123 -116q20 -95 191 -107q23 217 140.5 332t318.5 115q261 0 353 -202q34 -75 34 -166t-15 -169h-639q0 -181 86 -291q93 -119 265 -119q113 0 206 44q29 14 48 30l30 -33q-32 -69 -132 -119q-101 -49 -215 -49
t-205 38t-154 109q-125 143 -125 390q-152 4 -221.5 75.5t-69.5 171zM496 602h448q4 36 4 70q0 131 -49.5 208.5t-159 77.5t-170.5 -78.5t-73 -277.5z" />
    <glyph glyph-name="uni04BE" unicode="&#x4be;" horiz-adv-x="1671" 
d="M-2 991q0 43 15.5 99.5t52.5 97.5q47 0 104 -20.5t98 -47.5l17 -33l-168 -161q43 -122 219 -127q23 314 210 492q175 167 433 167q270 0 423 -152q77 -77 119 -192t42 -232.5t-13 -189.5h-1013q0 -276 159 -432q147 -144 366 -146q222 -2 392 128l21 -43
q-74 -104 -179.5 -157.5t-216.5 -64.5q-27 -204 -65 -368h-53q-20 96 -36 190.5t-32 186.5q-41 5 -131 34t-169 87.5t-135 143.5q-120 180 -124 441q-162 4 -251 93q-85 85 -85 206zM537 799h819q4 46 4 117t-28.5 157t-79.5 147q-107 132 -271 132q-192 0 -311 -146
q-121 -148 -133 -407z" />
    <glyph glyph-name="uni04BF" unicode="&#x4bf;" horiz-adv-x="1236" 
d="M0 758.5q0 99.5 63 173.5q45 4 89 -22q58 -35 75 -85l-123 -116q20 -95 191 -107q23 217 140.5 332t318.5 115q261 0 353 -202q34 -75 34 -166t-15 -169h-639q0 -181 86 -291q93 -119 265 -119q113 0 206 44q29 14 48 30l30 -33q-31 -63 -112.5 -109t-180.5 -57
q-23 -204 -57 -346h-53q-20 98 -32.5 180.5t-27.5 174.5q-184 35 -275 174t-93 352q-152 4 -221.5 75.5t-69.5 171zM496 602h448q4 36 4 68q0 131 -49.5 209.5t-159 78.5t-170.5 -78.5t-73 -277.5z" />
    <glyph glyph-name="uni04C0" unicode="&#x4c0;" horiz-adv-x="720" 
d="M98 0v59q80 37 164 50v1214q-67 13 -164 51v60h525v-60q-80 -35 -164 -51v-1214q99 -18 164 -50v-59h-525z" />
    <glyph glyph-name="uni04C3" unicode="&#x4c3;" horiz-adv-x="1323" 
d="M59 0v59q82 33 168 50v1214q-92 12 -168 51v60h519v-60q-79 -34 -154 -51v-567l123 28l381 539q-82 20 -146 51v60h451v-60q-78 -34 -156 -51l-409 -543q90 -41 188 -118.5t181 -177.5q190 -231 190 -453q0 -219 -137 -341q-123 -109 -332 -122l-13 55q285 60 285 379
q0 202 -180 422q-98 120 -208 204q-50 38 -87 58h-131v-577q94 -16 154 -50v-59h-519z" />
    <glyph glyph-name="uni04C4" unicode="&#x4c4;" horiz-adv-x="1107" 
d="M80 0v51q55 33 135 49v822q-72 14 -135 49v53h420v-53q-46 -32 -101 -49v-383l95 20q82 94 155.5 176t136.5 178q-81 32 -120 58v53h395v-53q-23 -18 -137 -58q-150 -180 -312 -342q57 -25 132 -82t140 -139q156 -195 156 -385t-94 -289.5t-270 -109.5l-10 57
q109 33 149.5 103.5t40.5 178t-39 200t-96 169t-123 133t-117 78.5h-82v-385q97 -24 133 -49v-51h-452z" />
    <glyph glyph-name="uni04C5" unicode="&#x4c5;" horiz-adv-x="1343" 
d="M-20 213l30 51l236 -43q112 184 152 661q16 183 16 431q-127 20 -209 61v60h1077v-60q-72 -37 -168 -51v-1217h225l17 -18q-21 -104 -144 -303q-32 -53 -61 -92h-55l59 307h-393v59q50 21 156 50v1218h-383q-21 -834 -159 -1104q-42 -82 -87 -140q-84 -108 -219 -108
q-27 31 -50 88q-36 90 -40 150z" />
    <glyph glyph-name="uni04C6" unicode="&#x4c6;" horiz-adv-x="1118" 
d="M6 166l29 51l174 -41q83 140 113 518q8 107 8 207q-72 21 -137 70v53h837v-53q-66 -37 -135 -49v-832h201l10 -16q-29 -143 -138 -314q-28 -43 -46 -63h-56l56 303h-332v51q49 35 121 49v834h-271q-8 -414 -96 -692q-65 -202 -164 -255q-45 -24 -84 -16
q-31 35 -58.5 91.5t-31.5 103.5z" />
    <glyph glyph-name="uni04C7" unicode="&#x4c7;" horiz-adv-x="1490" 
d="M59 0v59q82 33 168 50v1214q-96 14 -168 51v60h519v-60q-66 -34 -154 -51v-535h643v535q-86 20 -154 51v60h519v-60q-56 -30 -168 -51v-1323q0 -260 -105 -355q-51 -46 -124.5 -61.5t-168.5 -15.5l-12 55q115 26 160 97q53 85 53 280v682h-643v-573q85 -17 154 -50v-59
h-519z" />
    <glyph glyph-name="uni04C8" unicode="&#x4c8;" horiz-adv-x="1253" 
d="M80 0v51q44 25 135 49v822q-95 26 -135 49v53h440v-53q-47 -29 -121 -49v-359h455v359q-72 12 -123 49v53h443v-53q-55 -35 -136 -49v-922q0 -240 -95 -339q-83 -87 -269 -95l-10 57q114 33 150 103q40 75 40 276v471h-455v-373q77 -15 121 -49v-51h-440z" />
    <glyph glyph-name="uni04C9" unicode="&#x4c9;" horiz-adv-x="1495" 
d="M59 0v59q82 33 168 50v1214q-96 14 -168 51v60h519v-60q-66 -34 -154 -51v-535h643v535q-86 20 -154 51v60h519v-60q-56 -30 -168 -51v-1217h227l16 -18q-13 -65 -62 -158q-74 -141 -145 -237h-55l62 307h-394v59q74 33 154 50v573h-643v-573q85 -17 154 -50v-59h-519z
" />
    <glyph glyph-name="uni04CA" unicode="&#x4ca;" horiz-adv-x="1259" 
d="M80 0v51q44 25 135 49v822q-95 26 -135 49v53h440v-53q-47 -29 -121 -49v-359h455v359q-72 12 -123 49v53h443v-53q-55 -35 -136 -49v-832h185l10 -16q-29 -143 -139 -314q-27 -43 -45 -63h-54l54 303h-318v51q51 37 123 49v373h-455v-373q77 -15 121 -49v-51h-440z" />
    <glyph glyph-name="uni04CB" unicode="&#x4cb;" horiz-adv-x="1302" 
d="M18 1374v60h480v-60q-75 -36 -136 -51v-360q0 -314 252 -314q165 0 297 84v590q-54 15 -145 51v60h477v-60q-72 -35 -135 -51v-1214q83 -16 135 -50v-59h-377l-86 -309h-51q-25 127 -34 251t-9 164h225v529q-163 -92 -354 -92q-190 0 -281 75q-110 91 -110 306v399
q-65 11 -148 51z" />
    <glyph glyph-name="uni04CC" unicode="&#x4cc;" horiz-adv-x="1142" 
d="M31 971v53h440v-53q-49 -34 -121 -49v-246q0 -213 178 -213q105 0 215 63v396q-61 12 -120 49v53h440v-53q-55 -35 -135 -49v-822q88 -21 135 -49v-51h-336l-92 -303h-53q-21 341 -23 393h184v377q-112 -121 -286 -121q-139 0 -215 78t-76 211v287q-78 14 -135 49z" />
    <glyph glyph-name="uni04CD" unicode="&#x4cd;" horiz-adv-x="1781" 
d="M59 1374v60h420l357 -936l69 -211h2l70 215l369 932h370v-60q-87 -38 -155 -51v-1217h223l16 -14q-24 -115 -143 -307q-33 -53 -62 -92h-55l59 307h-393v59q56 22 166 50v921l8 240h-16l-68 -219l-419 -1051h-54l-399 1051l-74 239h-18l2 -260v-921q80 -16 155 -50v-59
h-428v59q86 35 166 52v1212q-71 13 -168 51z" />
    <glyph glyph-name="uni04CE" unicode="&#x4ce;" horiz-adv-x="1527" 
d="M63 0v51q68 33 136 49l30 801q-58 22 -135 70v53h400l208 -600l39 -141h7l43 143l221 598h387v-53q-59 -35 -135 -49l45 -832h190l10 -16q-18 -88 -65 -180q-70 -136 -119 -197h-55l55 303h-319v51q58 29 122 49l-41 830h-16l-336 -930h-57l-330 930h-16l-31 -830
q74 -23 123 -49v-51h-361z" />
    <glyph glyph-name="uni04CF" unicode="&#x4cf;" horiz-adv-x="622" 
d="M80 0v51q41 20 143 49v1231q-105 22 -143 49v54h463v-54q-41 -26 -135 -49v-1231q83 -24 135 -49v-51h-463z" />
    <glyph glyph-name="uni04D0" unicode="&#x4d0;" horiz-adv-x="1398" 
d="M0 0v59q74 33 147 50l519 1349h59l518 -1349q108 -21 156 -50v-59h-525v59q77 30 168 50l-139 374h-489l-135 -374q86 -12 176 -50v-59h-455zM346 1759q40 40 153 45l52 -26v-174q60 -29 157.5 -29t161.5 22v181l51 26q31 2 75 -11t71 -34q0 -181 -195 -239
q-68 -21 -164 -21q-188 0 -275 75t-87 185zM455 590h413l-161 434l-39 176h-4l-52 -180z" />
    <glyph glyph-name="uni04D1" unicode="&#x4d1;" horiz-adv-x="1034" 
d="M80 235.5q0 108.5 38 169t111.5 95.5t182 50t252.5 23q17 191 -18 280q-40 105 -157 105q-85 0 -135 -20l-96 -246h-53q-48 147 -55 256q168 101 385 101q188 0 261 -107q54 -77 54 -219l-10 -455q0 -45 2 -77.5t4 -69.5l141 -21v-43q-102 -54 -233 -77h-52
q-20 47 -24 103t-6 124h-10q-18 -92 -94 -158q-85 -74 -208 -74t-201.5 76t-78.5 184.5zM182 1399q56 46 153 55l52 -27v-182q53 -22 137.5 -22t140.5 16v188l51 27q91 -8 144 -55q0 -173 -173 -231q-65 -21 -165 -21t-166 21.5t-105 56.5q-69 63 -69 174zM276 298.5
q0 -99.5 45 -148t109.5 -48.5t103.5 20.5t66 49.5q46 50 66 109v215q-230 0 -314 -52q-76 -46 -76 -145.5z" />
    <glyph glyph-name="uni04D2" unicode="&#x4d2;" horiz-adv-x="1398" 
d="M0 0v59q74 33 147 50l519 1349h59l518 -1349q108 -21 156 -50v-59h-525v59q77 30 168 50l-139 374h-489l-135 -374q86 -12 176 -50v-59h-455zM352 1617q0 48 32.5 72.5t83 24.5t83 -24.5t32.5 -72.5t-32.5 -72.5t-82.5 -24.5t-83 24.5t-33 72.5zM455 590h413l-161 434
l-39 176h-4l-52 -180zM809 1617q0 48 32.5 72.5t82.5 24.5t83 -24.5t33 -72.5t-33 -72.5t-83 -24.5t-82.5 24.5t-32.5 72.5z" />
    <glyph glyph-name="uni04D3" unicode="&#x4d3;" horiz-adv-x="1034" 
d="M80 235.5q0 108.5 38 169t111.5 95.5t182 50t252.5 23q17 191 -18 280q-40 105 -157 105q-85 0 -135 -20l-96 -246h-53q-48 147 -55 256q168 101 385 101q188 0 261 -107q54 -77 54 -219l-10 -455q0 -45 2 -77.5t4 -69.5l141 -21v-43q-102 -54 -233 -77h-52
q-20 47 -24 103t-6 124h-10q-18 -92 -94 -158q-85 -74 -208 -74t-201.5 76t-78.5 184.5zM172 1359q0 48 30.5 77.5t79.5 29.5t80 -29.5t31 -77.5t-30.5 -77t-80.5 -29q-49 0 -79.5 29t-30.5 77zM276 298.5q0 -99.5 45 -148t109.5 -48.5t103.5 20.5t66 49.5q46 50 66 109v215
q-230 0 -314 -52q-76 -46 -76 -145.5zM627 1359q0 48 30.5 77.5t79.5 29.5t80 -29.5t31 -77.5t-31 -77t-80 -29t-79.5 29t-30.5 77z" />
    <glyph glyph-name="uni04D4" unicode="&#x4d4;" horiz-adv-x="1886" 
d="M0 0v59q74 33 147 50l725 1226q-76 21 -118 39v60h970q-5 -215 -22 -332h-51l-86 225h-445v-543h332l82 152h49q16 -203 0 -414h-49l-82 156h-332v-572h471l99 246h53q29 -205 22 -352h-1009v59q72 33 168 50v415h-402l-237 -415q84 -12 174 -50v-59h-459zM584 631h340
v620h-4l-84 -190z" />
    <glyph glyph-name="uni04D5" unicode="&#x4d5;" horiz-adv-x="1593" 
d="M80 235.5q0 108.5 38 169t111.5 95.5t182 50t252.5 23q6 63 6 119q0 125 -39 195.5t-142 70.5q-85 0 -135 -20l-96 -246h-53q-48 147 -55 256q168 101 385 101q207 0 264 -121q55 60 101 81q87 40 184.5 40t167 -19.5t124.5 -64.5q121 -100 121 -306q0 -75 -14 -147h-635
q0 -180 85 -291q91 -119 259 -119q113 0 209 44q29 14 47 30l31 -33q-32 -70 -133 -119q-102 -49 -207 -49q-213 0 -342 116q-49 44 -80 110q-33 -96 -128 -160q-98 -66 -225 -66t-205.5 76t-78.5 184.5zM276 299q0 -100 45 -148.5t109.5 -48.5t102.5 19.5t65 47.5
q46 48 66 105v222q-230 0 -314 -52q-74 -45 -74 -145zM852 602h448q5 45 5 70q0 131 -49.5 208.5t-159 77.5t-171 -78.5t-73.5 -277.5z" />
    <glyph glyph-name="uni04D6" unicode="&#x4d6;" horiz-adv-x="1191" 
d="M59 0v59q72 33 168 50v1214q-75 15 -168 51v60h971q-5 -185 -22 -332h-54l-84 225h-446v-543h334l80 152h51q12 -203 0 -414h-51l-80 156h-334v-572h471l100 246h52q30 -182 22 -352h-1010zM238 1759q40 40 153 45l52 -26v-174q60 -29 157.5 -29t161.5 22v181l51 26
q31 2 75 -11t71 -34q0 -181 -195 -239q-68 -21 -164 -21q-188 0 -275 75t-87 185z" />
    <glyph glyph-name="uni04D7" unicode="&#x4d7;" horiz-adv-x="1030" 
d="M84 520q0 254 121 391.5t342 137.5q261 0 353 -204q34 -75 34 -168t-14 -165h-639q0 -181 86 -291q93 -119 262 -119q72 0 145.5 20.5t110.5 53.5l28 -33q-31 -69 -131 -119q-99 -49 -213.5 -49t-206.5 38t-154 109q-124 144 -124 398zM203 1399q56 46 153 55l52 -27
v-182q53 -22 137.5 -22t140.5 16v188l51 27q91 -8 144 -55q0 -173 -173 -231q-65 -21 -165 -21t-166 21.5t-105 56.5q-69 63 -69 174zM287 602h450q4 36 4 70q0 131 -49 208.5t-159.5 77.5t-172 -78.5t-73.5 -277.5z" />
    <glyph glyph-name="uni04D8" unicode="&#x4d8;" horiz-adv-x="1454" 
d="M109 639q0 57 6 123h1028q-8 275 -139 431q-133 159 -383 159q-157 0 -220 -29l-108 -297h-51q-39 198 -29 348q72 35 184.5 59.5t231.5 24.5q356 0 536.5 -186.5t180.5 -554.5q0 -357 -168 -554q-161 -188 -446 -188q-140 0 -257 41t-199 124q-167 171 -167 499z
M324 655q-21 -147 15 -255.5t90 -175.5q116 -142 303 -142t294 140t117 433h-819z" />
    <glyph glyph-name="afii10846" unicode="&#x4d9;" horiz-adv-x="1062" 
d="M96 373.5q0 88.5 15 167.5h675q0 299 -148 385q-56 32 -144 32q-86 0 -136 -20l-98 -244h-51q-43 137 -51 256q78 47 160.5 73t202.5 26t207 -38t142 -109q109 -139 109 -395.5t-122 -394t-341 -137.5q-163 0 -282 98q-60 50 -99 131t-39 169.5zM293 451
q-14 -176 50 -280.5t180 -104.5q240 0 259 385h-489z" />
    <glyph glyph-name="uni04DA" unicode="&#x4da;" horiz-adv-x="1454" 
d="M109 639q0 57 6 123h1028q-8 275 -139 431q-133 159 -383 159q-157 0 -220 -29l-108 -297h-51q-39 198 -29 348q72 35 184.5 59.5t231.5 24.5q356 0 536.5 -186.5t180.5 -554.5q0 -357 -168 -554q-161 -188 -446 -188q-140 0 -257 41t-199 124q-167 171 -167 499z
M324 655q-21 -147 15 -255.5t90 -175.5q116 -142 303 -142t294 140t117 433h-819zM336 1617q0 48 32.5 72.5t83 24.5t83 -24.5t32.5 -72.5t-32.5 -72.5t-82.5 -24.5t-83 24.5t-33 72.5zM793 1617q0 48 32.5 72.5t82.5 24.5t83 -24.5t33 -72.5t-33 -72.5t-83 -24.5
t-82.5 24.5t-32.5 72.5z" />
    <glyph glyph-name="uni04DB" unicode="&#x4db;" horiz-adv-x="1062" 
d="M96 373.5q0 88.5 15 167.5h675q0 299 -148 385q-56 32 -144 32q-86 0 -136 -20l-98 -244h-51q-43 137 -51 256q78 47 160.5 73t202.5 26t207 -38t142 -109q109 -139 109 -395.5t-122 -394t-341 -137.5q-163 0 -282 98q-60 50 -99 131t-39 169.5zM195 1359q0 48 30.5 77.5
t79.5 29.5t80 -29.5t31 -77.5t-30.5 -77t-80.5 -29q-49 0 -79.5 29t-30.5 77zM293 451q-14 -176 50 -280.5t180 -104.5q240 0 259 385h-489zM650 1359q0 48 30.5 77.5t79.5 29.5t80 -29.5t31 -77.5t-31 -77t-80 -29t-79.5 29t-30.5 77z" />
    <glyph glyph-name="uni04DC" unicode="&#x4dc;" horiz-adv-x="1939" 
d="M0 0v51l96 49q220 237 512 660l-385 563q-84 25 -145 51v60h452v-60q-72 -35 -139 -51l346 -551h131v551q-93 26 -145 51v60h475v-60q-40 -19 -133 -51v-567l139 28l344 539l-147 51v60h450v-60q-67 -29 -153 -51l-373 -545q53 -68 112.5 -151.5t124.5 -174.5
q150 -211 281 -352l96 -49v-51h-256l-69 51q-121 141 -220.5 304t-209.5 331h-119v-577q87 -25 133 -50v-59h-477v59q61 33 147 50v596l-123 -31q-111 -168 -205 -324.5t-214 -298.5l-70 -51h-256zM623 1617q0 48 32.5 72.5t83 24.5t83 -24.5t32.5 -72.5t-32.5 -72.5
t-82.5 -24.5t-83 24.5t-33 72.5zM1080 1617q0 48 32.5 72.5t82.5 24.5t83 -24.5t33 -72.5t-33 -72.5t-83 -24.5t-82.5 24.5t-32.5 72.5z" />
    <glyph glyph-name="uni04DD" unicode="&#x4dd;" horiz-adv-x="1478" 
d="M0 0v51l94 49q115 133 270 368q35 54 64 91q-147 166 -287 363q-53 12 -102 49v53h354v-53q-39 -29 -102 -49q55 -98 119.5 -185.5t136.5 -185.5h106v371q-68 14 -114 49v53h397v-53q-44 -35 -109 -49v-383l113 20q165 224 246 363q-71 24 -103 49v53h355v-53
q-35 -25 -117 -49q-66 -90 -135.5 -176.5t-136.5 -172.5q27 -37 65.5 -92t84.5 -119q99 -139 196 -262l84 -49v-51h-217l-58 47q-59 79 -158.5 243.5t-119.5 194.5h-99v-385q63 -16 123 -49v-51h-411v51q74 36 114 49v398l-112 -21q-18 -29 -49 -84t-67 -119
q-92 -161 -151 -227l-61 -47h-213zM402 1359q0 48 30.5 77.5t79.5 29.5t80 -29.5t31 -77.5t-30.5 -77t-80.5 -29q-49 0 -79.5 29t-30.5 77zM857 1359q0 48 30.5 77.5t79.5 29.5t80 -29.5t31 -77.5t-31 -77t-80 -29t-79.5 29t-30.5 77z" />
    <glyph glyph-name="uni04DE" unicode="&#x4de;" horiz-adv-x="1134" 
d="M102 55q0 148 52 342h53l86 -286q58 -29 166.5 -29t170.5 24.5t107 66.5q94 88 94 224q0 153 -94 227q-80 62 -217 62l-158 -22q-14 63 -2 118h66q93 0 166 11q94 33 144 105.5t50 189t-76.5 190.5t-211.5 74q-128 0 -162 -39l-107 -250h-53q-26 143 -22 311
q104 84 356 84q320 0 430 -177q43 -69 43 -174t-60.5 -196.5t-191.5 -142.5v-8q207 -34 273 -207q24 -61 24 -158.5t-44 -179.5t-118 -135q-145 -105 -374.5 -105t-389.5 80zM201 1617q0 48 32.5 72.5t83 24.5t83 -24.5t32.5 -72.5t-32.5 -72.5t-82.5 -24.5t-83 24.5
t-33 72.5zM658 1617q0 48 32.5 72.5t82.5 24.5t83 -24.5t33 -72.5t-33 -72.5t-83 -24.5t-82.5 24.5t-32.5 72.5z" />
    <glyph glyph-name="uni04DF" unicode="&#x4df;" horiz-adv-x="970" 
d="M94 98l37 138h41q27 -29 59.5 -69t65.5 -79q43 -16 114.5 -16t117.5 20.5t75 53.5q58 64 58 160.5t-42 131.5t-114 47l-193 -30q-18 62 0 110h209q72 32 104 129q11 35 11 78q0 98 -54.5 142t-142.5 44q-83 0 -118 -14l-93 -231h-51q-41 120 -45 268q121 68 314 68
q374 0 374 -240q0 -88 -73 -164q-59 -62 -150 -90q113 -10 188.5 -72.5t75.5 -177.5q0 -164 -112.5 -247t-298.5 -83q-218 0 -357 123zM133 1359q0 48 30.5 77.5t79.5 29.5t80 -29.5t31 -77.5t-30.5 -77t-80.5 -29q-49 0 -79.5 29t-30.5 77zM588 1359q0 48 30.5 77.5
t79.5 29.5t80 -29.5t31 -77.5t-31 -77t-80 -29t-79.5 29t-30.5 77z" />
    <glyph glyph-name="uni04E0" unicode="&#x4e0;" horiz-adv-x="1136" 
d="M102 55q0 93 20.5 198t31.5 144h53l86 -286q58 -29 166.5 -29t170.5 24.5t107 67.5q94 90 94 223q0 153 -106 232q-90 67 -227 67l-156 -22q-14 63 -2 121l137 2l264 428l60 71v9l-113 -13h-407l-80 -221h-51q-44 237 -44 363h863v-64l-312 -473l-82 -104q213 0 335 -106
q118 -103 118 -277q0 -213 -165 -330q-149 -105 -375 -105t-386 80z" />
    <glyph glyph-name="uni04E1" unicode="&#x4e1;" horiz-adv-x="960" 
d="M63 1024h760v-63l-268 -476l-82 -104q293 0 381 -227q27 -70 27 -167.5t-37 -179t-102 -135.5q-124 -106 -334 -106q-94 0 -185.5 34.5t-150.5 88.5l37 137h41q47 -50 122 -148q43 -16 121 -16t134.5 25.5t94.5 70.5q74 89 74 230q0 145 -90 228q-81 75 -209 75l-118 -21
q-14 68 0 113h98l237 426l56 88v8l-111 -12h-321l-80 -205h-52q-37 176 -43 336z" />
    <glyph glyph-name="uni04E2" unicode="&#x4e2;" horiz-adv-x="1513" 
d="M59 0v59q82 37 168 50v1214q-99 24 -168 51v60h519v-60q-67 -32 -154 -51v-889l-23 -153l99 161l600 832v49q-82 17 -166 51v60h520v-60q-65 -28 -168 -51v-1214q96 -16 168 -50v-59h-520v59q85 36 156 50v886l20 154l-90 -154l-608 -841v-45q97 -17 166 -50v-59h-519z
M453 1614v106h616v-106h-616z" />
    <glyph glyph-name="uni04E3" unicode="&#x4e3;" horiz-adv-x="1253" 
d="M80 0v51q61 28 135 49v822q-80 12 -135 49v53h434v-53q-57 -30 -123 -49v-562l-22 -190h10l80 154l438 700h277v-53q-66 -37 -136 -49v-822q98 -25 136 -49v-51h-435v51q57 33 123 49v586l21 162h-11l-77 -154l-435 -694h-280zM373 1305v106h518v-106h-518z" />
    <glyph glyph-name="uni04E4" unicode="&#x4e4;" horiz-adv-x="1513" 
d="M59 0v59q82 37 168 50v1214q-99 24 -168 51v60h519v-60q-67 -32 -154 -51v-889l-23 -153l99 161l600 832v49q-82 17 -166 51v60h520v-60q-65 -28 -168 -51v-1214q96 -16 168 -50v-59h-520v59q85 36 156 50v886l20 154l-90 -154l-608 -841v-45q97 -17 166 -50v-59h-519z
M418 1617q0 48 32.5 72.5t83 24.5t83 -24.5t32.5 -72.5t-32.5 -72.5t-82.5 -24.5t-83 24.5t-33 72.5zM875 1617q0 48 32.5 72.5t82.5 24.5t83 -24.5t33 -72.5t-33 -72.5t-83 -24.5t-82.5 24.5t-32.5 72.5z" />
    <glyph glyph-name="uni04E5" unicode="&#x4e5;" horiz-adv-x="1253" 
d="M80 0v51q61 28 135 49v822q-80 12 -135 49v53h434v-53q-57 -30 -123 -49v-562l-22 -190h10l80 154l438 700h277v-53q-66 -37 -136 -49v-822q98 -25 136 -49v-51h-435v51q57 33 123 49v586l21 162h-11l-77 -154l-435 -694h-280zM289 1359q0 48 30.5 77.5t79.5 29.5
t80 -29.5t31 -77.5t-30.5 -77t-80.5 -29q-49 0 -79.5 29t-30.5 77zM744 1359q0 48 30.5 77.5t79.5 29.5t80 -29.5t31 -77.5t-31 -77t-80 -29t-79.5 29t-30.5 77z" />
    <glyph glyph-name="uni04E6" unicode="&#x4e6;" horiz-adv-x="1515" 
d="M109 717q0 326 171 531q173 210 478 210q303 0 478 -210q171 -204 171 -531t-171 -531q-176 -211 -478 -211q-304 0 -478 211q-171 205 -171 531zM328 717q0 -278 110 -449q121 -186 338 -186q201 0 310 186q102 173 102 449q0 435 -248 585q-84 50 -198 50t-192.5 -50.5
t-127.5 -136.5q-94 -165 -94 -448zM414 1617q0 48 32.5 72.5t83 24.5t83 -24.5t32.5 -72.5t-32.5 -72.5t-82.5 -24.5t-83 24.5t-33 72.5zM871 1617q0 48 32.5 72.5t82.5 24.5t83 -24.5t33 -72.5t-33 -72.5t-83 -24.5t-82.5 24.5t-32.5 72.5z" />
    <glyph glyph-name="uni04E7" unicode="&#x4e7;" horiz-adv-x="1132" 
d="M84 516q0 125 34 224.5t98 167.5q130 141 349 141q365 0 456 -318q28 -98 28 -219q0 -258 -131.5 -397.5t-352.5 -139.5q-239 0 -363 147q-118 141 -118 394zM221 1359q0 48 30.5 77.5t79.5 29.5t80 -29.5t31 -77.5t-30.5 -77t-80.5 -29q-49 0 -79.5 29t-30.5 77z
M281 512q0 -315 171 -412q62 -34 148 -34q111 0 181.5 108.5t70.5 337.5q0 311 -166 412q-57 34 -137 34q-121 0 -194.5 -108.5t-73.5 -337.5zM676 1359q0 48 30.5 77.5t79.5 29.5t80 -29.5t31 -77.5t-31 -77t-80 -29t-79.5 29t-30.5 77z" />
    <glyph glyph-name="uni04E8" unicode="&#x4e8;" horiz-adv-x="1515" 
d="M109 717q0 326 171 531q173 210 478 210q303 0 478 -210q171 -204 171 -531t-171 -531q-176 -211 -478 -211q-304 0 -478 211q-171 205 -171 531zM328 670q13 -404 258 -542q81 -46 185.5 -46t179.5 46t126 125q103 159 111 417h-860zM328 793h860q-17 248 -125 397
q-117 162 -321 162q-105 0 -181 -43t-125 -119q-95 -147 -108 -397z" />
    <glyph glyph-name="uni04E9" unicode="&#x4e9;" horiz-adv-x="1132" 
d="M84 516q0 125 34 224.5t98 167.5q130 141 349 141q365 0 456 -318q28 -98 28 -219q0 -258 -131.5 -397.5t-352.5 -139.5q-239 0 -363 147q-118 141 -118 394zM281 467q13 -286 177 -371q60 -30 153 -30t164 97t77 304h-571zM281 573h571q-20 271 -175 355q-54 30 -128 30
q-115 0 -186.5 -93t-81.5 -292z" />
    <glyph glyph-name="uni04EA" unicode="&#x4ea;" horiz-adv-x="1515" 
d="M109 717q0 326 171 531q173 210 478 210q303 0 478 -210q171 -204 171 -531t-171 -531q-176 -211 -478 -211q-304 0 -478 211q-171 205 -171 531zM328 670q13 -404 258 -542q81 -46 185.5 -46t179.5 46t126 125q103 159 111 417h-860zM328 793h860q-17 248 -125 397
q-117 162 -321 162q-105 0 -181 -43t-125 -119q-95 -147 -108 -397zM414 1617q0 48 32.5 72.5t83 24.5t83 -24.5t32.5 -72.5t-32.5 -72.5t-82.5 -24.5t-83 24.5t-33 72.5zM871 1617q0 48 32.5 72.5t82.5 24.5t83 -24.5t33 -72.5t-33 -72.5t-83 -24.5t-82.5 24.5t-32.5 72.5z
" />
    <glyph glyph-name="uni04EB" unicode="&#x4eb;" horiz-adv-x="1132" 
d="M84 516q0 125 34 224.5t98 167.5q130 141 349 141q365 0 456 -318q28 -98 28 -219q0 -258 -131.5 -397.5t-352.5 -139.5q-239 0 -363 147q-118 141 -118 394zM227 1359q0 48 30.5 77.5t79.5 29.5t80 -29.5t31 -77.5t-30.5 -77t-80.5 -29q-49 0 -79.5 29t-30.5 77z
M281 467q13 -286 177 -371q60 -30 153 -30t164 97t77 304h-571zM281 573h571q-20 271 -175 355q-54 30 -128 30q-115 0 -186.5 -93t-81.5 -292zM682 1359q0 48 30.5 77.5t79.5 29.5t80 -29.5t31 -77.5t-31 -77t-80 -29t-79.5 29t-30.5 77z" />
    <glyph glyph-name="uni04EC" unicode="&#x4ec;" horiz-adv-x="1296" 
d="M119 45q13 213 31 354h53l106 -299q35 -18 153.5 -18t207 39t158.5 117q155 173 155 467l-596 -62q-10 41 -10 81t10 79l596 -2q-16 276 -148.5 413.5t-359.5 137.5q-123 0 -164 -39l-106 -250h-53q-21 142 -21 311q104 84 356 84q701 0 701 -739q0 -367 -210 -567
q-185 -177 -451 -177t-408 70zM217 1617q0 48 32.5 72.5t83 24.5t83 -24.5t32.5 -72.5t-32.5 -72.5t-82.5 -24.5t-83 24.5t-33 72.5zM674 1617q0 48 32.5 72.5t82.5 24.5t83 -24.5t33 -72.5t-33 -72.5t-83 -24.5t-82.5 24.5t-32.5 72.5z" />
    <glyph glyph-name="uni04ED" unicode="&#x4ed;" horiz-adv-x="1005" 
d="M94 98l37 138h41q37 -39 123 -148q43 -16 127 -16q135 0 218 110.5t85 298.5l-406 -30q-23 55 0 110h406q-14 397 -299 397q-84 0 -104 -14l-91 -250h-51q-38 121 -55 273q55 31 131 56.5t189.5 25.5t197.5 -27t147 -88q132 -131 132 -402q0 -275 -146 -424
q-132 -133 -327 -133q-216 0 -355 123zM119 1359q0 48 30.5 77.5t79.5 29.5t80 -29.5t31 -77.5t-30.5 -77t-80.5 -29q-49 0 -79.5 29t-30.5 77zM574 1359q0 48 30.5 77.5t79.5 29.5t80 -29.5t31 -77.5t-31 -77t-80 -29t-79.5 29t-30.5 77z" />
    <glyph glyph-name="uni04EE" unicode="&#x4ee;" horiz-adv-x="1351" 
d="M0 1374v60h539v-60q-84 -34 -166 -51l340 -678l43 -131h4l41 135l268 674q-102 18 -174 51v60h457v-60q-70 -31 -148 -51l-401 -911q-92 -237 -174 -334q-96 -113 -207 -88q-31 47 -47.5 121.5t-18.5 99.5l31 51l211 -55q33 33 66 139l-510 977q-89 23 -154 51zM395 1614
v106h616v-106h-616z" />
    <glyph glyph-name="uni04EF" unicode="&#x4ef;" horiz-adv-x="1034" 
d="M-23 971v53h429v-51q-43 -29 -117 -51l262 -607l39 -127h4l31 129l194 605q-61 12 -112 49v53h350v-53q-43 -29 -117 -49l-319 -922q-128 -341 -272 -408q-46 -22 -99 -32q-34 58 -70 176l27 49h213q45 60 92 215l-426 922q-53 14 -109 49zM295 1305v106h518v-106h-518z
" />
    <glyph glyph-name="uni04F0" unicode="&#x4f0;" horiz-adv-x="1351" 
d="M0 1374v60h539v-60q-84 -34 -166 -51l340 -678l43 -131h4l41 135l268 674q-102 18 -174 51v60h457v-60q-70 -31 -148 -51l-401 -911q-92 -237 -174 -334q-96 -113 -207 -88q-31 47 -47.5 121.5t-18.5 99.5l31 51l211 -55q33 33 66 139l-510 977q-89 23 -154 51zM383 1617
q0 48 32.5 72.5t83 24.5t83 -24.5t32.5 -72.5t-32.5 -72.5t-82.5 -24.5t-83 24.5t-33 72.5zM840 1617q0 48 32.5 72.5t82.5 24.5t83 -24.5t33 -72.5t-33 -72.5t-83 -24.5t-82.5 24.5t-32.5 72.5z" />
    <glyph glyph-name="uni04F1" unicode="&#x4f1;" horiz-adv-x="1034" 
d="M-23 971v53h429v-51q-43 -29 -117 -51l262 -607l39 -127h4l31 129l194 605q-61 12 -112 49v53h350v-53q-43 -29 -117 -49l-319 -922q-128 -341 -272 -408q-46 -22 -99 -32q-34 58 -70 176l27 49h213q45 60 92 215l-426 922q-53 14 -109 49zM221 1359q0 48 30.5 77.5
t79.5 29.5t80 -29.5t31 -77.5t-30.5 -77t-80.5 -29q-49 0 -79.5 29t-30.5 77zM676 1359q0 48 30.5 77.5t79.5 29.5t80 -29.5t31 -77.5t-31 -77t-80 -29t-79.5 29t-30.5 77z" />
    <glyph glyph-name="uni04F2" unicode="&#x4f2;" horiz-adv-x="1351" 
d="M0 1374v60h539v-60q-84 -34 -166 -51l340 -678l43 -131h4l41 135l268 674q-102 18 -174 51v60h457v-60q-70 -31 -148 -51l-401 -911q-92 -237 -174 -334q-96 -113 -207 -88q-31 47 -47.5 121.5t-18.5 99.5l31 51l211 -55q33 33 66 139l-510 977q-89 23 -154 51zM481 1589
l143 230q18 3 66 -8q86 -19 98 -42v-28l-268 -189zM745 1585l236 234q49 7 139 -33q22 -10 33 -23l-2 -20l-363 -195z" />
    <glyph glyph-name="uni04F3" unicode="&#x4f3;" horiz-adv-x="1034" 
d="M-23 971v53h429v-51q-43 -29 -117 -51l262 -607l39 -127h4l31 129l194 605q-61 12 -112 49v53h350v-53q-43 -29 -117 -49l-319 -922q-128 -341 -272 -408q-46 -22 -99 -32q-34 58 -70 176l27 49h213q45 60 92 215l-426 922q-53 14 -109 49zM285 1257l158 316
q55 9 143 -26q22 -9 29 -17v-31l-283 -274zM524 1262l273 311q55 8 141 -32q23 -11 33 -25v-27l-408 -264z" />
    <glyph glyph-name="uni04F4" unicode="&#x4f4;" horiz-adv-x="1302" 
d="M18 1374v60h480v-60q-75 -36 -136 -51v-360q0 -314 252 -314q165 0 297 84v590q-54 15 -145 51v60h477v-60q-72 -35 -135 -51v-1214q83 -16 135 -50v-59h-520v59q83 39 188 50v526q-163 -92 -354 -92q-190 0 -281 75q-110 91 -110 306v399q-65 11 -148 51zM293 1617
q0 48 32.5 72.5t83 24.5t83 -24.5t32.5 -72.5t-32.5 -72.5t-82.5 -24.5t-83 24.5t-33 72.5zM750 1617q0 48 32.5 72.5t82.5 24.5t83 -24.5t33 -72.5t-33 -72.5t-83 -24.5t-82.5 24.5t-32.5 72.5z" />
    <glyph glyph-name="uni04F5" unicode="&#x4f5;" horiz-adv-x="1142" 
d="M31 971v53h440v-53q-49 -34 -121 -49v-246q0 -213 178 -213q105 0 215 63v396q-61 12 -120 49v53h440v-53q-55 -35 -135 -49v-822q88 -21 135 -49v-51h-483v51q84 35 163 49v367q-112 -121 -286 -121q-139 0 -215 78t-76 211v287q-78 14 -135 49zM215 1359
q0 48 30.5 77.5t79.5 29.5t80 -29.5t31 -77.5t-30.5 -77t-80.5 -29q-49 0 -79.5 29t-30.5 77zM670 1359q0 48 30.5 77.5t79.5 29.5t80 -29.5t31 -77.5t-31 -77t-80 -29t-79.5 29t-30.5 77z" />
    <glyph glyph-name="uni04F6" unicode="&#x4f6;" horiz-adv-x="1038" 
d="M59 0v59q82 33 168 50v1214q-75 15 -168 51v60h959q0 -249 -23 -414h-53l-106 307h-412v-1221h207q0 -104 -17.5 -239t-25.5 -176h-51l-86 309h-392z" />
    <glyph glyph-name="uni04F7" unicode="&#x4f7;" horiz-adv-x="880" 
d="M80 0v51q53 30 135 49v824q-76 12 -135 47v53h764q-5 -195 -25 -336h-53l-90 246h-277v-844h199q-10 -257 -23 -393h-51l-92 303h-352z" />
    <glyph glyph-name="uni04F8" unicode="&#x4f8;" horiz-adv-x="1728" 
d="M59 0v59q80 37 168 50v1214q-99 24 -168 51v60h545v-60q-90 -37 -180 -51v-469q129 14 206.5 14t170 -18.5t161.5 -65.5q154 -104 154 -338q0 -221 -170 -346q-146 -106 -366 -106l-256 6h-265zM424 109q23 -9 78 -9h67q143 0 235.5 86t92.5 252q0 324 -334 324
q-105 0 -139 -10v-643zM535 1617q0 48 32.5 72.5t83 24.5t83 -24.5t32.5 -72.5t-32.5 -72.5t-82.5 -24.5t-83 24.5t-33 72.5zM992 1617q0 48 32.5 72.5t82.5 24.5t83 -24.5t33 -72.5t-33 -72.5t-83 -24.5t-82.5 24.5t-32.5 72.5zM1149 0v59q55 27 160 50v1214
q-117 30 -160 51v60h520v-60q-68 -33 -164 -51v-1214q90 -14 164 -50v-59h-520z" />
    <glyph glyph-name="uni04F9" unicode="&#x4f9;" horiz-adv-x="1527" 
d="M80 0v51q53 30 135 49v822q-63 10 -135 49v53h442v-53q-47 -29 -123 -49v-316q35 4 78 10.5t125 6.5q154 0 247 -72t93 -225q0 -161 -112 -249q-109 -85 -289 -85l-271 8h-190zM399 88q81 -6 109 -6q231 0 231 246q0 204 -215 204q-84 0 -125 -8v-436zM432 1359
q0 48 30.5 77.5t79.5 29.5t80 -29.5t31 -77.5t-30.5 -77t-80.5 -29q-49 0 -79.5 29t-30.5 77zM887 1359q0 48 30.5 77.5t79.5 29.5t80 -29.5t31 -77.5t-31 -77t-80 -29t-79.5 29t-30.5 77zM1006 971v53h442v-53q-41 -26 -135 -49v-822q83 -24 135 -49v-51h-440v51
q73 35 120 49v822q-78 14 -122 49z" />
    <glyph glyph-name="uni04FC" unicode="&#x4fc;" horiz-adv-x="1372" 
d="M20 0v59q44 24 152 50l401 612l-385 602q-81 24 -161 51v60h542v-60q-79 -29 -157 -51l286 -463l281 463q-84 18 -170 51v60h471v-60q-83 -33 -156 -51l-358 -555q125 -184 213 -306t141.5 -211t78 -158.5t24.5 -154.5t-29 -155t-80 -118q-107 -101 -274 -97l-13 55
q96 41 147.5 101.5t51.5 171.5q0 94 -56 207q-105 216 -331 520l-313 -517q113 -16 166 -47v-59h-472z" />
    <glyph glyph-name="uni04FD" unicode="&#x4fd;" horiz-adv-x="1062" 
d="M20 0v51q57 35 115 49l305 408l-307 414q-60 21 -100 49v53h411v-51q-64 -41 -100 -51l213 -308l209 308q-70 23 -102 49v53h342v-53q-39 -27 -115 -49l-281 -373q41 -55 102.5 -130t119.5 -160q143 -207 143 -361t-94.5 -238t-270.5 -94l-10 57q111 35 151 98.5t40 153
t-35 167t-83 152t-97.5 138t-77.5 106.5l-230 -338q50 -17 103 -49v-51h-351z" />
    <glyph glyph-name="uni2000" unicode="&#x2000;" horiz-adv-x="915" 
 />
    <glyph glyph-name="uni2001" unicode="&#x2001;" horiz-adv-x="1830" 
 />
    <glyph glyph-name="uni2002" unicode="&#x2002;" horiz-adv-x="915" 
 />
    <glyph glyph-name="uni2003" unicode="&#x2003;" horiz-adv-x="1830" 
 />
    <glyph glyph-name="uni2004" unicode="&#x2004;" horiz-adv-x="610" 
 />
    <glyph glyph-name="uni2005" unicode="&#x2005;" horiz-adv-x="457" 
 />
    <glyph glyph-name="uni2006" unicode="&#x2006;" horiz-adv-x="305" 
 />
    <glyph glyph-name="uni2007" unicode="&#x2007;" horiz-adv-x="305" 
 />
    <glyph glyph-name="uni2008" unicode="&#x2008;" horiz-adv-x="228" 
 />
    <glyph glyph-name="uni2009" unicode="&#x2009;" horiz-adv-x="366" 
 />
    <glyph glyph-name="uni200A" unicode="&#x200a;" horiz-adv-x="101" 
 />
    <glyph glyph-name="uni2010" unicode="&#x2010;" horiz-adv-x="870" 
d="M145 512v129h578v-129h-578z" />
    <glyph glyph-name="uni2011" unicode="&#x2011;" horiz-adv-x="870" 
d="M145 512v129h578v-129h-578z" />
    <glyph glyph-name="figuredash" unicode="&#x2012;" horiz-adv-x="870" 
d="M145 512v129h578v-129h-578z" />
    <glyph glyph-name="endash" unicode="&#x2013;" horiz-adv-x="1282" 
d="M147 512v129h988v-129h-988z" />
    <glyph glyph-name="emdash" unicode="&#x2014;" horiz-adv-x="1814" 
d="M147 512v129h1520v-129h-1520z" />
    <glyph glyph-name="quoteleft" unicode="&#x2018;" horiz-adv-x="598" 
d="M150 1364q0 176 157 276q53 33 127 48l33 -70q-78 -25 -124 -74t-36 -127q49 -38 135 -67q16 -65 -26 -118q-40 -51 -88 -56q-72 6 -125 53t-53 135z" />
    <glyph glyph-name="quoteright" unicode="&#x2019;" horiz-adv-x="598" 
d="M117 971q80 25 132 84t42 137q-34 27 -135 67q-19 61 26 119q43 53 88 53q68 -6 123.5 -52t55.5 -136q0 -107 -80 -203q-86 -104 -217 -139z" />
    <glyph glyph-name="quotesinglbase" unicode="&#x201a;" horiz-adv-x="598" 
d="M117 -227q80 25 132 84t42 137q-34 27 -135 67q-19 61 26 119q43 53 88 53q68 -6 123.5 -52t55.5 -136q0 -107 -80 -203q-86 -104 -217 -139z" />
    <glyph glyph-name="quotedblleft" unicode="&#x201c;" horiz-adv-x="970" 
d="M150 1364q0 176 157 276q53 33 127 48l33 -70q-78 -25 -124 -74t-36 -127q49 -38 135 -67q16 -65 -26 -118q-40 -51 -88 -56q-72 6 -125 53t-53 135zM523 1364q0 176 157 276q53 33 127 48l33 -70q-78 -25 -124 -74t-36 -127q49 -38 135 -67q16 -65 -26 -118
q-40 -51 -88 -56q-72 6 -125 53t-53 135z" />
    <glyph glyph-name="quotedblright" unicode="&#x201d;" horiz-adv-x="970" 
d="M117 971q80 25 132 84t42 137q-34 27 -135 67q-19 61 26 119q43 53 88 53q68 -6 123.5 -52t55.5 -136q0 -107 -80 -203q-86 -104 -217 -139zM490 971q80 25 132 84t42 137q-34 27 -135 67q-19 61 26 119q43 53 88 53q68 -6 123.5 -52t55.5 -136q0 -107 -80 -203
q-86 -104 -217 -139z" />
    <glyph glyph-name="quotedblbase" unicode="&#x201e;" horiz-adv-x="970" 
d="M117 -227q80 25 132 84t42 137q-34 27 -135 67q-19 61 26 119q43 53 88 53q68 -6 123.5 -52t55.5 -136q0 -107 -80 -203q-86 -104 -217 -139zM490 -227q80 25 132 84t42 137q-34 27 -135 67q-19 61 26 119q43 53 88 53q68 -6 123.5 -52t55.5 -136q0 -107 -80 -203
q-86 -104 -217 -139z" />
    <glyph glyph-name="bullet" unicode="&#x2022;" horiz-adv-x="931" 
d="M178 634q0 66 22.5 119.5t61.5 91.5q83 81 205 81q124 0 203 -77q84 -82 84 -212t-84 -212q-79 -77 -203 -77q-126 0 -205 77q-84 82 -84 209z" />
    <glyph glyph-name="ellipsis" unicode="&#x2026;" horiz-adv-x="1810" 
d="M145 118q0 60 39 97t101.5 37t101.5 -37t39 -97t-39 -97t-101 -37t-101.5 37t-39.5 97zM763 118q0 60 39 97t101.5 37t101.5 -37t39 -97t-39 -97t-101 -37t-101.5 37t-39.5 97zM1384 118q0 60 39 97t101.5 37t101.5 -37t39 -97t-39 -97t-101 -37t-101.5 37t-39.5 97z" />
    <glyph glyph-name="uni202F" unicode="&#x202f;" horiz-adv-x="366" 
 />
    <glyph glyph-name="guilsinglleft" unicode="&#x2039;" horiz-adv-x="573" 
d="M49 530l352 420l50 -39l-215 -366l227 -387l-47 -41z" />
    <glyph glyph-name="guilsinglright" unicode="&#x203a;" horiz-adv-x="573" 
d="M111 158l227 377l-217 376l49 39l352 -418l-364 -413z" />
    <glyph glyph-name="uni205F" unicode="&#x205f;" horiz-adv-x="457" 
 />
    <glyph glyph-name="Euro" unicode="&#x20ac;" 
d="M-115 526l31 117h131q-2 18 -2 37v72q0 16 2 32h-162l31 115h141q38 278 213 425q159 134 408 134t391 -69q0 -151 -31 -353h-53l-106 295q-40 21 -196.5 21t-273 -107.5t-151.5 -345.5h619l-31 -115h-600v-106q0 -19 2 -35h559l-31 -117h-516q58 -321 292 -412
q81 -32 167 -32q160 0 190 37l97 254h53q26 -148 22 -314q-78 -63 -262 -79q-49 -5 -94 -5q-299 0 -463 137.5t-203 413.5h-174z" />
    <glyph glyph-name="trademark" unicode="&#x2122;" horiz-adv-x="2035" 
d="M82 1434h723q-5 -142 -29 -273h-53l-66 197h-127v-608q83 -24 103 -37v-47h-383v47q45 25 106 37v608h-129l-67 -197h-51q-23 150 -27 273zM860 666v47q51 27 103 37l26 583q-38 14 -100 51v50h336l143 -424l31 -109h6l31 111l153 422h334v-50q-54 -27 -102 -36l30 -598
q53 -10 103 -37v-47h-363v47q24 15 92 37l-30 591h-13l-241 -675h-70l-237 675h-13l-22 -591q55 -16 92 -37v-47h-289z" />
    <glyph glyph-name="uniE000" unicode="&#xe000;" horiz-adv-x="1024" 
d="M0 0v1024h1024v-1024h-1024z" />
    </font>
</defs>
</svg>
