<?xml version="1.0" encoding="UTF-8"?>
<svg width="113px" height="70px" viewBox="0 0 113 70" version="1.1" xmlns="http://www.w3.org/2000/svg" xmlns:xlink="http://www.w3.org/1999/xlink">
    <title>Group 16</title>
    <defs>
        <polygon id="path-1" points="0 0 51 0 51 52 0 52"></polygon>
        <polygon id="path-3" points="0 1 104 1 104 70 0 70"></polygon>
    </defs>
    <g id="Page-1" stroke="none" stroke-width="1" fill="none" fill-rule="evenodd">
        <g id="Single-Tour" transform="translate(-773.000000, -1307.000000)">
            <g id="Group-16" transform="translate(773.000000, 1307.000000)">
                <g id="Group-3" opacity="0.243527435" transform="translate(0.000000, 6.000000)">
                    <mask id="mask-2" fill="white">
                        <use xlink:href="#path-1"></use>
                    </mask>
                    <g id="Clip-2"></g>
                    <path d="M44.4497555,7.66021153 C51.0885426,16.9626079 55.2801856,41.0504675 43.9036677,49.1623509 C32.5290135,57.2760974 9.8933958,46.3416363 3.25460862,37.0392399 C-3.38417856,27.7349804 0.457073654,13.6165026 11.8317278,5.50648226 C23.206382,-2.60726424 37.8091045,-1.64218487 44.4497555,7.66021153" id="Fill-1" fill="#C4D63E" mask="url(#mask-2)"></path>
                </g>
                <g id="Group-6" transform="translate(8.000000, 0.000000)">
                    <mask id="mask-4" fill="white">
                        <use xlink:href="#path-3"></use>
                    </mask>
                    <g id="Clip-5"></g>
                    <path d="M35.2857143,66.2780705 L35.2857143,39.294082 C35.2857143,35.6968372 38.1958571,32.7807054 41.7857143,32.7807054 C45.3755714,32.7807054 48.2857143,35.6968372 48.2857143,39.294082 L48.2857143,66.2780705 L35.2857143,66.2780705 Z M19.4071429,24.8325251 L52,5.18259851 L84.5928571,24.8325251 L84.5928571,66.2780705 L52,66.2780705 L52,39.294082 C52,33.6404711 47.4277143,29.058776 41.7857143,29.058776 C36.1437143,29.058776 31.5714286,33.6404711 31.5714286,39.294082 L31.5714286,66.2780705 L19.4071429,66.2780705 L19.4071429,24.8325251 Z M50.7371429,1.53510764 L8.50571429,27.0675437 C7.55671429,27.4602073 7.10542857,28.5470107 7.49728571,29.4961027 C7.88728571,30.4470557 8.97371429,30.8992701 9.92085714,30.5084675 C10.0805714,30.4433337 10.2291429,30.3558684 10.3628571,30.2497934 L15.6371429,27.0675437 L15.6371429,66.2780705 L1.85714286,66.2780705 C0.832,66.2780705 0,67.1099218 0,68.1390353 C0,69.1662878 0.832,70 1.85714286,70 L102.142857,70 C103.168,70 104,69.1662878 104,68.1390353 C104,67.1099218 103.168,66.2780705 102.142857,66.2780705 L88.3071429,66.2780705 L88.3071429,27.0675437 L93.5814286,30.2497934 C93.8711429,30.428446 94.2072857,30.5270771 94.5471429,30.5289381 C95.5722857,30.5289381 96.4042857,29.6952259 96.4042857,28.6679734 C96.4042857,28.0110528 96.0588571,27.4025174 95.4942857,27.0675437 L55.6567143,2.07664838 C55.6567143,2.07664838 53.0455714,0.0705284035 50.7371429,1.53510764 L50.7371429,1.53510764 Z" id="Fill-4" fill="#153D34" mask="url(#mask-4)"></path>
                </g>
                <path d="M68.9,53 L84.1,53 C85.1488,53 86,52.1854545 86,51.1818182 L86,34.8181818 C86,33.8127273 85.1488,33 84.1,33 L68.9,33 C67.8512,33 67,33.8127273 67,34.8181818 L67,51.1818182 C67,52.1854545 67.8512,53 68.9,53" id="Fill-7" fill="#153D34" opacity="0.346974927"></path>
            </g>
        </g>
    </g>
</svg>