<?xml version="1.0" encoding="UTF-8"?>
<svg width="28px" height="17px" viewBox="0 0 28 17" version="1.1" xmlns="http://www.w3.org/2000/svg" xmlns:xlink="http://www.w3.org/1999/xlink">
    <title>noun_message_2600427</title>
    <g id="Page-1" stroke="none" stroke-width="1" fill="none" fill-rule="evenodd">
        <g id="Bio-pop-up" transform="translate(-474.000000, -518.000000)" fill="#163D34" fill-rule="nonzero">
            <g id="noun_message_2600427" transform="translate(474.000000, 518.500000)">
                <path d="M0,0.5 L0,15.5 L28,15.5 L28,0.5 L0,0.5 Z M7.56080996,7.97397641 C7.42699032,8.20645385 7.23013457,8.52567661 6.97270784,8.89347675 C6.46208024,9.62907703 5.7014212,10.5346981 4.86680921,11.3674532 C4.03571878,12.203678 3.12715382,12.9670368 2.39114577,13.4840389 C2.02138096,13.740805 1.70091812,13.9455239 1.46849453,14.0808466 C1.2395925,14.2161693 1.09872972,14.2820958 1.09872972,14.2820958 C1.09872972,14.2820958 1.16211797,14.1398334 1.29593762,13.9108258 C1.42975726,13.6783484 1.62696516,13.3591256 1.88403974,12.9913255 C2.39818891,12.259195 3.15532637,11.3535739 3.98993837,10.5173491 C4.8210288,9.68112422 5.72607219,8.91776544 6.46208024,8.40076336 C6.83219721,8.14052741 7.15230789,7.93927828 7.38473148,7.80395559 C7.61715507,7.66863289 7.75837002,7.60270645 7.75837002,7.60270645 C7.75837002,7.60270645 7.69462961,7.74496877 7.56080996,7.97397641 Z M17.0479185,7.97050659 C16.5478556,8.31401804 16.0407496,8.64712006 15.5371651,8.98716169 L14.0190165,9.99687717 L13.6774242,10.2258848 L13.335832,9.99687717 L11.821557,8.98369188 C11.3176204,8.64712006 10.8108666,8.31401804 10.3108037,7.97050659 C9.31419947,7.27307425 8.30703056,6.59646079 7.32099107,5.8851492 C6.82797132,5.5277585 6.33143001,5.18077724 5.84193183,4.81991672 L4.3734373,3.73733518 C3.89098227,3.36606523 3.40500566,3.00520472 2.92607219,2.63046495 C2.44396931,2.25572519 1.96820526,1.87751561 1.49631493,1.4888966 C2.03863665,1.76995142 2.58095837,2.05794587 3.11271538,2.34941013 C3.64834612,2.64087439 4.17658156,2.9462179 4.70798642,3.24462179 L6.28917117,4.16065232 C6.81353289,4.46599584 7.33155578,4.7852186 7.85239593,5.09750173 C8.8983021,5.7185982 9.92307886,6.37439278 10.9552509,7.01630812 C11.4729216,7.33553088 11.9796755,7.67210271 12.4903031,7.99826509 L13.6770721,8.76509368 L14.8673626,7.99826509 C15.3779902,7.67210271 15.8854484,7.33553088 16.4027669,7.01283831 C17.4345868,6.37439278 18.455842,5.71512838 19.5052698,5.09750173 C20.0264621,4.7852186 20.5441328,4.46599584 21.0688467,4.16065232 L22.6500314,3.24115198 C23.1817885,2.9462179 23.7100239,2.64087439 24.2449503,2.34941013 C24.7770595,2.05447606 25.3193812,1.76995142 25.8617029,1.4888966 C25.3894604,1.87751561 24.9144007,2.259195 24.4351151,2.63046495 C23.95266,3.00520472 23.4666834,3.36953505 22.9842284,3.73733518 L21.5157339,4.82338654 C21.0297573,5.18424705 20.5296944,5.53122831 20.0370268,5.8851492 C19.0552132,6.5999306 18.0445227,7.27654407 17.0479185,7.97050659 Z M26.5068545,14.0808466 C26.274783,13.9455239 25.9507986,13.7442748 25.5806817,13.4840389 C24.8379826,12.9670368 23.9220224,12.203678 23.0771978,11.370923 C22.2351905,10.5346981 21.464319,9.62907703 20.9466482,8.89347675 C20.6860521,8.52567661 20.481801,8.20645385 20.3479814,7.97397641 C20.2141617,7.74496877 20.1472519,7.60270645 20.1472519,7.60270645 C20.1472519,7.60270645 20.2881147,7.66863289 20.5205383,7.80395559 C20.7568356,7.93927828 21.08082,8.14052741 21.4505848,8.39729355 C22.1971576,8.91429563 23.1092441,9.67765441 23.9508993,10.5138793 C24.796076,11.3501041 25.5637781,12.2557252 26.0853226,12.9913255 C26.3455666,13.3591256 26.5466482,13.6783484 26.6801157,13.9108258 C26.8178091,14.1398334 26.8843667,14.2820958 26.8843667,14.2820958 C26.8843667,14.2820958 26.7427996,14.2161693 26.5068545,14.0808466 Z" id="Shape"></path>
            </g>
        </g>
    </g>
</svg>