<svg xmlns="http://www.w3.org/2000/svg" xmlns:xlink="http://www.w3.org/1999/xlink" width="223" height="58.182" viewBox="0 0 223 58.182">
  <defs>
    <clipPath id="clip-path">
      <path id="Clip_18" data-name="Clip 18" d="M0,0H4.792V4.791H0Z" transform="translate(0.481 0.82)" fill="none"/>
    </clipPath>
    <clipPath id="clip-path-2">
      <path id="Clip_55" data-name="Clip 55" d="M0,58H223V0H0Z" transform="translate(0 1)" fill="none"/>
    </clipPath>
  </defs>
  <g id="Group_63" data-name="Group 63" transform="translate(0 -0.82)">
    <path id="Fill_1" data-name="Fill 1" d="M6.21,22H.007C1.1,18.42.974,14.776.97,11.141c0-3.619.137-7.246-.97-10.825H5.313V3.759c.328-.065.41-.321.548-.49C7.948.7,10.551-.479,13.779.179a6.329,6.329,0,0,1,5.175,6.308c.067,1.8.06,3.6.039,5.4A32.357,32.357,0,0,0,20,21.974H13.777c.2-1.022.4-2.018.588-3.016a17.881,17.881,0,0,0,.32-3.242q.007-3.832,0-7.665c0-.089,0-.178,0-.267C14.572,4.065,11.8,2.087,8.4,3.3A8.531,8.531,0,0,0,5.575,5.1a.773.773,0,0,0-.241.647C5.34,9.373,5.309,13,5.361,16.617a22.482,22.482,0,0,0,.7,4.595c.053.238.091.477.15.788" transform="translate(140 9)" fill="#fff"/>
    <path id="Fill_3" data-name="Fill 3" d="M13.817,0h5.225a1.654,1.654,0,0,1,.081.815c0,4.513.029,9.026-.007,13.54a26.892,26.892,0,0,0,.752,6.5c.056.229.085.467.132.736H15.564c-.39-1.125-.424-2.348-.733-3.629a16.223,16.223,0,0,1-1.614,1.828A7.417,7.417,0,0,1,5.341,21.54c-2.57-.864-3.856-2.852-4.227-5.516A34.647,34.647,0,0,1,1,11.45C.968,7.632,1.257,3.79,0,.011H5.282c.184.217.1.494.1.748q.009,6.47,0,12.943a8.645,8.645,0,0,0,.185,1.975c.595,2.554,2.888,3.828,5.616,3.11a8.819,8.819,0,0,0,3.339-1.842.653.653,0,0,0,.224-.58C14.73,13,14.731,9.639,14.708,6.279a27.315,27.315,0,0,0-.83-5.893c-.025-.1-.035-.211-.062-.386" transform="translate(100 10)" fill="#fff"/>
    <path id="Fill_5" data-name="Fill 5" d="M10.758,22a13.514,13.514,0,0,1-2.074-.167,9.72,9.72,0,0,1-6.37-3.62A12.5,12.5,0,0,1,0,10.512,10,10,0,0,1,3.724,2.368,10.487,10.487,0,0,1,10.274,0a12.183,12.183,0,0,1,4.764,1.04c3.568,1.519,5.555,4.484,5.907,8.814a11.275,11.275,0,0,1-1.9,7.822A9.773,9.773,0,0,1,10.758,22ZM10.469,1.558h0A4.422,4.422,0,0,0,6.924,3.475,8.4,8.4,0,0,0,5.668,5.966a16.718,16.718,0,0,0-.607,7.226,10.745,10.745,0,0,0,1.992,5.513,4.277,4.277,0,0,0,3.4,1.8,4.34,4.34,0,0,0,3.254-1.577,6.917,6.917,0,0,0,1.035-1.573,14.623,14.623,0,0,0,1.311-6.66A11.892,11.892,0,0,0,15.9,8.49a10.762,10.762,0,0,0-1.957-5.113A4.418,4.418,0,0,0,10.47,1.559Z" transform="translate(77 9)" fill="#fff"/>
    <path id="Fill_7" data-name="Fill 7" d="M10.068,22c-.246,0-.5-.01-.742-.03a9.493,9.493,0,0,1-8.65-6.933C-.635,10.593-.028,6.7,2.481,3.469A9.472,9.472,0,0,1,9.978,0a8.98,8.98,0,0,1,4.716,1.276A8.93,8.93,0,0,1,18.683,7.33,13.612,13.612,0,0,1,18.906,8.9c.024.229.048.465.077.7a.733.733,0,0,1-.087.587c-.1.113-.272.161-.579.161h-.009c-1.914-.011-4-.016-6.556-.016l-4.313,0-1.812,0c-.06,0-.121,0-.18-.006s-.121-.006-.182-.006a.89.89,0,0,0-.388.074c-.09,3.577,1.615,7.738,5.574,8.418a8.747,8.747,0,0,0,1.479.129,9.128,9.128,0,0,0,5.856-2.268c.326-.262.659-.523.954-.753a.012.012,0,0,1,.008,0,.14.14,0,0,1,.032.007c.014,0,.032.009.055.014a1.054,1.054,0,0,1-.185.567c-.024.043-.047.085-.069.128A9.583,9.583,0,0,1,10.068,22ZM9.832,1.511a3.957,3.957,0,0,0-2.742,1.12C5.249,4.393,4.951,6.743,4.788,9.2l.6-.043,1.2-.086c2.016-.149,4.052-.3,6.02-.442l1.448-.106c.26-.019.456-.062.434-.411A10.2,10.2,0,0,0,13.352,3.6,4.032,4.032,0,0,0,9.832,1.511Z" transform="translate(163 9)" fill="#fff"/>
    <path id="Fill_9" data-name="Fill 9" d="M16,0c0,7.669,0,15.3,0,22.921a10.384,10.384,0,0,1-.548,3.2,6.75,6.75,0,0,1-6.66,4.862,18.7,18.7,0,0,1-8.4-1.813A.539.539,0,0,1,0,28.632q.007-3.42,0-6.853c.427-.171.485.2.609.415a25.114,25.114,0,0,0,3.3,4.748A7.035,7.035,0,0,0,6.46,28.827a2.98,2.98,0,0,0,3.967-1.439,7.015,7.015,0,0,0,.7-3.226q.039-11.477.024-22.957A10.2,10.2,0,0,0,11.011,0Z" transform="translate(57 9)" fill="#fff"/>
    <path id="Fill_11" data-name="Fill 11" d="M7.7,0a8.927,8.927,0,0,0-.329,3.255,6.956,6.956,0,0,0,.485,2.03q2.221,5.27,4.455,10.534c.042.1.1.191.156.3.277-.106.278-.382.359-.586q1.919-4.9,3.817-9.808c.675-1.745.715-3.121.177-5.714h4.141c.07.088.033.186-.026.283a53.814,53.814,0,0,0-3.915,8.755Q13.9,17.053,10.759,25.058a15.382,15.382,0,0,1-.67,1.488,5.708,5.708,0,0,1-7.1,3.186c-1.865-.492-1.868-.493-1.47-2.371.184-.87.379-1.737.586-2.684.413.337.75.627,1.1.894a6.454,6.454,0,0,0,2.035,1.088,2.966,2.966,0,0,0,3.8-1.57A27.315,27.315,0,0,0,10.2,22.246a.675.675,0,0,0-.051-.564C7.47,15.58,5,9.384,2.142,3.362A17.919,17.919,0,0,0,0,0Z" transform="translate(183 10)" fill="#fff"/>
    <path id="Fill_13" data-name="Fill 13" d="M.433,15c.482.523.96,1.049,1.45,1.566A13.541,13.541,0,0,0,6.158,19.88a5.238,5.238,0,0,0,4.135.192A3.04,3.04,0,0,0,12.4,17.427a2.953,2.953,0,0,0-1.543-3A25.4,25.4,0,0,0,6.232,12.46a19.487,19.487,0,0,1-3.717-1.788,5.493,5.493,0,0,1,.448-9.484A10.78,10.78,0,0,1,9.407.081,18.037,18.037,0,0,1,14.74,1.52a.7.7,0,0,1,.523.76c-.027,1.366-.009,2.735-.009,4.118-.36-.01-.444-.27-.59-.435a14.947,14.947,0,0,0-4.412-3.771,5.485,5.485,0,0,0-4.436-.328A2.809,2.809,0,0,0,4,5.664a3.413,3.413,0,0,0,1.7,1.542,45.252,45.252,0,0,0,4.522,1.714,17.656,17.656,0,0,1,3.124,1.536c3.865,2.41,3.344,8.367-.435,10.4A10.3,10.3,0,0,1,6.4,21.866,21.678,21.678,0,0,1,.79,20.2a.717.717,0,0,1-.516-.775c.025-1.455.009-2.913.009-4.37.05-.022.1-.041.149-.061" transform="translate(207 9)" fill="#fff"/>
    <path id="Fill_15" data-name="Fill 15" d="M0,.433H5.292V3.749l.129.056c.174-.232.349-.461.525-.691A7.042,7.042,0,0,1,13.214.135c.633.112.893.273.746,1.016-.272,1.375-.4,2.778-.586,4.162-.388.034-.539-.224-.742-.372a5.517,5.517,0,0,0-6.694-.266,1.374,1.374,0,0,0-.645,1.26c.035,3,.047,6.009.006,9.014A25.676,25.676,0,0,0,6.072,21.3c.051.212.078.432.124.7H0A65.12,65.12,0,0,0,0,.433" transform="translate(124 9)" fill="#fff"/>
    <g id="Group_19" data-name="Group 19" transform="translate(67)">
      <path id="Clip_18-2" data-name="Clip 18" d="M0,0H4.792V4.791H0Z" transform="translate(0.481 0.82)" fill="none"/>
      <g id="Group_19-2" data-name="Group 19" clip-path="url(#clip-path)">
        <path id="Fill_17" data-name="Fill 17" d="M4.792,2.4A2.4,2.4,0,1,1,2.4,0a2.395,2.395,0,0,1,2.4,2.4" transform="translate(0.481 0.819)" fill="#fff"/>
      </g>
    </g>
    <path id="Fill_20" data-name="Fill 20" d="M1.868,21.418a11.957,11.957,0,0,0,3.254,3.667,13.65,13.65,0,0,0,2.647,1.539,15.04,15.04,0,0,0,3.615,1.088,21.087,21.087,0,0,0,5.417.2,19.679,19.679,0,0,0,3.923-.754,17.711,17.711,0,0,0,4.039-1.849A.426.426,0,0,0,25,24.882c-.008-1.731,0-3.463-.006-5.2a.447.447,0,0,0-.03-.27c-.5-.061-.5-.062-.652.4A11.687,11.687,0,0,1,22.151,23.8a8.175,8.175,0,0,1-3.506,2.464,10.6,10.6,0,0,1-5.687.449,8.066,8.066,0,0,1-3.72-1.757,9.918,9.918,0,0,1-2.68-3.732,16.005,16.005,0,0,1-1.214-5.013,24.448,24.448,0,0,1,.043-4.779,15.873,15.873,0,0,1,.752-3.49A11.7,11.7,0,0,1,8.381,3.923a8.068,8.068,0,0,1,3.476-2.335,9.5,9.5,0,0,1,4.184-.424A9.279,9.279,0,0,1,21.752,3.9a9.885,9.885,0,0,1,1.94,2.825c.2.438.378.889.561,1.334h.493V7.813c0-1.755,0-3.512,0-5.267a.316.316,0,0,0-.209-.335,22.307,22.307,0,0,0-4.33-1.6A21.729,21.729,0,0,0,15.965.024a21.067,21.067,0,0,0-4.188.212,16,16,0,0,0-4.092,1.2A12.55,12.55,0,0,0,2.9,5.077a13.263,13.263,0,0,0-2.773,6.8,16.891,16.891,0,0,0,.085,4.765,14.021,14.021,0,0,0,1.654,4.774" transform="translate(32 1)" fill="#fff"/>
    <path id="Fill_22" data-name="Fill 22" d="M28.8,16.989h0a.259.259,0,0,0-.042-.15H23.722a.719.719,0,0,0-.026.32A11.6,11.6,0,0,0,26.787,25.2c0,.019,0,.04,0,.058,0,.128.718,1.711-4.323,3.672a15.984,15.984,0,0,1-7.891.812,8.96,8.96,0,0,1-5.027-2.583,11.343,11.343,0,0,1-2.263-3.517,17.778,17.778,0,0,1-1.31-5.618,29.828,29.828,0,0,1-.071-3.513A19.731,19.731,0,0,1,6.918,8.664,12.933,12.933,0,0,1,9,4.77a9.178,9.178,0,0,1,4.584-3.106A10.818,10.818,0,0,1,18.648,1.4a10.425,10.425,0,0,1,4.645,2.092,10.976,10.976,0,0,1,3.018,3.694,15.312,15.312,0,0,1,.695,1.575c.031.084.035.221.182.218s.325,0,.462,0c.03-.036.041-.044.041-.048q.005-3.1.011-6.206a.219.219,0,0,0-.154-.213,25.56,25.56,0,0,0-2.429-1.059A23.994,23.994,0,0,0,17.018,0a22.741,22.741,0,0,0-4.628.4A16.417,16.417,0,0,0,5.734,3.229,13.434,13.434,0,0,0,1.215,9.054,16.938,16.938,0,0,0,0,15.953a18.309,18.309,0,0,0,.5,3.988A14.623,14.623,0,0,0,2.864,25.19a13.864,13.864,0,0,0,6.147,4.7,17.752,17.752,0,0,0,5.178,1.192,25.218,25.218,0,0,0,6.044-.193A16.485,16.485,0,0,0,25.6,29.129a10.691,10.691,0,0,0,2.973-2.279c4.7,3.7,11.882,5.15,17.4,5.15C53.675,32,57,28.92,57,28.92V27.134s-3.117,3.22-11.129,3.22S30.056,25.137,28.8,16.989" transform="translate(0 1)" fill="#fff"/>
    <path id="Fill_24" data-name="Fill 24" d="M2.693,8H0V0H2.658C5.255,0,7,1.612,7,4.011,7,6.434,5.309,8,2.693,8ZM1.424,1.216V6.783H2.613A2.724,2.724,0,0,0,5.53,4.011a2.7,2.7,0,0,0-2.847-2.8Z" transform="translate(22 51)" fill="#c4d63e"/>
    <path id="Fill_26" data-name="Fill 26" d="M1.366,8H0V0H2.96A2.432,2.432,0,0,1,5.706,2.591,2.314,2.314,0,0,1,3.922,5.013L6,8,4.361,8,2.441,5.149H1.366V8Zm0-6.785V3.921h1.3c1.019,0,1.627-.505,1.627-1.352s-.56-1.354-1.537-1.354Z" transform="translate(32 51)" fill="#c4d63e"/>
    <path id="Fill_28" data-name="Fill 28" d="M0,0H5.732V1.216H1.551V3.425H4.923V4.642H1.551v2.14H6V8H0Z" transform="translate(39 51)" fill="#c4d63e"/>
    <path id="Fill_30" data-name="Fill 30" d="M1.553,8H0L3.266,0H4.721L8,8H6.447L5.781,6.277H2.207L1.553,8ZM3.982,1.632,2.662,5.1H5.338L4.007,1.632H3.982Z" transform="translate(46 51)" fill="#c4d63e"/>
    <path id="Fill_32" data-name="Fill 32" d="M0,0H1.53L4.488,4.789h.024L7.471,0H9V8H7.471V2.647H7.446L4.994,6.456h-1L1.543,2.647H1.53V8H0Z" transform="translate(55 51)" fill="#c4d63e"/>
    <path id="Fill_34" data-name="Fill 34" d="M0,1.007A1.011,1.011,0,0,1,1.008,0,1.008,1.008,0,0,1,2,1.007a1,1,0,0,1-2,0" transform="translate(66 57)" fill="#c4d63e"/>
    <path id="Fill_36" data-name="Fill 36" d="M0,0H5.732V1.216H1.55V3.425H4.924V4.642H1.55v2.14H6V8H0Z" transform="translate(73 51)" fill="#c4d63e"/>
    <path id="Fill_38" data-name="Fill 38" d="M2.979,3.988.063,0H1.85L4.006,2.952h.011L6.174,0H7.923L5.007,3.988,8,8H6.2L3.993,5.048H3.966L1.776,8H0Z" transform="translate(80 51)" fill="#c4d63e"/>
    <path id="Fill_40" data-name="Fill 40" d="M1.453,8H0V0H3.084C4.937,0,6,.944,6,2.591,6,4.217,4.876,5.149,2.916,5.149H1.453V8Zm0-6.784V3.921H2.774c1.1,0,1.726-.493,1.726-1.352S3.91,1.216,2.881,1.216Z" transform="translate(90 51)" fill="#c4d63e"/>
    <path id="Fill_42" data-name="Fill 42" d="M0,0H1.345V6.782H5V8H0Z" transform="translate(98 51)" fill="#c4d63e"/>
    <path id="Fill_44" data-name="Fill 44" d="M4.507,9A4.518,4.518,0,0,1,1.251,7.721,4.527,4.527,0,0,1,0,4.5,4.525,4.525,0,0,1,1.251,1.278,4.519,4.519,0,0,1,4.507,0,4.525,4.525,0,0,1,7.718,1.241,4.446,4.446,0,0,1,9,4.5,4.508,4.508,0,0,1,7.718,7.754,4.52,4.52,0,0,1,4.507,9Zm0-7.6A2.922,2.922,0,0,0,1.569,4.5a2.93,2.93,0,1,0,5.85,0A2.943,2.943,0,0,0,4.507,1.4Z" transform="translate(104 50)" fill="#c4d63e"/>
    <path id="Fill_46" data-name="Fill 46" d="M1.367,8H0V0H2.961A2.431,2.431,0,0,1,5.705,2.591,2.313,2.313,0,0,1,3.921,5.013L6,8,4.361,8,2.441,5.149H1.367V8Zm0-6.785V3.921h1.3c1.019,0,1.627-.505,1.627-1.352s-.56-1.354-1.537-1.354Z" transform="translate(114 51)" fill="#c4d63e"/>
    <path id="Fill_48" data-name="Fill 48" d="M0,0H5.732V1.216H1.552V3.425h3.37V4.642H1.552v2.14H6V8H0Z" transform="translate(122 51)" fill="#c4d63e"/>
    <path id="Fill_50" data-name="Fill 50" d="M0,1.007A1.011,1.011,0,0,1,1.008,0,1.008,1.008,0,0,1,2,1.007a1,1,0,0,1-2,0" transform="translate(129 57)" fill="#c4d63e"/>
    <path id="Fill_52" data-name="Fill 52" d="M2.694,8H0V0H2.659C5.255,0,7,1.612,7,4.011,7,6.434,5.31,8,2.694,8ZM1.422,1.216V6.783h1.19A2.724,2.724,0,0,0,5.53,4.011a2.7,2.7,0,0,0-2.847-2.8Z" transform="translate(137 51)" fill="#c4d63e"/>
    <path id="Clip_55-2" data-name="Clip 55" d="M0,58H223V0H0Z" transform="translate(0 1)" fill="none"/>
    <g id="Mask_Group_5" data-name="Mask Group 5" clip-path="url(#clip-path-2)">
      <path id="Fill_54" data-name="Fill 54" d="M0,8H1V0H0Z" transform="translate(146 51)" fill="#c4d63e"/>
      <path id="Fill_56" data-name="Fill 56" d="M0,7.612.908,6.459A2.876,2.876,0,0,0,3.084,7.612c.932,0,1.41-.422,1.41-1.067,0-.768-.561-1.015-1.638-1.413C1.566,4.662.286,4.067.286,2.454A2.577,2.577,0,0,1,2.977,0,4.373,4.373,0,0,1,5.786,1.079L4.925,2.257a3.181,3.181,0,0,0-1.947-.906,1.075,1.075,0,0,0-1.2,1.03c-.011.642.562.867,1.591,1.275C4.83,4.252,6,4.662,6,6.359A2.709,2.709,0,0,1,3.072,9,4.141,4.141,0,0,1,0,7.612" transform="translate(149 50)" fill="#c4d63e"/>
      <path id="Fill_57" data-name="Fill 57" d="M0,4.538A4.265,4.265,0,0,1,4.463,0a4.493,4.493,0,0,1,3.51,1.691l-1.114.932a2.994,2.994,0,0,0-2.4-1.206A2.866,2.866,0,0,0,1.58,4.538,2.861,2.861,0,0,0,4.488,7.6,3.075,3.075,0,0,0,6.883,6.389L8,7.335A4.415,4.415,0,0,1,4.488,9,4.253,4.253,0,0,1,0,4.538" transform="translate(157 50)" fill="#c4d63e"/>
      <path id="Fill_58" data-name="Fill 58" d="M4.507,9A4.518,4.518,0,0,1,1.251,7.721,4.527,4.527,0,0,1,0,4.5,4.525,4.525,0,0,1,1.251,1.278,4.519,4.519,0,0,1,4.507,0,4.525,4.525,0,0,1,7.718,1.241,4.446,4.446,0,0,1,9,4.5,4.508,4.508,0,0,1,7.718,7.754,4.52,4.52,0,0,1,4.507,9Zm0-7.6A2.922,2.922,0,0,0,1.569,4.5a2.93,2.93,0,1,0,5.85,0A2.943,2.943,0,0,0,4.507,1.4Z" transform="translate(166 50)" fill="#c4d63e"/>
      <path id="Fill_59" data-name="Fill 59" d="M0,0H1.632L4.005,6.039h.014L6.38,0H8L4.671,8H3.329Z" transform="translate(175 51)" fill="#c4d63e"/>
      <path id="Fill_60" data-name="Fill 60" d="M0,0H5.73V1.216H1.552V3.425h3.37V4.642H1.552v2.14H6V8H0Z" transform="translate(184 51)" fill="#c4d63e"/>
      <path id="Fill_61" data-name="Fill 61" d="M1.366,8H0V0H2.96A2.432,2.432,0,0,1,5.706,2.591,2.314,2.314,0,0,1,3.922,5.013L6,8,4.361,8,2.441,5.149H1.366V8Zm0-6.785V3.921h1.3c1.019,0,1.627-.505,1.627-1.352s-.56-1.354-1.537-1.354Z" transform="translate(192 51)" fill="#c4d63e"/>
      <path id="Fill_62" data-name="Fill 62" d="M0,1.007A1.011,1.011,0,0,1,1.007,0,1.009,1.009,0,0,1,2,1.007a1,1,0,0,1-2,0" transform="translate(199 57)" fill="#c4d63e"/>
    </g>
  </g>
</svg>
