<?xml version="1.0" encoding="UTF-8"?>
<svg width="69px" height="85px" viewBox="0 0 69 85" version="1.1" xmlns="http://www.w3.org/2000/svg" xmlns:xlink="http://www.w3.org/1999/xlink">
    <title>Group 17</title>
    <defs>
        <polygon id="path-1" points="0 0 52 0 52 53 0 53"></polygon>
    </defs>
    <g id="Page-1" stroke="none" stroke-width="1" fill="none" fill-rule="evenodd">
        <g id="Single-Tour" transform="translate(-351.000000, -1300.000000)">
            <g id="Group-17" transform="translate(351.000000, 1302.000000)">
                <g id="Group-3-Copy" opacity="0.243527435" transform="translate(0.000000, 30.000000)">
                    <mask id="mask-2" fill="white">
                        <use xlink:href="#path-1"></use>
                    </mask>
                    <g id="Clip-2"></g>
                    <path d="M45.3213193,7.80752329 C52.0902788,17.2888119 56.3641109,41.8398996 44.7645239,50.1077808 C33.1668373,58.3775608 10.087384,47.2328216 3.31842448,37.751533 C-3.450535,28.2683454 0.466035883,13.8783584 12.0637225,5.61237615 C23.6614091,-2.65740394 38.5504595,-1.67376534 45.3213193,7.80752329" id="Fill-1" fill="#C4D63E" mask="url(#mask-2)"></path>
                </g>
                <g id="Group-15" transform="translate(23.000000, 0.000000)">
                    <path d="M7,29.4061037 C7,30.2331773 7.16184779,31.0602509 7.48554338,32.0527392 C9.58956469,39.9926456 17.5201066,44.6242576 25.2888006,42.4738663 C33.0574947,40.323475 37.5892329,32.2181539 35.4852116,24.2782475 C34.6759727,21.3007826 33.0574947,18.8195619 30.9534734,17 L7,29.4061037 Z" id="Stroke-4" stroke="#153D34" stroke-width="3.506"></path>
                    <path d="M41.4004652,76.9995881 L16.2739247,76.5776402 C14.913025,76.5566236 13.8155774,75.6335116 13.7767869,74.4856839 L13.0009771,50.6739189 C12.9638028,49.5309412 13.9917509,48.5625627 15.3397204,48.4687965 L36.3447712,47.0073371 C37.670113,46.9151876 38.8580717,47.7008837 39.0698032,48.8099115 L43.9671026,74.5050838 C44.2192408,75.8291273 42.989259,77.0254547 41.4004652,76.9995881 Z" id="Stroke-6" stroke="#153D34" stroke-width="3.384"></path>
                    <path d="M26,6.7865751 L1.13669205,19 L0.167991742,17.1210116 C-0.154908361,16.4946821 0.00654169049,15.8683526 0.490891845,15.3986055 L20.1877981,0.365132084 C20.9950484,-0.259631574 22.2866488,-0.103049204 22.932449,0.99302739 L26,6.7865751 Z" id="Stroke-8" stroke="#153D34" stroke-width="3.506"></path>
                    <g id="Group-14" opacity="0.449672965" transform="translate(2.000000, 9.000000)">
                        <path d="M1.55318087,16.7580684 C1.06796348,16.7580684 0.744485217,16.4366138 0.421006957,16.1151593 C0.0975286957,15.4722502 0.421006957,14.8293411 0.906224348,14.5078865 L29.2105722,0.203159273 C29.8575287,-0.118295273 30.5044852,0.203159273 30.8279635,0.685341091 C31.1514417,1.32825018 30.8279635,1.97115927 30.3427461,2.29261382 L2.20013739,16.5973411 C2.03839826,16.7580684 1.87665913,16.7580684 1.55318087,16.7580684" id="Fill-10" fill="#153D34"></path>
                        <path d="M1.55318087,16.7580684 C1.06796348,16.7580684 0.744485217,16.4366138 0.421006957,16.1151593 C0.0975286957,15.4722502 0.421006957,14.8293411 0.906224348,14.5078865 L29.2105722,0.203159273 C29.8575287,-0.118295273 30.5044852,0.203159273 30.8279635,0.685341091 C31.1514417,1.32825018 30.8279635,1.97115927 30.3427461,2.29261382 L2.20013739,16.5973411 C2.03839826,16.7580684 1.87665913,16.7580684 1.55318087,16.7580684 Z" id="Stroke-12" stroke="#153D34" stroke-width="3"></path>
                    </g>
                </g>
            </g>
        </g>
    </g>
</svg>