<?xml version="1.0" encoding="utf-8"?>
<!-- Generator: Adobe Illustrator 23.0.2, SVG Export Plug-In . SVG Version: 6.00 Build 0)  -->
<svg version="1.1" id="Layer_1" xmlns="http://www.w3.org/2000/svg" xmlns:xlink="http://www.w3.org/1999/xlink" x="0px" y="0px"
	 viewBox="0 0 15 15" style="enable-background:new 0 0 15 15;" xml:space="preserve">
<style type="text/css">
	.st0{fill:none;}
	.st1{fill:#5E9DA1;}
</style>
<title>Group 20</title>
<g id="Symbols">
	<g id="Footer" transform="translate(-241.000000, -195.000000)">
		<g id="Group-20" transform="translate(241.000000, 195.000000)">
			<rect id="Rectangle-Copy-72" class="st0" width="15" height="15"/>
			<path id="Combined-Shape" class="st1" d="M11,5.2c2.1,0,3.6,1.3,3.6,4.2l0,0l0,5.4h-3.1v-5c0-1.3-0.5-2.1-1.6-2.1
				C9,7.6,8.5,8.2,8.3,8.8C8.2,9,8.2,9.3,8.2,9.5l0,0v5.3H5.1l0,0l0-0.1c0-0.5,0-3.2,0-5.6l0-1.6c0-1.1,0-1.9,0-2.1l0,0h3.1v1.3
				C8.6,6.1,9.4,5.2,11,5.2z M3.3,5.4v9.4H0.2V5.4H3.3z M1.8,0.8c1.1,0,1.7,0.7,1.8,1.6c0,0.9-0.7,1.6-1.8,1.6l0,0h0
				C0.7,4.1,0,3.4,0,2.5C0,1.5,0.7,0.8,1.8,0.8z"/>
		</g>
	</g>
</g>
</svg>
