<?xml version="1.0" encoding="UTF-8"?>
<svg width="15px" height="15px" viewBox="0 0 15 15" version="1.1" xmlns="http://www.w3.org/2000/svg" xmlns:xlink="http://www.w3.org/1999/xlink">
    <title>Group 20</title>
    <g id="Symbols" stroke="none" stroke-width="1" fill="none" fill-rule="evenodd">
        <g id="Footer" transform="translate(-241.000000, -195.000000)">
            <g id="Group-20" transform="translate(241.000000, 195.000000)">
                <rect id="Rectangle-Copy-72" x="0" y="0" width="15" height="15"></rect>
                <path d="M11.0268105,5.15686023 C13.0916547,5.15686023 14.6396455,6.50463423 14.6396455,9.40048055 L14.6396455,9.40048055 L14.6395202,14.8061563 L11.5018043,14.8061563 L11.5018043,9.76221884 C11.5018043,8.49528999 11.0477404,7.63077233 9.91182854,7.63077233 C9.04493363,7.63077233 8.52858157,8.21358339 8.30180026,8.77649601 C8.21883305,8.9782335 8.1984672,9.25931435 8.1984672,9.54108353 L8.1984672,9.54108353 L8.1984672,14.8064066 L5.06024995,14.8064066 L5.06024995,14.8064066 L5.0607232,14.7061983 C5.06326271,14.1611893 5.07526313,11.491609 5.0780516,9.13577499 L5.07820935,7.52749718 C5.07680077,6.45380708 5.07168949,5.62319107 5.06024995,5.37849612 L5.06024995,5.37849612 L8.1984672,5.37849612 L8.1984672,6.71388053 C8.61493269,6.07193739 9.36082325,5.15686023 11.0268105,5.15686023 Z M3.32338962,5.37824583 L3.32338962,14.8061563 L0.185548338,14.8061563 L0.185548338,5.37824583 L3.32338962,5.37824583 Z M1.77521077,0.833333333 C2.84864649,0.833333333 3.50968989,1.53741215 3.53005574,2.46181276 C3.53005574,3.3670659 2.84864649,4.09141853 1.75453163,4.09141853 L1.75453163,4.09141853 L1.73447912,4.09141853 C0.681033231,4.09141853 3.64153152e-14,3.3670659 3.64153152e-14,2.46181276 C3.64153152e-14,1.53741215 0.701775046,0.833333333 1.77521077,0.833333333 Z" id="Combined-Shape" fill="#FFFFFF" fill-rule="nonzero"></path>
            </g>
        </g>
    </g>
</svg>