<svg xmlns="http://www.w3.org/2000/svg" xmlns:xlink="http://www.w3.org/1999/xlink" width="161.89" height="159.816" viewBox="0 0 161.89 159.816">
  <defs>
    <clipPath id="clip-path">
      <path id="Clip_2" data-name="Clip 2" d="M0,49.691a54.76,54.76,0,0,1,5.808-.322H46.017a7.538,7.538,0,0,1,7.574,7.5h0V96.692a53.037,53.037,0,0,1-.361,5.983h0c27.975-.764,50.43-23.411,50.43-51.3h0C103.66,23,80.436,0,51.787,0h0A51.607,51.607,0,0,0,0,49.691" transform="translate(0.23 0.104)" fill="none"/>
    </clipPath>
    <linearGradient id="linear-gradient" x1="0.133" y1="0.935" x2="0.936" y2="-0.017" gradientUnits="objectBoundingBox">
      <stop offset="0" stop-color="#cdcd02"/>
      <stop offset="1" stop-color="#469580"/>
    </linearGradient>
    <clipPath id="clip-path-2">
      <path id="Clip_7" data-name="Clip 7" d="M0,0H58.76V58.9H0Z" transform="translate(0 0.184)" fill="none"/>
    </clipPath>
  </defs>
  <g id="Group_10" data-name="Group 10" transform="translate(0 -0.184)" opacity="0.072">
    <g id="Group_3" data-name="Group 3" transform="translate(58 10)" opacity="0.604">
      <path id="Clip_2-2" data-name="Clip 2" d="M0,49.691a54.76,54.76,0,0,1,5.808-.322H46.017a7.538,7.538,0,0,1,7.574,7.5h0V96.692a53.037,53.037,0,0,1-.361,5.983h0c27.975-.764,50.43-23.411,50.43-51.3h0C103.66,23,80.436,0,51.787,0h0A51.607,51.607,0,0,0,0,49.691" transform="translate(0.23 0.104)" fill="none"/>
      <g id="Group_3-2" data-name="Group 3" clip-path="url(#clip-path)">
        <path id="Fill_1" data-name="Fill 1" d="M0,49.691a54.76,54.76,0,0,1,5.808-.322H46.017a7.538,7.538,0,0,1,7.574,7.5h0V96.692a53.037,53.037,0,0,1-.361,5.983h0c27.975-.764,50.43-23.411,50.43-51.3h0C103.66,23,80.436,0,51.787,0h0A51.607,51.607,0,0,0,0,49.691" transform="translate(0.23 0.104)" fill="url(#linear-gradient)"/>
      </g>
    </g>
    <g id="Group_9" data-name="Group 9">
      <path id="Fill_4" data-name="Fill 4" d="M93.174,0H53.312A53.417,53.417,0,0,0,0,53.437a47.426,47.426,0,0,0,47.37,47.482,53.349,53.349,0,0,0,52.955-47.434,53.863,53.863,0,0,0,.357-6V7.526A7.517,7.517,0,0,0,93.174,0" transform="translate(11.29 59.081)" fill="#1d767d"/>
      <g id="Group_8" data-name="Group 8">
        <path id="Clip_7-2" data-name="Clip 7" d="M0,0H58.76V58.9H0Z" transform="translate(0 0.184)" fill="none"/>
        <g id="Group_8-2" data-name="Group 8" clip-path="url(#clip-path-2)">
          <path id="Fill_6" data-name="Fill 6" d="M58.76,29.449A29.38,29.38,0,1,0,29.38,58.9,29.415,29.415,0,0,0,58.76,29.449" transform="translate(0 0.184)" fill="#d0e951"/>
        </g>
      </g>
    </g>
  </g>
</svg>
