<?xml version="1.0" encoding="utf-8"?>
<!-- Generator: Adobe Illustrator 23.0.2, SVG Export Plug-In . SVG Version: 6.00 Build 0)  -->
<svg version="1.1" id="Layer_1" xmlns="http://www.w3.org/2000/svg" xmlns:xlink="http://www.w3.org/1999/xlink" x="0px" y="0px"
	 viewBox="0 0 15 15" style="enable-background:new 0 0 15 15;" xml:space="preserve">
<style type="text/css">
	.st0{fill:none;}
	.st1{fill:#5E9DA1;}
</style>
<title>Group 12</title>
<g id="Symbols">
	<g id="Footer" transform="translate(-201.000000, -195.000000)">
		<g id="Group-12" transform="translate(201.000000, 195.000000)">
			<rect id="Rectangle-Copy-71" class="st0" width="15" height="15"/>
			<path id="Shape" class="st1" d="M7.4,0c-2,0-2.3,0-3,0C3.6,0.1,3,0.2,2.5,0.4C2.1,0.6,1.7,0.8,1.2,1.2C0.8,1.6,0.6,2.1,0.4,2.5
				C0.2,3,0.1,3.6,0,4.3c0,0.8,0,1,0,3s0,2.3,0,3c0,0.8,0.2,1.3,0.3,1.8c0.2,0.5,0.4,0.9,0.9,1.3c0.4,0.4,0.8,0.7,1.3,0.9
				c0.5,0.2,1,0.3,1.8,0.3c0.8,0,1,0,3,0c2,0,2.3,0,3,0c0.8,0,1.3-0.2,1.8-0.3c0.5-0.2,0.9-0.4,1.3-0.9c0.4-0.4,0.7-0.8,0.9-1.3
				c0.2-0.5,0.3-1,0.3-1.8c0-0.8,0-1,0-3s0-2.3,0-3c0-0.8-0.2-1.3-0.3-1.8c-0.2-0.5-0.4-0.9-0.9-1.3c-0.4-0.4-0.8-0.7-1.3-0.9
				c-0.5-0.2-1-0.3-1.8-0.3C9.6,0,9.4,0,7.4,0L7.4,0z M6.7,1.3c0.2,0,0.4,0,0.7,0c2,0,2.2,0,3,0c0.7,0,1.1,0.2,1.4,0.3
				c0.3,0.1,0.6,0.3,0.8,0.6C12.8,2.4,13,2.7,13.1,3c0.1,0.3,0.2,0.7,0.3,1.4c0,0.8,0,1,0,3s0,2.2,0,3c0,0.7-0.2,1.1-0.3,1.4
				c-0.1,0.3-0.3,0.6-0.6,0.8c-0.3,0.3-0.5,0.4-0.8,0.6c-0.3,0.1-0.7,0.2-1.4,0.3c-0.8,0-1,0-3,0c-2,0-2.2,0-3,0
				c-0.7,0-1.1-0.2-1.4-0.3c-0.3-0.1-0.6-0.3-0.8-0.6c-0.3-0.3-0.4-0.5-0.6-0.8c-0.1-0.3-0.2-0.7-0.3-1.4c0-0.8,0-1,0-3s0-2.2,0-3
				c0-0.7,0.2-1.1,0.3-1.4c0.1-0.3,0.3-0.6,0.6-0.8S2.7,1.8,3,1.6c0.3-0.1,0.7-0.2,1.4-0.3C5.1,1.3,5.3,1.3,6.7,1.3L6.7,1.3z
				 M11.3,2.6c-0.5,0-0.9,0.4-0.9,0.9c0,0.5,0.4,0.9,0.9,0.9s0.9-0.4,0.9-0.9S11.8,2.6,11.3,2.6L11.3,2.6z M7.4,3.6
				c-2.1,0-3.8,1.7-3.8,3.8s1.7,3.8,3.8,3.8s3.8-1.7,3.8-3.8S9.5,3.6,7.4,3.6L7.4,3.6z M7.4,4.9c1.4,0,2.5,1.1,2.5,2.5
				c0,1.4-1.1,2.5-2.5,2.5C6,9.8,4.9,8.7,4.9,7.4C4.9,6,6,4.9,7.4,4.9L7.4,4.9z"/>
		</g>
	</g>
</g>
</svg>
