<?xml version="1.0" encoding="UTF-8"?>
<svg width="15px" height="15px" viewBox="0 0 15 15" version="1.1" xmlns="http://www.w3.org/2000/svg" xmlns:xlink="http://www.w3.org/1999/xlink">
    <title>Group 12</title>
    <g id="Symbols" stroke="none" stroke-width="1" fill="none" fill-rule="evenodd">
        <g id="Footer" transform="translate(-201.000000, -195.000000)">
            <g id="Group-12" transform="translate(201.000000, 195.000000)">
                <rect id="Rectangle-Copy-71" x="0" y="0" width="15" height="15"></rect>
                <path d="M7.38530769,-3.58231963e-13 C5.37974834,-3.58231963e-13 5.12805342,0.00876932308 4.34035292,0.0446158615 C3.55419088,0.0806162308 3.01756989,0.205079077 2.54802655,0.387696369 C2.06232918,0.576313708 1.65032488,0.828624 1.23985906,1.23924369 C0.829085538,1.64970951 0.576775246,2.06171377 0.387542492,2.54725731 C0.204463662,3.01695452 0.0798469846,3.55372934 0.0444619846,4.33958368 C0.00923086154,5.12728417 -2.51650552e-14,5.37913297 -2.51650552e-14,7.38469232 C-2.51650552e-14,9.39025168 0.00892315385,9.64117735 0.0446158615,10.4288778 C0.0807700615,11.2150399 0.205232908,11.7516609 0.387696369,12.2212042 C0.576467538,12.7069016 0.828777877,13.1189059 1.23939752,13.5293717 C1.64970951,13.9401452 2.06171377,14.1930709 2.54710348,14.3816883 C3.01695452,14.5643056 3.55372934,14.6887684 4.33973751,14.7247688 C5.12743805,14.7606153 5.37897909,14.7693846 7.38438462,14.7693846 C9.3900978,14.7693846 9.64102352,14.7606153 10.428724,14.7247688 C11.2148861,14.6887684 11.7521224,14.5643056 12.2219735,14.3816883 C12.707517,14.1930709 13.1189059,13.9401452 13.5292178,13.5293717 C13.9399914,13.1189059 14.1923017,12.7069016 14.3815344,12.2213581 C14.5630748,11.7516609 14.6876915,11.2148861 14.7246149,10.4290317 C14.7599999,9.64133118 14.7692308,9.39025168 14.7692308,7.38469232 C14.7692308,5.37913297 14.7599999,5.12743805 14.7246149,4.33973751 C14.6876915,3.55357546 14.5630748,3.01695452 14.3815344,2.54741114 C14.1923017,2.06171377 13.9399914,1.64970951 13.5292178,1.23924369 C13.1184444,0.828470169 12.7076708,0.576159831 12.2215119,0.387696369 C11.7507378,0.205079077 11.2138091,0.0806162308 10.4276471,0.0446158615 C9.63994657,0.00876932308 9.38917472,-3.58231963e-13 7.383,-3.58231963e-13 L7.38530769,-3.58231963e-13 Z M6.72283925,1.33078311 C6.91945671,1.3304754 7.13884362,1.33078311 7.38530769,1.33078311 C9.35702054,1.33078311 9.59071528,1.33786011 10.3693388,1.37324506 C11.0893463,1.40616849 11.4801196,1.52647745 11.74043,1.62755543 C12.085049,1.76140297 12.3307438,1.92140465 12.5890542,2.17986886 C12.8475185,2.43833308 13.0075201,2.68448949 13.1416753,3.02910849 C13.2427533,3.2891112 13.3632161,3.67988451 13.3959857,4.39989198 C13.4313707,5.17836162 13.4390631,5.41221023 13.4390631,7.383 C13.4390631,9.35378972 13.4313707,9.58763834 13.3959857,10.366108 C13.3630623,11.0861155 13.2427533,11.4768888 13.1416753,11.7368915 C13.0078278,12.0815105 12.8475185,12.3268976 12.5890542,12.585208 C12.33059,12.8436722 12.0852028,13.0036739 11.74043,13.1375214 C11.4804273,13.239061 11.0893463,13.3590622 10.3693388,13.3919856 C9.59086915,13.4273706 9.35702054,13.435063 7.38530769,13.435063 C5.41344102,13.435063 5.17974628,13.4273706 4.4012766,13.3919856 C3.68126912,13.3587546 3.29049582,13.2384456 3.03003157,13.1373676 C2.68541257,13.0035201 2.4392562,12.8435184 2.18079194,12.5850542 C1.92232772,12.3265899 1.76232605,12.0810489 1.6281708,11.7362761 C1.52709282,11.4762734 1.40663003,11.0855001 1.37386048,10.3654926 C1.33847548,9.58702292 1.33139848,9.35317435 1.33139848,7.3811538 C1.33139848,5.40913325 1.33847548,5.17651546 1.37386048,4.39804583 C1.40678391,3.67803831 1.52709282,3.287265 1.6281708,3.02695463 C1.76201834,2.68233563 1.92232772,2.43617922 2.18079194,2.177715 C2.4392562,1.91925074 2.68541257,1.75924911 3.03003157,1.62509386 C3.29034198,1.52355434 3.68126912,1.40355309 4.4012766,1.37047583 C5.08251448,1.33970626 5.34651725,1.3304754 6.72283925,1.32893691 L6.72283925,1.33078311 Z M11.3271949,2.55694971 C10.837959,2.55694971 10.4410318,2.9534154 10.4410318,3.44280508 C10.4410318,3.93204097 10.837959,4.32896815 11.3271949,4.32896815 C11.8164308,4.32896815 12.213358,3.93204097 12.213358,3.44280508 C12.213358,2.95356923 11.8164308,2.556642 11.3271949,2.556642 L11.3271949,2.55694971 Z M7.38530769,3.59234511 C5.2909782,3.59234511 3.59296052,5.29036278 3.59296052,7.38469232 C3.59296052,9.47902182 5.2909782,11.1762702 7.38530769,11.1762702 C9.47963723,11.1762702 11.1770395,9.47902182 11.1770395,7.38469232 C11.1770395,5.29036278 9.47948335,3.59234511 7.38515386,3.59234511 L7.38530769,3.59234511 Z M7.38530769,4.92312822 C8.74470646,4.92312822 9.8468718,6.02513968 9.8468718,7.38469232 C9.8468718,8.74409109 8.74470646,9.84625643 7.38530769,9.84625643 C6.02575509,9.84625643 4.92374358,8.74409109 4.92374358,7.38469232 C4.92374358,6.02513968 6.02575509,4.92312822 7.38530769,4.92312822 L7.38530769,4.92312822 Z" id="Shape" fill="#FFFFFF" fill-rule="nonzero"></path>
            </g>
        </g>
    </g>
</svg>