<svg xmlns="http://www.w3.org/2000/svg" xmlns:xlink="http://www.w3.org/1999/xlink" width="21.72" height="21.72" viewBox="0 0 21.72 21.72">
  <defs>
    <clipPath id="clip-path">
      <path id="Clip_2" data-name="Clip 2" d="M0,0H21V21H0Z" transform="translate(0.217 0.27)" fill="none"/>
    </clipPath>
  </defs>
  <g id="Group_3_Copy_6" data-name="Group 3 Copy 6" transform="matrix(-0.999, -0.035, 0.035, -0.999, 21.195, 21.998)" opacity="0.25">
    <path id="Clip_2-2" data-name="Clip 2" d="M0,0H21V21H0Z" transform="translate(0.217 0.27)" fill="none"/>
    <g id="Group_3_Copy_6-2" data-name="Group 3 Copy 6" clip-path="url(#clip-path)">
      <path id="Fill_1" data-name="Fill 1" d="M19.434,0H11.12a11.244,11.244,0,0,0-1.2.067A11.119,11.119,0,0,0,0,11.12,9.88,9.88,0,0,0,9.88,21,11.159,11.159,0,0,0,21,9.88V1.566A1.566,1.566,0,0,0,19.434,0" transform="translate(0.217 0.27)" fill="#1e757e"/>
    </g>
  </g>
</svg>
