<svg xmlns="http://www.w3.org/2000/svg" width="22.655" height="26.6" viewBox="0 0 22.655 26.6">
  <g id="location_1_" data-name="location (1)" transform="translate(0.5 0.5)">
    <g id="Group">
      <path id="Shape" d="M9.558,25.1c-.284-.265-.641-.579-1.054-.942C5.532,21.544,0,16.678,0,10.827A10.827,10.827,0,0,1,18.483,3.172a10.753,10.753,0,0,1,3.172,7.655c0,5.851-5.531,10.717-8.5,13.332-.413.364-.77.677-1.054.942a1.865,1.865,0,0,1-2.539,0Z" transform="translate(0 0)" fill="none" stroke="#549798" stroke-width="1"/>
      <path id="Shape-2" data-name="Shape" d="M0,4.772A4.771,4.771,0,1,1,4.772,9.543,4.777,4.777,0,0,1,0,4.772Z" transform="translate(6.056 5.647)" fill="none" stroke="#549798" stroke-width="1"/>
    </g>
  </g>
</svg>
