<svg id="noun_Phone_2178388" xmlns="http://www.w3.org/2000/svg" width="14" height="23" viewBox="0 0 14 23">
  <path id="Shape" d="M11.454,23H2.545A2.512,2.512,0,0,1,0,20.468V2.532A2.572,2.572,0,0,1,2.545,0h8.909A2.512,2.512,0,0,1,14,2.532V20.468a2.535,2.535,0,0,1-.716,1.82A2.563,2.563,0,0,1,11.454,23ZM7,20.363a1.161,1.161,0,1,0,1.166,1.16A1.179,1.179,0,0,0,7,20.363ZM1.166,2.954a.593.593,0,0,0-.53.634v15.72a.5.5,0,0,0,.53.527H12.833a.594.594,0,0,0,.636-.527V3.587a.678.678,0,0,0-.636-.634ZM5.621,1.266a.281.281,0,0,0-.319.316.337.337,0,0,0,.319.317H8.485c.1,0,.212-.206.212-.317,0-.217-.11-.316-.212-.316Z" fill="#1f767d"/>
</svg>
