<svg xmlns="http://www.w3.org/2000/svg" width="15.819" height="26.653" viewBox="0 0 15.819 26.653">
  <g id="mobile-phone" transform="translate(0.25 0.25)">
    <path id="Shape" d="M1.495,26.153A1.494,1.494,0,0,1,0,24.659V1.495A1.494,1.494,0,0,1,1.495,0H13.824a1.5,1.5,0,0,1,1.495,1.495V24.659a1.5,1.5,0,0,1-1.495,1.494Z" fill="none" stroke="#3a999d" stroke-miterlimit="10" stroke-width="0.5"/>
    <path id="Path" d="M14.945.747H.374A.374.374,0,0,1,.374,0H14.945a.374.374,0,0,1,0,.747Z" transform="translate(0 3.363)" fill="none" stroke="#53979c" stroke-miterlimit="10" stroke-width="0.5"/>
    <path id="Path-2" data-name="Path" d="M14.945.747H.374A.374.374,0,0,1,.374,0H14.945a.374.374,0,0,1,0,.747Z" transform="translate(0 20.549)" fill="none" stroke="#3a999d" stroke-miterlimit="10" stroke-width="0.5"/>
    <path id="Shape-2" data-name="Shape" d="M0,1.378A1.378,1.378,0,1,1,1.378,2.756,1.377,1.377,0,0,1,0,1.378Z" transform="translate(6.281 21.973)" fill="none" stroke="rgba(0,0,0,0)" stroke-width="1"/>
    <path id="Path-3" data-name="Path" d="M3.363.747H.374A.374.374,0,0,1,.374,0H3.363a.374.374,0,1,1,0,.747Z" transform="translate(5.791 1.775)" fill="none" stroke="#3a999d" stroke-miterlimit="10" stroke-width="0.5"/>
  </g>
</svg>
