<?xml version="1.0" encoding="UTF-8"?>
<svg width="24px" height="24px" viewBox="0 0 24 24" version="1.1" xmlns="http://www.w3.org/2000/svg" xmlns:xlink="http://www.w3.org/1999/xlink">
    <title>noun_Phone_56382</title>
    <g id="Page-1" stroke="none" stroke-width="1" fill="none" fill-rule="evenodd">
        <g id="Bio-pop-up" transform="translate(-435.000000, -514.000000)" fill="#163D34" fill-rule="nonzero" stroke="#003E34">
            <g id="noun_Phone_56382" transform="translate(436.000000, 515.000000)">
                <path d="M21.7743027,18.4866963 C20.5281271,21.4750607 17.6062877,21.9987947 16.6514893,21.9987947 C16.371112,21.9987947 12.0046084,22.2303428 5.72777477,16.2748861 C0.676339024,11.4820602 0.0591178648,6.3280974 0.0053401796,5.34884692 C-0.0469708414,4.39502517 0.226073133,2.0022798 3.51677858,0.224469507 C3.92451121,0.00416871218 4.7328876,-0.0933895753 4.94164279,0.115419391 C5.03428708,0.208087539 7.7962601,4.75420593 7.86885997,4.90482224 C7.94145985,5.05519403 7.97788201,5.20336527 7.97788201,5.34860242 C7.97788201,5.55618885 7.82999337,5.81585527 7.53397166,6.12735717 C7.23819439,6.43885907 6.91650606,6.72444323 6.56866221,6.98386514 C6.22081837,7.24353156 5.89913003,7.51860192 5.60310832,7.80932073 C5.30733105,8.09979503 5.15944242,8.33892286 5.15944242,8.5257262 C5.17948683,9.01058355 5.57670836,10.7473167 8.60268093,13.4068192 C11.6291424,16.0670552 13.0870065,16.8164691 13.227073,16.8683046 C13.3673838,16.92014 13.4839836,16.9458133 13.5773613,16.9458133 C13.7643609,16.9458133 14.0031827,16.7981311 14.2938267,16.5022776 C14.5842262,16.2061796 15.561269,14.8667704 15.8726906,14.5706724 C16.1841123,14.2750635 16.4437119,14.1271367 16.6514893,14.1271367 C16.796689,14.1271367 16.9445777,14.1633238 17.0949108,14.2359424 C17.2454883,14.3085609 21.7963027,16.97222 21.8833247,17.0612206 C22.1194577,17.3032825 21.9527468,18.0588091 21.7743027,18.4866963" id="Path"></path>
            </g>
        </g>
    </g>
</svg>