<?xml version="1.0" encoding="UTF-8"?>
<svg width="14px" height="23px" viewBox="0 0 14 23" version="1.1" xmlns="http://www.w3.org/2000/svg" xmlns:xlink="http://www.w3.org/1999/xlink">
    <title>noun_Phone_2178388</title>
    <g id="Page-1" stroke="none" stroke-width="1" fill="none" fill-rule="evenodd">
        <g id="Contact" transform="translate(-1188.000000, -55.000000)" fill="#B4C534">
            <g id="noun_Phone_2178388" transform="translate(1188.000000, 55.000000)">
                <path d="M2.54545455,0 L11.4545455,0 C12.9393939,0 14,1.16055046 14,2.53211009 L14,20.4678899 C14,21.9449541 12.9393939,23 11.4545455,23 L2.54545455,23 C1.16666667,23 0,21.9449541 0,20.4678899 L0,2.53211009 C0,1.16055046 1.16666667,0 2.54545455,0 Z M7,20.3623853 C7.63636364,20.3623853 8.16666667,20.8899083 8.16666667,21.5229358 C8.16666667,22.1559633 7.63636364,22.6834862 7,22.6834862 C6.36363636,22.6834862 5.83333333,22.1559633 5.83333333,21.5229358 C5.83333333,20.8899083 6.36363636,20.3623853 7,20.3623853 Z M5.62121212,1.26605505 L8.48484848,1.26605505 C8.59090909,1.26605505 8.6969697,1.37155963 8.6969697,1.58256881 C8.6969697,1.68807339 8.59090909,1.89908257 8.48484848,1.89908257 L5.62121212,1.89908257 C5.40909091,1.89908257 5.3030303,1.68807339 5.3030303,1.58256881 C5.3030303,1.37155963 5.40909091,1.26605505 5.62121212,1.26605505 Z M1.16666667,2.95412844 L12.8333333,2.95412844 C13.1515152,2.95412844 13.469697,3.2706422 13.469697,3.58715596 L13.469697,19.3073394 C13.469697,19.6238532 13.1515152,19.8348624 12.8333333,19.8348624 L1.16666667,19.8348624 C0.848484848,19.8348624 0.636363636,19.6238532 0.636363636,19.3073394 L0.636363636,3.58715596 C0.636363636,3.2706422 0.848484848,2.95412844 1.16666667,2.95412844 Z" id="Shape"></path>
            </g>
        </g>
    </g>
</svg>