<?xml version="1.0" encoding="UTF-8"?>
<svg width="73px" height="65px" viewBox="0 0 73 65" version="1.1" xmlns="http://www.w3.org/2000/svg" xmlns:xlink="http://www.w3.org/1999/xlink">
    <title>world-01</title>
    <g id="Page-1" stroke="none" stroke-width="1" fill="none" fill-rule="evenodd">
        <g id="About-" transform="translate(-1000.000000, -1430.000000)">
            <g id="Group-11" transform="translate(976.761589, 1431.000000)">
                <g id="world-01" transform="translate(24.238411, 0.000000)">
                    <path d="M24.15,53.73 L21.64,50.91 C21.64,50.91 22.26,44.63 22.58,43.53 C22.9,42.43 18.34,41.34 16.46,39.3 C14.89,37.6 13.17,34.12 15.36,31.77 C17.09,29.92 16.93,26.6 17.09,25.5 C16.9470155,23.1296914 16.4166579,20.7988206 15.52,18.6 C14.89,17.5 4.73,8.48 4.73,8.48 C4.73,8.48 14.3,-0.52 19.92,1.36 C23.65,2.6 29.86,4.17 29.86,4.17 L35.11,9.05 C35.11,9.05 32,13.7 31.17,14.48 C30.34,15.26 31.36,15.93 27.6,14.68 C23.84,13.43 23.83,16.24 23.83,16.24 C23.83,16.24 23.42,18.69 23.05,17.81 C22.5169986,16.8109888 21.6990112,15.9930014 20.7,15.46 C20.7,15.46 16.77,14.68 20.07,20.64 C23.37,26.6 21.48,26.12 23.83,27.22 C26.18,28.32 30.5,27.22 30.58,29.1 C30.89,36.95 37.48,35.69 34.34,38.99 C30.8,42.71 24.77,53.73 24.77,53.73" id="Path" stroke="#C4D63E" stroke-width="1.58"></path>
                    <g id="two-hands-forming-a-heart" transform="translate(28.000000, 1.000000)" fill="#D8EAE6" fill-rule="nonzero">
                        <path d="M35.23,3.55 L23.42,0.17 L23.42,0.17 C28.34,4.17 28.93,9.56 28.42,13.69 L28.42,13.77 C27.8870733,18.0570804 26.455926,22.1835552 24.22,25.88 L21.94,29.61 C19.78,32.51 17.72,35.89 15.38,38.98 L0.17,56.8 C1.58,58.25 1.83,58.8 2.98,59.98 C5.58,62.67 9.15,62.28 11.75,59.59 L33.27,37.78 L38,32 C44.0089026,23.2835717 43.2044116,11.5728366 36.06,3.76" id="Shape"></path>
                    </g>
                    <path d="M51.8,46.17 C51.8,46.17 49.55,37 53.48,35.48 C57.41,33.96 61.73,29.67 62.3,28.17 C62.87,26.67 64.55,21.42 66.61,20.11 C68.67,18.8 70.17,17.67 70.17,17.67 L70.17,24.61 L66,33 L60.08,39 L54.08,45.18 L51.8,46.17 Z" id="Path" stroke="#C4D63E" stroke-width="1.58"></path>
                    <path d="M35,9.55 L32.77,7.2 C29.257557,3.49399971 24.3760448,1.39492087 19.27,1.39492087 C14.1639552,1.39492087 9.28244299,3.49399971 5.77,7.2 C-1.68652436,15.0440542 -1.68652436,27.3559458 5.77,35.2" id="Shape-2" stroke="#2F4564" stroke-width="2.23"></path>
                    <path d="M29.38,16.82 L34.38,10.39 L37.91,6.57 C41.4591079,2.83552381 46.3981802,0.740383258 51.5499351,0.783977946 C56.70169,0.827572635 61.6045989,3.00599706 65.09,6.8 C72.42,14.64 71.84,27.32 64.39,35.04 L59.69,39.91 L39.75,60.59 C38.5250391,61.8764074 36.826337,62.6045 35.05,62.6045 C33.273663,62.6045 31.5749609,61.8764074 30.35,60.59 L5.8,35.17" id="Shape-4" stroke="#2F4564" stroke-width="2.23"></path>
                </g>
            </g>
        </g>
    </g>
</svg>