<?xml version="1.0" encoding="UTF-8"?>
<svg width="146px" height="83px" viewBox="0 0 146 83" version="1.1" xmlns="http://www.w3.org/2000/svg" xmlns:xlink="http://www.w3.org/1999/xlink">
    <title>Group 18</title>
    <defs>
        <polygon id="path-1" points="0 0.187652231 56.6819355 0.187652231 56.6819355 57.9338402 0 57.9338402"></polygon>
        <polygon id="path-3" points="0 63 113.097478 63 113.097478 0.32842623 0 0.32842623"></polygon>
    </defs>
    <g id="Page-1" stroke="none" stroke-width="1" fill="none" fill-rule="evenodd">
        <g id="Single-Tour" transform="translate(-525.000000, -1295.000000)">
            <g id="Group-18" transform="translate(525.554975, 1295.915806)">
                <g id="Group-9" transform="translate(0.000000, -0.000000)" opacity="0.243527435">
                    <g id="Group-3-Copy-2" transform="translate(36.999713, 37.287319) rotate(-21.000000) translate(-36.999713, -37.287319) translate(8.499713, 8.287319)">
                        <mask id="mask-2" fill="white">
                            <use xlink:href="#path-1"></use>
                        </mask>
                        <g id="Clip-2"></g>
                        <path d="M49.4019143,8.69434483 C56.7803429,19.0246897 61.4389857,45.7743448 48.7949857,54.7826207 C36.1530571,63.7929655 10.9955571,51.6502069 3.61712857,41.3198621 C-3.7613,30.9874483 0.507914286,15.3088276 13.1498429,6.30262069 C25.7917714,-2.70772414 42.0214143,-1.636 49.4019143,8.69434483" id="Fill-1" fill="#C4D63E" mask="url(#mask-2)"></path>
                    </g>
                </g>
                <g id="Group-13" transform="translate(31.445025, 18.084194)">
                    <polygon id="Fill-1" fill="#153D34" points="89 54 92 54 92 51 89 51"></polygon>
                    <polygon id="Stroke-2" stroke="#153D34" stroke-width="0.25" points="89 54 92 54 92 51 89 51"></polygon>
                    <polygon id="Fill-3" fill="#153D34" points="27 54 30 54 30 51 27 51"></polygon>
                    <polygon id="Stroke-4" stroke="#153D34" stroke-width="0.25" points="27 54 30 54 30 51 27 51"></polygon>
                    <g id="Group-12">
                        <path d="M103.893732,50.7625082 L100.913245,50.7625082 C99.7377822,45.0388033 94.0863594,41.3414262 88.2906182,42.5043443 C84.0761042,43.3491639 80.7818811,46.600377 79.9264288,50.7625082 L39.4691855,50.7625082 C38.293723,45.0388033 32.6423002,41.3414262 26.8465591,42.5043443 C22.632045,43.3491639 19.3378219,46.600377 18.4823697,50.7625082 L9.00755643,50.7625082 C7.5685561,50.7645738 6.19648602,50.1696885 5.22390585,49.1224426 C4.2429594,48.1020492 3.74516569,46.7201803 3.8497442,45.3155902 C3.97523841,43.5536557 4.16975445,41.7917213 4.40401031,40.1516557 C25.1231052,39.7468033 29.5844245,31.0218197 30.5486384,27.2170328 L109.265021,27.2170328 L109.265021,45.4932295 C109.2858,48.4118852 106.903502,50.7955574 103.948113,50.8141475 L103.912556,50.8141475 L103.893732,50.7625082 Z M90.4031042,59.5742459 C86.4604943,59.5742459 83.2645749,56.4180492 83.2645749,52.5265082 C83.2645749,48.6308361 86.4604943,45.4746393 90.4031042,45.4746393 C94.3457141,45.4746393 97.5416335,48.6308361 97.5416335,52.5265082 C97.5311756,56.4035902 94.3498973,59.5473934 90.4219283,59.5577213 L90.4031042,59.5742459 Z M28.959045,59.5742459 C25.0164351,59.5742459 21.8205158,56.4180492 21.8205158,52.5265082 C21.8205158,48.6308361 25.0164351,45.4746393 28.959045,45.4746393 C32.9016549,45.4746393 36.0975743,48.6308361 36.0975743,52.5265082 C36.0871164,56.4035902 32.9058381,59.5473934 28.9778692,59.5577213 L28.959045,59.5742459 Z M21.4084764,5.48513115 C22.3894229,4.61345902 23.6610976,4.13218033 24.9808784,4.12803574 L103.912556,4.12803574 C106.723627,4.12185246 109.059911,6.25972131 109.264885,9.02759016 L17.8946384,9.02759016 C18.9989875,7.77172131 20.1786331,6.58401639 21.4273006,5.46654098 L21.4084764,5.48513115 Z M95.9353075,12.5349344 L109.264885,12.5349344 L109.264885,23.7448033 L95.8809267,23.7448033 L95.9353075,12.5349344 Z M78.1967002,12.5349344 L92.3127078,12.5349344 L92.3127078,23.7448033 L78.2155244,23.7448033 L78.1967002,12.5349344 Z M60.4560014,12.5349344 L74.645214,12.5349344 L74.645214,23.7448033 L60.4748255,23.7448033 L60.4560014,12.5349344 Z M10.6117908,19.830541 C10.6724463,19.7644426 10.7142778,19.6880164 10.737285,19.6033279 C11.9901356,17.1432295 13.4395938,14.7843443 15.0752017,12.5535246 L39.184732,12.5535246 L39.184732,23.7633934 L30.5486384,23.7633934 C28.9067558,23.7633934 27.4782133,24.8684754 27.0849981,26.4424426 C26.4951753,28.7682787 23.1423882,36.1341148 4.99174155,36.6629016 C6.08981593,30.8297213 7.98059544,25.165918 10.6117908,19.830541 L10.6117908,19.830541 Z M6.33034651,20.8178852 C2.92736172,28.495623 0.879714446,36.6918197 0.279433785,45.0511967 C-0.0343017521,49.8206066 3.62385461,53.9393607 8.45329031,54.2491967 C8.6373485,54.2615902 8.82140668,54.2677869 9.00755643,54.2698525 L18.4823697,54.2698525 C19.6620153,59.9935574 25.3134381,63.6909344 31.1070877,62.5280164 C35.3216017,61.6831967 38.6137333,58.4319836 39.4691855,54.2698525 L79.9264288,54.2698525 C81.1039829,59.9935574 86.7574973,63.6909344 92.5511468,62.5280164 C96.7656609,61.6831967 100.057792,58.4319836 100.913245,54.2698525 L103.912556,54.2698525 C108.840296,54.2698525 112.835195,50.3246066 112.835195,45.4581148 L112.835195,9.39939344 C112.835195,4.53083607 108.840296,0.585590164 103.912556,0.585590164 L24.9432301,0.585590164 C22.7972791,0.612442623 20.7328992,1.41388525 19.1433059,2.8432623 C16.9262414,4.81381967 14.9057845,6.99093443 13.1133088,9.34568852 C12.7891154,9.56877049 12.5506764,9.891 12.4314569,10.2628033 C10.8063068,12.4709016 9.35057395,14.7988033 8.07889924,17.2237869 L6.33034651,20.8178852 Z" id="Fill-5" fill="#153D34"></path>
                        <path d="M103.893732,50.7625082 L100.913245,50.7625082 C99.7377822,45.0388033 94.0863594,41.3414262 88.2906182,42.5043443 C84.0761042,43.3491639 80.7818811,46.600377 79.9264288,50.7625082 L39.4691855,50.7625082 C38.293723,45.0388033 32.6423002,41.3414262 26.8465591,42.5043443 C22.632045,43.3491639 19.3378219,46.600377 18.4823697,50.7625082 L9.00755643,50.7625082 C7.5685561,50.7645738 6.19648602,50.1696885 5.22390585,49.1224426 C4.2429594,48.1020492 3.74516569,46.7201803 3.8497442,45.3155902 C3.97523841,43.5536557 4.16975445,41.7917213 4.40401031,40.1516557 C25.1231052,39.7468033 29.5844245,31.0218197 30.5486384,27.2170328 L109.265021,27.2170328 L109.265021,45.4932295 C109.2858,48.4118852 106.903502,50.7955574 103.948113,50.8141475 L103.912556,50.8141475 L103.893732,50.7625082 Z M90.4031042,59.5742459 C86.4604943,59.5742459 83.2645749,56.4180492 83.2645749,52.5265082 C83.2645749,48.6308361 86.4604943,45.4746393 90.4031042,45.4746393 C94.3457141,45.4746393 97.5416335,48.6308361 97.5416335,52.5265082 C97.5311756,56.4035902 94.3498973,59.5473934 90.4219283,59.5577213 L90.4031042,59.5742459 Z M28.959045,59.5742459 C25.0164351,59.5742459 21.8205158,56.4180492 21.8205158,52.5265082 C21.8205158,48.6308361 25.0164351,45.4746393 28.959045,45.4746393 C32.9016549,45.4746393 36.0975743,48.6308361 36.0975743,52.5265082 C36.0871164,56.4035902 32.9058381,59.5473934 28.9778692,59.5577213 L28.959045,59.5742459 Z M21.4084764,5.48513115 C22.3894229,4.61345902 23.6610976,4.13218033 24.9808784,4.12803574 L103.912556,4.12803574 C106.723627,4.12185246 109.059911,6.25972131 109.264885,9.02759016 L17.8946384,9.02759016 C18.9989875,7.77172131 20.1786331,6.58401639 21.4273006,5.46654098 L21.4084764,5.48513115 Z M95.9353075,12.5349344 L109.264885,12.5349344 L109.264885,23.7448033 L95.8809267,23.7448033 L95.9353075,12.5349344 Z M78.1967002,12.5349344 L92.3127078,12.5349344 L92.3127078,23.7448033 L78.2155244,23.7448033 L78.1967002,12.5349344 Z M60.4560014,12.5349344 L74.645214,12.5349344 L74.645214,23.7448033 L60.4748255,23.7448033 L60.4560014,12.5349344 Z M10.6117908,19.830541 C10.6724463,19.7644426 10.7142778,19.6880164 10.737285,19.6033279 C11.9901356,17.1432295 13.4395938,14.7843443 15.0752017,12.5535246 L39.184732,12.5535246 L39.184732,23.7633934 L30.5486384,23.7633934 C28.9067558,23.7633934 27.4782133,24.8684754 27.0849981,26.4424426 C26.4951753,28.7682787 23.1423882,36.1341148 4.99174155,36.6629016 C6.08981593,30.8297213 7.98059544,25.165918 10.6117908,19.830541 Z M6.33034651,20.8178852 C2.92736172,28.495623 0.879714446,36.6918197 0.279433785,45.0511967 C-0.0343017521,49.8206066 3.62385461,53.9393607 8.45329031,54.2491967 C8.6373485,54.2615902 8.82140668,54.2677869 9.00755643,54.2698525 L18.4823697,54.2698525 C19.6620153,59.9935574 25.3134381,63.6909344 31.1070877,62.5280164 C35.3216017,61.6831967 38.6137333,58.4319836 39.4691855,54.2698525 L79.9264288,54.2698525 C81.1039829,59.9935574 86.7574973,63.6909344 92.5511468,62.5280164 C96.7656609,61.6831967 100.057792,58.4319836 100.913245,54.2698525 L103.912556,54.2698525 C108.840296,54.2698525 112.835195,50.3246066 112.835195,45.4581148 L112.835195,9.39939344 C112.835195,4.53083607 108.840296,0.585590164 103.912556,0.585590164 L24.9432301,0.585590164 C22.7972791,0.612442623 20.7328992,1.41388525 19.1433059,2.8432623 C16.9262414,4.81381967 14.9057845,6.99093443 13.1133088,9.34568852 C12.7891154,9.56877049 12.5506764,9.891 12.4314569,10.2628033 C10.8063068,12.4709016 9.35057395,14.7988033 8.07889924,17.2237869 L6.33034651,20.8178852 Z" id="Stroke-7" stroke="#153D34" stroke-width="0.25"></path>
                        <mask id="mask-4" fill="white">
                            <use xlink:href="#path-3"></use>
                        </mask>
                        <g id="Clip-10"></g>
                        <polygon id="Fill-9" fill="#FFFFFF" mask="url(#mask-4)" points="42.6554836 23.8408525 56.7589418 23.8408525 56.7589418 12.6784918 42.6554836 12.6784918"></polygon>
                        <polygon id="Fill-11" fill="#153D34" opacity="0.490188953" mask="url(#mask-4)" points="42.5969197 23.8759672 56.6982863 23.8759672 56.6982863 12.7136066 42.5969197 12.7136066"></polygon>
                    </g>
                </g>
            </g>
        </g>
    </g>
</svg>