<svg id="Group_33" data-name="Group 33" xmlns="http://www.w3.org/2000/svg" xmlns:xlink="http://www.w3.org/1999/xlink" width="1018" height="224" viewBox="0 0 1018 224">
  <defs>
    <linearGradient id="linear-gradient" x1="0.589" y1="0.383" x2="-0.02" y2="1" gradientUnits="objectBoundingBox">
      <stop offset="0" stop-color="#469580"/>
      <stop offset="1" stop-color="#d1e3bd"/>
    </linearGradient>
    <clipPath id="clip-path">
      <rect id="Mask" width="1018" height="224" rx="20" fill="url(#linear-gradient)"/>
    </clipPath>
    <linearGradient id="linear-gradient-3" x1="0.042" y1="0.758" x2="1.009" y2="0.213" gradientUnits="objectBoundingBox">
      <stop offset="0" stop-color="#1f767d"/>
      <stop offset="1" stop-color="#469580"/>
    </linearGradient>
    <clipPath id="clip-path-2">
      <path id="Clip_2" data-name="Clip 2" d="M0,0H99V103H0Z" fill="none"/>
    </clipPath>
  </defs>
  <g id="Group_4" data-name="Group 4">
    <rect id="Mask-2" data-name="Mask" width="1018" height="224" rx="20" fill="url(#linear-gradient)"/>
    <g id="Group_4-2" data-name="Group 4" clip-path="url(#clip-path)">
      <g id="Group_4-3" data-name="Group 4" transform="matrix(0.574, 0.819, -0.819, 0.574, 318.814, -211.603)" opacity="0.088">
        <path id="Fill_2" data-name="Fill 2" d="M.823,146.767a172.743,172.743,0,0,0-.805,18.888h0L1.981,291.479c.2,13.09,10.722,23.868,23.495,24.074h0l122.773,1.98a161.248,161.248,0,0,0,17.715-.731h0c82.2-7.74,145.21-78.109,143.856-164.9h0C308.532,69.318,242.168,1.321,161.592.021h0C77.15-1.34,8.69,62.887.823,146.767" transform="translate(287.315 411.101) rotate(-158)" fill="url(#linear-gradient-3)"/>
      </g>
      <g id="Group_4_Copy" data-name="Group 4 Copy" transform="matrix(0.809, 0.588, -0.588, 0.809, 693.822, -296.978)">
        <path id="Fill_2-2" data-name="Fill 2" d="M206.6,114.646a130.74,130.74,0,0,0-.561,14.868L208.29,228.6a19.857,19.857,0,0,0,19.344,19.093l100.443,2.275a136.793,136.793,0,0,0,14.488-.472c67.2-5.615,118.384-60.656,116.828-129.006C457.913,55.458,403.274,1.529,337.353.036,268.27-1.529,212.6,48.644,206.6,114.646L0,41.305" transform="translate(186.449 0.294) rotate(48)" fill="url(#linear-gradient-3)"/>
      </g>
    </g>
  </g>
  <g id="Group_3" data-name="Group 3" transform="translate(835.358 61)" opacity="0.569">
    <path id="Clip_2-2" data-name="Clip 2" d="M0,0H99V103H0Z" fill="none"/>
    <g id="Group_3-2" data-name="Group 3" clip-path="url(#clip-path-2)">
      <path id="Fill_1" data-name="Fill 1" d="M99,51.5C99,23.058,76.837,0,49.5,0S0,23.058,0,51.5,22.162,103,49.5,103,99,79.943,99,51.5" fill="#d0e951"/>
    </g>
  </g>
</svg>
