<?xml version="1.0" encoding="UTF-8"?>
<svg width="54px" height="65px" viewBox="0 0 54 65" version="1.1" xmlns="http://www.w3.org/2000/svg" xmlns:xlink="http://www.w3.org/1999/xlink">
    <title>guide-04</title>
    <g id="Page-1" stroke="none" stroke-width="1" fill="none" fill-rule="evenodd">
        <g id="About-" transform="translate(-508.000000, -1428.000000)">
            <g id="Group-4" transform="translate(490.761589, 1428.000000)">
                <g id="guide-04" transform="translate(18.238411, 0.000000)">
                    <circle id="Oval" stroke="#C4D63E" stroke-width="1.18" fill="#FFFFFF" fill-rule="nonzero" cx="15.24" cy="57.34" r="1.93"></circle>
                    <path d="M37.22,62.81 C37.22,62.81 46.08,56.3 38.73,50.65 L46.17,54.7 L51.35,60.7 L52.35,62.49 L49.9,63.81 L41.51,63.15 L38.12,63.34 L37.22,62.81 Z" id="Path" fill="#D8EAE6" fill-rule="nonzero"></path>
                    <path d="M20.3,48 C13.19,50.16 4.3,55.81 0.71,61.82 C0.457004571,62.228074 0.447522001,62.7418547 0.685287061,63.1589864 C0.92305212,63.5761181 1.3699626,63.8297547 1.85,63.82 L50,63.57 C50.4034426,63.5705137 50.7771101,63.3577509 50.9825609,63.010539 C51.1880118,62.6633271 51.1946438,62.2333836 51,61.88 C47.32,55.33 40,50.2 32,48.25" id="Path" stroke="#153D34" stroke-width="2.11"></path>
                    <path d="M36.09,18.32 C36.09,18.32 35.71,7.2 32.13,4 C28.55,0.8 33.64,3.25 33.64,3.25 L40.8,6.45 L43.06,16.06 L42.5,21.15 L36.09,18.32 Z" id="Path" fill="#D8EAE6" fill-rule="nonzero"></path>
                    <path d="M9.32,21.69 L9.41,20.56 L9.75,16.05 L10.21,9.92 C10.5609727,7.33615332 12.1990219,5.10690011 14.56,4 C17.56,2.42 22.89,1.46 25.56,1.06 C26.6403904,0.89592851 27.7437589,0.974496549 28.79,1.29 C32.41,2.37 41.07,5.17 41.85,7.36 C42.63,9.55 42.92,16.5 43,19.65 L43.05,22.28" id="Path" stroke="#153D34" stroke-width="1.91"></path>
                    <path d="M28,44.52 C28,44.52 35,34.72 35.54,24.17 C35.68,21.51 41.54,24.54 41.54,24.54 L42.86,24.92 L42.67,30.39 L37.77,40.39 L31.36,44.53 L28,44.52 Z" id="Path" fill="#D8EAE6" fill-rule="nonzero"></path>
                    <path d="M28,44.52 C28,44.52 24.09,54.32 21.41,52.52 C18.73,50.72 22.25,55.06 26.78,54.78 C31.31,54.5 32.57,50.11 32.57,50.11 L31.87,45.31 L32.15,43.75 L28,44.52 Z" id="Path" fill="#E5EFF4" fill-rule="nonzero"></path>
                    <path d="M32.17,44.71 L32.17,49 C32.17,52.1204088 29.6404088,54.65 26.52,54.65 L26,54.65 C24.4928824,54.6633378 23.0429043,54.073965 21.9724851,53.0129354 C20.9020658,51.9519058 20.3,50.5071766 20.3,49 L20.3,43.77" id="Path" stroke="#153D34" stroke-width="2.01"></path>
                    <path d="M42.65,25.71 C42.7878416,26.5730771 42.8547321,27.4459977 42.8502345,28.32 C42.8502345,34.3935151 39.6098184,40.0056745 34.35,43.0424321 C29.0901817,46.0791896 22.6098183,46.0791896 17.35,43.0424321 C12.0901816,40.0056745 8.85,34.3935151 8.85,28.32 C8.85045229,27.4295945 8.91730433,26.5404624 9.05,25.66" id="Path" stroke="#153D34" stroke-width="1.91"></path>
                    <path d="M7.79,26.12 C7.36063506,26.2112928 6.92193224,26.0119026 6.70836305,25.6283966 C6.49479386,25.2448907 6.55629653,24.7669429 6.86,24.45 C11.2593814,19.20947 17.8101917,16.2636307 24.65,16.45 C34.44,16.6 41.97,21.45 45.37,24.14 C45.6094755,24.3203824 45.6945088,24.6411575 45.575835,24.9164806 C45.4571613,25.1918038 45.1655709,25.350241 44.87,25.3 C39.96,24.3 30.06,22.47 25.26,22.64 C21.45,22.78 12.29,25.12 7.79,26.12 Z" id="Path" stroke="#153D34" stroke-width="2.01"></path>
                </g>
            </g>
        </g>
    </g>
</svg>