<?xml version="1.0" encoding="UTF-8"?>
<svg width="15px" height="15px" viewBox="0 0 15 15" version="1.1" xmlns="http://www.w3.org/2000/svg" xmlns:xlink="http://www.w3.org/1999/xlink">
    <title>Group 11</title>
    <g id="Symbols" stroke="none" stroke-width="1" fill="none" fill-rule="evenodd">
        <g id="Footer" transform="translate(-164.000000, -195.000000)">
            <g id="Group-11" transform="translate(164.000000, 195.000000)">
                <rect id="Rectangle-Copy-70" x="0" y="0" width="15" height="15"></rect>
                <path d="M7.28335593,4.22503299 L7.31587089,4.77650645 L6.77395452,4.70897905 C4.80137898,4.4501242 3.07808495,3.57226848 1.61491076,2.09792106 L0.899581147,1.36637467 L0.715329613,1.90659355 C0.32514982,3.11083153 0.574431327,4.3825968 1.38730588,5.2379434 C1.82083897,5.71063494 1.72329403,5.77816228 0.975449459,5.49679831 C0.715329613,5.4067618 0.487724729,5.33923445 0.466048054,5.37299815 C0.390179794,5.45178003 0.650299639,6.47594502 0.856227848,6.88110921 C1.13802437,7.44383721 1.7124557,7.99531067 2.34107871,8.32169293 L2.87215674,8.58054784 L2.24353372,8.59180237 C1.63658744,8.59180237 1.61491076,8.60305695 1.67994073,8.83940269 C1.89670728,9.57094913 2.75293513,10.3475138 3.70670791,10.6851506 L4.37868423,10.9214963 L3.79341456,11.2816423 C2.92634838,11.7993521 1.90754562,12.0919706 0.888742861,12.1144797 C0.401018131,12.1257343 0,12.1707525 0,12.2045162 C0,12.3170618 1.3222759,12.9473172 2.09179715,13.1949175 C4.40036085,13.926464 7.14245764,13.6113363 9.20173983,12.36208 C10.664914,11.4729698 12.1280882,9.70600383 12.8109028,7.99531067 C13.1794059,7.0836913 13.5479091,5.41801638 13.5479091,4.61894259 C13.5479091,4.10123283 13.5804241,4.03370548 14.1873704,3.41470462 C14.5450352,3.05455871 14.8810233,2.66064911 14.9460533,2.54810348 C15.0544366,2.33426685 15.0435982,2.33426685 14.4908435,2.52559436 C13.5695857,2.8632312 13.4395258,2.81821292 13.8947355,2.31175774 C14.2307237,1.95161178 14.6317418,1.29884733 14.6317418,1.10751976 C14.6317418,1.07375612 14.4691669,1.13002888 14.2849153,1.23131993 C14.0898254,1.34386556 13.6562923,1.51268395 13.3311425,1.613975 L12.7458728,1.80530251 L12.2147948,1.43390202 C11.92216,1.23131993 11.5103035,1.00622872 11.293537,0.93870137 C10.7407823,0.781137508 9.89539277,0.803646624 9.39682975,0.983719602 C8.04203884,1.49017483 7.18581099,2.7957038 7.28335593,4.22503299 Z" id="Combined-Shape-path" fill="#FFFFFF" fill-rule="nonzero"></path>
            </g>
        </g>
    </g>
</svg>