<?xml version="1.0" encoding="utf-8"?>
<!-- Generator: Adobe Illustrator 23.0.2, SVG Export Plug-In . SVG Version: 6.00 Build 0)  -->
<svg version="1.1" id="Layer_1" xmlns="http://www.w3.org/2000/svg" xmlns:xlink="http://www.w3.org/1999/xlink" x="0px" y="0px"
	 viewBox="0 0 15 15" style="enable-background:new 0 0 15 15;" xml:space="preserve">
<style type="text/css">
	.st0{fill:none;}
	.st1{fill:#5E9DA1;}
</style>
<title>Group 11</title>
<g id="Symbols">
	<g id="Footer" transform="translate(-164.000000, -195.000000)">
		<g id="Group-11" transform="translate(164.000000, 195.000000)">
			<rect id="Rectangle-Copy-70" class="st0" width="15" height="15"/>
			<path id="Combined-Shape-path" class="st1" d="M7.3,4.2l0,0.6L6.8,4.7c-2-0.3-3.7-1.1-5.2-2.6L0.9,1.4L0.7,1.9
				C0.3,3.1,0.6,4.4,1.4,5.2C1.8,5.7,1.7,5.8,1,5.5C0.7,5.4,0.5,5.3,0.5,5.4C0.4,5.5,0.7,6.5,0.9,6.9C1.1,7.4,1.7,8,2.3,8.3l0.5,0.3
				l-0.6,0c-0.6,0-0.6,0-0.6,0.2c0.2,0.7,1.1,1.5,2,1.8l0.7,0.2l-0.6,0.4c-0.9,0.5-1.9,0.8-2.9,0.8c-0.5,0-0.9,0.1-0.9,0.1
				c0,0.1,1.3,0.7,2.1,1c2.3,0.7,5.1,0.4,7.1-0.8c1.5-0.9,2.9-2.7,3.6-4.4c0.4-0.9,0.7-2.6,0.7-3.4c0-0.5,0-0.6,0.6-1.2
				c0.4-0.4,0.7-0.8,0.8-0.9c0.1-0.2,0.1-0.2-0.5,0c-0.9,0.3-1.1,0.3-0.6-0.2c0.3-0.4,0.7-1,0.7-1.2c0,0-0.2,0-0.3,0.1
				c-0.2,0.1-0.6,0.3-1,0.4l-0.6,0.2l-0.5-0.4c-0.3-0.2-0.7-0.4-0.9-0.5c-0.6-0.2-1.4-0.1-1.9,0C8,1.5,7.2,2.8,7.3,4.2z"/>
		</g>
	</g>
</g>
</svg>
