<?xml version="1.0" encoding="UTF-8"?>
<svg width="65px" height="66px" viewBox="0 0 65 66" version="1.1" xmlns="http://www.w3.org/2000/svg" xmlns:xlink="http://www.w3.org/1999/xlink">
    <title>location-03</title>
    <g id="Page-1" stroke="none" stroke-width="1" fill="none" fill-rule="evenodd">
        <g id="About-" transform="translate(-263.000000, -1427.000000)" fill-rule="nonzero">
            <g id="Group-2" transform="translate(235.761589, 1427.000000)">
                <g id="location-03" transform="translate(27.238411, 0.000000)">
                    <path d="M28.78,47.92 C28.78,47.92 39.47,40.05 41.72,23.73 C43.97,7.41 31.59,1.61 31.59,1.61 C31.59,1.61 42.84,0.86 47.16,11.36 C51.48,21.86 41.53,41 41.53,41 L32.34,54.3 L28.78,47.92 Z" id="Path" fill="#2B98CF" opacity="0.158380418"></path>
                    <path d="M40.33,18.31 C40.33,13.891722 36.748278,10.31 32.33,10.31 C27.911722,10.31 24.33,13.891722 24.33,18.31 C24.33,22.728278 27.911722,26.31 32.33,26.31 C36.748278,26.31 40.33,22.728278 40.33,18.31 Z M26.1799918,18.31 C26.1799918,14.9244945 28.9244945,12.18 32.31,12.18 C35.6955055,12.18 38.44,14.9244945 38.44,18.31 C38.44,21.6955055 35.6955055,24.4400082 32.31,24.4400082 C30.6834089,24.44266 29.1226734,23.7976768 27.9724983,22.6475017 C26.8223232,21.4973266 26.17734,19.9365911 26.1799918,18.31 L26.1799918,18.31 Z" id="Shape" fill="#C4D63E"></path>
                    <path d="M3.47,60.11 L9.35,60.11 C12.6217114,60.1107464 15.8372232,59.2594801 18.68,57.64 L22.59,55.42 L24.87,59.36 L14.36,64.51 C14.2251099,64.5715028 14.0782326,64.6022445 13.93,64.6 L0.08,64 L3.47,60.11 Z" id="Path" fill="#D8EAE6" opacity="0.794317336"></path>
                    <path d="M35.34,63.3 C35.34,63.3 40.79,64.06 44.34,61.05 C48.09,57.86 44.72,53.17 44.72,53.17 L51.32,63.35 L35.34,63.3 Z" id="Path" fill="#D8EAE6" opacity="0.794317336"></path>
                    <polygon id="Path" fill="#E5EFF4" points="49.22 52.05 55.97 43.8 57.84 48.86"></polygon>
                    <path d="M53.16,62.55 C53.16,62.55 56.34,63.3 56.53,49.61 L61.03,57.11 L64.59,64.31 L54.09,64.8 L52.59,64.42 L53.16,62.55 Z" id="Path" fill="#D8EAE6" opacity="0.794317336"></path>
                    <path d="M64.53,64 L56.78,43.65 C56.6411868,43.2796943 56.2854471,43.0358727 55.89,43.04 L41.23,43.04 L41.5,42.6 C47.14,33.26 49.98,25.09 49.94,18.32 C50.0924251,11.919506 46.7649484,5.93888229 41.2459674,2.6938237 C35.7269863,-0.551234884 28.8830137,-0.551234884 23.3640326,2.6938237 C17.8450516,5.93888229 14.5175749,11.919506 14.67,18.32 C14.67,25.1 17.47,33.32 23.11,42.61 L23.38,43.05 L8.72,43.05 C8.32455293,43.0458727 7.96881319,43.2896943 7.83,43.66 L0.08,64 C-0.0818423021,64.490514 0.156517901,65.0235741 0.63,65.23 C0.738997533,65.2695611 0.854045173,65.2898636 0.97,65.29 L63.64,65.29 C63.8995262,65.3065999 64.1543329,65.2149423 64.3438174,65.036827 C64.5333018,64.8587116 64.640038,64.610056 64.640038,64.35 C64.6410405,64.2306881 64.6207202,64.1121529 64.58,64 L64.53,64 Z M16.53,18.35 C16.7451993,9.81428846 23.7265761,3.00670518 32.265,3.00670518 C40.8034239,3.00670518 47.7848007,9.81428846 48,18.35 L48,18.35 C48.08,31.85 35.46,48.5 32.27,52.5 C29.08,48.5 16.45,31.86 16.53,18.34 L16.53,18.35 Z M31.53,54.63 C31.8843907,55.0031747 32.4641455,55.04644 32.87,54.73 L32.98,54.63 C35.4965924,51.5503354 37.8337928,48.3283378 39.98,44.98 L55.18,44.98 L56.39,48.17 L26.75,58.69 L16.16,44.94 L24.57,44.94 C26.7162072,48.2883378 29.0534076,51.5103354 31.57,54.59 L31.53,54.63 Z M26.67,60.76 L26.67,60.76 L44.39,54.46 L51.27,63.39 L19.27,63.39 L26.67,60.76 Z M9.37,44.94 L13.76,44.94 L24.87,59.36 L13.65,63.36 L2.35,63.36 L9.37,44.94 Z M53.72,63.35 L46.33,53.75 L57.13,49.91 L62.26,63.35 L53.72,63.35 Z" id="Shape" fill="#193D34"></path>
                </g>
            </g>
        </g>
    </g>
</svg>