<?xml version="1.0" encoding="UTF-8"?>
<svg width="65px" height="70px" viewBox="0 0 65 70" version="1.1" xmlns="http://www.w3.org/2000/svg" xmlns:xlink="http://www.w3.org/1999/xlink">
    <title>stars-02</title>
    <g id="Page-1" stroke="none" stroke-width="1" fill="none" fill-rule="evenodd">
        <g id="About-" transform="translate(-743.000000, -1426.000000)">
            <g id="Group-8" transform="translate(711.761589, 1427.000000)">
                <g id="stars-02" transform="translate(33.238411, 0.000000)">
                    <path d="M18.62,51.55 L18.53,50.33 C18.64,50.06 23.77,44.2 23.92,43.95 L32.08,41.28 C41.68,35.5 38.7,28.12 38.83,27.5 L34.05,12.5 C34.05,12.33 33.47,7.62 33.48,7.44 L30,0.38 C44.2347344,0.658457479 55.6287515,12.2775423 55.6287515,26.515 C55.6287515,40.7524577 44.2347344,52.3715425 30,52.65 C28.3,52.65 21,51.76 19.4,51.45" id="Path" fill="#D8EAE6" fill-rule="nonzero"></path>
                    <circle id="Oval" stroke="#153D34" stroke-width="1.81" fill="#FFFFFF" fill-rule="nonzero" cx="30.19" cy="26.77" r="18.94"></circle>
                    <path d="M43.17,24.72 C43.4507811,24.4573529 43.5561188,24.0569879 43.4409537,23.6901657 C43.3257886,23.3233435 43.010517,23.0550302 42.63,23 L35.15,22 C34.8305423,21.9502103 34.5548679,21.7490425 34.41,21.46 L31.07,14.68 C30.8971063,14.351362 30.5563424,14.145591 30.185,14.145591 C29.8136576,14.145591 29.4728937,14.351362 29.3,14.68 L26,21.41 C25.848999,21.6937859 25.5763227,21.892766 25.26,21.95 L17.75,23 C17.3866097,23.0657563 17.0890388,23.326434 16.9760321,23.6780103 C16.8630255,24.0295866 16.9529801,24.4148261 17.21,24.68 L22.61,30 C22.8386773,30.2237681 22.9464763,30.5434476 22.9,30.86 L21.63,38.3 C21.5917819,38.6629587 21.7543347,39.0179123 22.0541062,39.226087 C22.3538778,39.4342617 22.7432528,39.4625913 23.07,39.3 L29.75,35.79 C30.0357122,35.6296747 30.3842878,35.6296747 30.67,35.79 L37.36,39.3 C37.6859039,39.4574306 38.0714385,39.4264726 38.3680455,39.2190551 C38.6646525,39.0116376 38.8260322,38.6601381 38.79,38.3 L37.51,30.86 C37.4635237,30.5434476 37.5713227,30.2237681 37.8,30 L43.17,24.72 Z" id="Path" stroke="#C4D63E" stroke-width="1.81" fill="#FFFFFF" fill-rule="nonzero"></path>
                    <path d="M18,51 L14.81,55.5 C14.81,55.5 14.58,54.33 12.28,53.25 C9.98,52.17 2.95,52.41 2.95,52.41 L0.25,57 L10.84,56.53 L14.84,65.91 L24.03,52.13 L18.69,50.13 L18,51 Z" id="Path" fill="#D8EAE6" fill-rule="nonzero"></path>
                    <circle id="Oval" stroke="#153D34" stroke-width="1.81" cx="30.19" cy="26.77" r="26.13"></circle>
                    <path d="M9,42.06 L0,57.64 L10.49,57.09 L15.26,66.45 L23.61,52 C17.7327388,50.4854209 12.5667045,46.9706789 9,42.06 L9,42.06 Z" id="Path" stroke="#153D34" stroke-width="1.81"></path>
                    <path d="M51.41,42 C47.8694748,46.9229073 42.7247317,50.4588132 36.86,52 L45.21,66.44 L50,57.09 L60.5,57.64 L51.41,42 Z" id="Path" stroke="#153D34" stroke-width="1.81"></path>
                </g>
            </g>
        </g>
    </g>
</svg>